<svg version="1.1" id="map" xmlns="http://www.w3.org/2000/svg" xmlns:xlink="http://www.w3.org/1999/xlink" x="0px" y="0px" viewBox="0 0 360 420" xml:space="preserve">
<g id="shadow"><path d="M326.4,319.3c0.2,0.2,0.7,0.7,1.4,1.2c1.5,0.8,3.6-1,6.1-5.3c1.4-2.3,2.1-4.3,2.2-6c0-3,0.5-6.4,1.5-10c2.2-8.5-0.6-14.3-8.5-17.4c-3-1.2-6.3-1.8-10.1-1.8c-5.2,0-8.6-0.1-10.2-0.3c-2.5-0.5-4.7,1-6.4,4.1c-0.6,1.5-1.1,2.5-1.5,3c-0.5,0.7-1,0.9-1.6,0.5c-0.9-0.5-2.1-1-3.8-1.4c-1.7-0.3-2.7-0.7-3.1-0.9c-1.3-0.8,0.5-3.3,5.4-7.1c1.8-1.5,1.6-5-0.9-10.6c-2.4-5.5-5.1-8.9-8.1-10.1c-1.5-0.5-2.5-0.9-2.9-1c-0.3-0.2-0.8-0.9-1.5-2c-1-1.9-3.2-2.5-6.6-1.8c-3.4,0.6-5,0.8-5.2,0.4c-0.1-0.5,1.5-1.1,4.9-2c3.6-0.8,6.1-0.4,7.5,1.4c0.8,0.9,1.7,1.4,2.9,1.5c1.7,0.1,2.7,0.2,3.1,0.4c2.3,0.8,2.5-0.1,0.7-2.7c-0.6-0.9-3.1-3.8-7.1-8.6c-2.8-3.4-3.8-5.6-3.2-7l1-1.7c0.2-0.9,0-1.9-0.6-3.3c-4.2-9-9.2-14.2-15.1-15.9c-2.9-0.5-5-0.9-6.3-1.2c-2-0.4-3.6-1.3-4.6-2.8c-4.1-14.3-7.6-24.7-10.4-31.2c-1.2-2.8-3-4.8-5.4-6c-2.6-1.4-5.1-4.4-7.4-9c-0.8-1.6-1.8-2.6-2.8-3.1c-0.5-0.3-1.8-0.6-4-1.1c-1.7-0.4-3-1.2-3.9-2.3c-0.8-1.1-2-1.8-3.3-2c-2.3-0.3-4-0.2-5.1,0.2c-0.7,0.2-1.3,0.8-2.1,1.7c-1.6,1.8-4.6,2.6-9,2.3c-1.3,0-2.7-0.3-4.1-1c-0.9-0.4-1.8-0.7-2.8-0.8c-0.7-0.2-1.3-0.3-1.9-0.4c-2.2-0.1-3.3-0.6-3.3-1.6c-0.1-1,1.2-0.7,4,0.7c0.3,0.1,0.7,0.1,1.2,0c0.2-0.1,0.4-0.2,0.7-0.3c0.8-0.4,2-0.1,3.6,0.6c1.5,0.7,2.8,0.7,3.8,0c0.5-0.4,1.3-1.4,2.5-3c2.5-3.7,5.7-5.6,9.6-5.7c1.7-0.1,2.6-1,2.6-2.7c-0.1-1.6-1.1-2.3-3-2.1c-2,0.3-2.9-0.5-2.7-2.1c0-0.8,0-1.3-0.2-1.5c-0.2-0.4-0.9-0.4-2-0.2c-1.6,0.4-2.6,0.3-2.9-0.2s0.7-1.3,3.1-2.2c6.5-2.4,9.8-5.3,10-8.8c0.2-3.1,1.4-5.4,3.7-7c1.3-1,2-1.5,2.1-1.6c0.7-0.6,0.9-1.4,0.8-2.2c-0.2-1.9,0.3-3.4,1.5-4.6c1.1-1.1,1.5-2.6,1.1-4.3c-0.6-2.8-0.5-5.1,0.5-6.9c0.3-0.8,1.3-2,2.9-3.6c1.2-1.3,1.8-2.5,1.7-3.8c0-1.7-1.1-4-3.1-7c-1.2-1.7-2.5-2.2-3.7-1.5c-1.4,0.8-2.2,1-2.5,0.6c-0.8-0.9-2.3-1.2-4.3-1c-2.9,0.4-5.1,0.4-6.7-0.1c-3.2-0.8-5.6-0.5-7.3,0.8c-1.4,1.2-3.7,1.2-7-0.3c-1.2-0.4-3-0.2-5.5,0.7c-2.4,0.8-4.2,1.8-5.5,2.9c-1.7,1.4-3,2.2-4,2.1c-0.7-0.1-1.9,0.8-3.5,2.7c-2,2.1-3.5,2.9-4.7,2.2c-1.2-0.6-0.4-2,2.4-4.2c2.2-1.7,2.9-3.3,2.2-4.6c-0.6-1.2,0.6-2.4,3.6-3.8c2.4-1.1,3.4-1.7,3.3-2c-0.2-0.2-1-0.2-2.7,0c-3.8,0.2-4.9-0.5-3.1-2.2c13.9-13.2,21-21.3,21.4-24.5c0-0.4-0.4-1.2-1.1-2.5c-0.4-0.7,0-1.8,1.2-3.3c1.5-1.8,1.8-2.7,0.9-2.8c-1.8,0.1-3,0.1-3.9-0.2c-2.9-0.7-4.2-0.4-4,1.2c0,0.7,0,1.1-0.2,1.1c-0.4,0.2-1.4-0.2-3.1-1c-1.4-0.8-3.2-0.2-5.1,1.7c-1.7,1.8-3.3,2-5,0.6c-0.9-0.6-1.6-0.9-2-0.7c-0.2,0.1-0.6,0.6-1,1.3c-0.8,1.6-2.2,2.1-4.1,1.5c-1.2-0.4-2.4,0.4-3.5,2.3c-0.4,0.7-0.7,0.9-1,0.7c-0.5-0.2-1.1-1.2-1.9-2.9c-0.6-1.4-1.2-2-1.7-2c-0.3,0.2-0.7,0.7-1.2,1.5c-0.4,0.8-0.8,1.2-1.1,1.2c-0.5,0-1-0.9-1.6-2.5c-0.9-2.6-1.8-3.7-2.7-3.2c-1,0.5-1.5,2-1.6,4.5c-0.2,3-0.6,5-1.4,5.7c-0.5,0.5-0.5,1.6,0,3.3c0.4,1.7,0.3,2.6-0.2,2.7c-0.3,0.1-1.1-0.2-2.1-0.9c-1-0.6-1.7-1-2-1c-0.5,0.1-0.5,0.9,0,2.4c0.7,2.3,0.3,3.9-1.3,4.8c-1.3,0.7-1.2,2.4,0.3,5.2c1.8,3,2.5,5,2.3,6c-0.3,0.8-1.3,0.3-2.9-1.6c-0.9-1-1.4-0.5-1.5,1.4c-0.1,2-0.9,2.2-2.1,0.7c-1-1.2-1.7-1.5-2.1-1c-0.2,0.3-0.5,1.1-0.7,2.5c-0.3,3-1.2,4-2.7,2.8c-1.7-1.3-2.3-0.8-1.8,1.2c0.4,2,1.3,3.8,2.6,5.5c1.4,1.8,2,2.8,1.8,3.1c-0.1,0.2-0.8,0-1.9-0.4c-2.8-0.9-3.7,0.1-2.8,3.1c0.6,1.9,2.4,2.9,5.4,3c1.1,0.1,1.7,0.3,1.8,0.8c0.1,0.7-0.3,1.9-1.4,3.7c-0.8,1.3-0.5,2.5,0.8,3.7c1.1,0.8,0.6,2.1-1.4,3.7c-1.9,1.4-2.5,3.1-1.9,4.8c0.1,0.7,0.1,1.1,0,1.3c-0.4,0.4-1.2,0.7-2.6,0.8c-0.2,0-0.2,1.2,0.1,3.7c0.4,2.3-0.4,3.5-2.3,3.5c-2.3,0-3.8,0.3-4.5,1c-0.4,0.2-0.6,0.5-0.7,0.9c-0.1,1.2,1,1.8,3.5,1.9c2.5,0.2,3.9,0.4,4.2,0.7c0.1,0.1-0.2,0.5-0.9,1.1c-1.7,1.6-0.4,3.1,3.8,4.6c1.3,0.5,4.3-1.5,9.2-6c1.2-1,1.9-1.6,2.2-1.8c0.2-0.2,0.3-0.2,0.3-0.1c0,0,0,0,0,0.1c-0.2,0.4-1.2,2.1-3.2,4.8c-1.4,2.1-1.5,3.8-0.1,5.1c0.6,0.7,0.9,1,1,1.2c0,0.2-0.5,0.6-1.6,1c-3.4,1.1-4.8,2.5-4.1,3.9c0.5,1,0.7,1.7,0.7,2.1c-0.1,0.9-0.7,1.8-1.9,2.8c-1.1,0.9-1.5,1.7-1.3,2.6c0.1,0.4,0.5,1.2,1.2,2.3c1.4,2,1,3.6-1.3,5.1c-1.2,0.8-1.9,1.7-1.8,2.6c0,0.5,0.4,1.5,1.1,3c1.5,3.1,1.2,6.3-0.7,9.3c-0.8,1.1-1,2.8-0.9,5c0.1,2.1,0,3.3-0.6,3.8c-1.6,1.4-2.1,2.8-1.6,3.9c0.5,1,1.4,1.4,2.8,1.4c3.3-0.3,4.9-1.1,4.6-2.8c-0.2-1.2-0.5-2.2-0.6-3c-0.2-1.4-0.1-2.8,0.3-4.2c0.5-1.7,1.8-4.5,4-8.6c0.6-1.2,0.1-3.1-1.6-5.9c0.1-3.1,0.7-5.2,1.7-6.3c0.4-0.2,0.9-0.6,1.6-1.1c0.6-0.6,1.1-1.2,1.6-2c2.1-3.7,3.4-5.4,4.1-5.1c0.7,0.4,0,1.9-2.2,4.5c-3.3,4.3-4.9,7.5-4.6,9.5c0.1,0.7,0.4,1.1,0.9,1c0.6-0.1,1-0.6,1.5-1.5c0.6-1.2,1.2-1.5,1.7-0.8c0.6,0.9,1.3,1.2,1.9,0.6c0.2-0.2,0.8,0.2,1.9,0.9c0.6,0.5,0.9-0.7,1.1-3.4c0.1-3.1,0.5-5.1,1.1-6.4c0.5-1.2,1-0.5,1.4,2.3c0.1,1,1.2,2.3,3.1,3.7c0.6,0.4,0.9,0.7,0.7,1c-0.2,0.2-1,0.5-2.4,0.7c-1.7,0.4-2.5,1.4-2.5,3c0,1,0.1,2.4,0.2,4.2c-0.5,2.7-0.2,4.3,1,5c1.9,0.9,3.1,2.3,3.6,4.2c0.4,1,0.4,1.9,0.3,2.4c0,0.2-0.4,0.6-1,1.3c-1.5,1.8-2.7,4.8-3.4,8.9c-0.3,1.6-1.1,2.9-2.5,4.2c-1,0.8-1.2,2.9-0.6,6.2c0.1,1.2,0.1,1.9-0.1,1.9c-0.2,0-0.7-0.3-1.3-0.9c-1.5-1.5-2.3-1.3-2.5,0.5c-0.2,2.1,0.7,5,3,8.9c2.1,3.8,3.8,5.3,4.9,4.6c0.7-0.4,0.4-1.8-0.9-4.3c-1.4-2.3-1.5-3.8-0.5-4.3c1.7-0.9,4,0.1,6.7,3c2.8,2.7,4.4,3.9,5.1,3.6c1.7-1,2.4-2.5,2-4.5c-0.4-1.8-0.3-2.8,0.4-2.8c1.6-0.2,3.3,0.8,5.2,3.1c0.7,0.9,1.3,1.4,1.6,1.4c0.6,0.2,1.3-0.2,1.9-1.3c1-1.5,2.4-2.4,4.2-2.8c1.5-0.2,2.7-1.2,3.6-3.2c0.2-0.3,0.3-0.5,0.3-0.8c0.8-2,2.4-2.9,4.7-2.8c1.9,0.1,3.3,0.5,4.2,1.3c-3.1,2.6-4.5,4.9-4.4,7c0.2,2.6-0.9,5.5-3.4,8.5c-1.6,2.1-1.5,4.2,0.4,6.3c0.6,0.5,1.5,1.3,2.8,2.5c1.1,1.1,1.7,2.1,2.1,3c2.6,6.8,5,9.5,7.2,7.8c0.6-0.4,1.4-1.1,2.4-2.2c0.8-0.6,1.5-0.4,2.1,0.6c1,1.9,1.5,3.1,1.4,3.5c-0.3,0.7-0.2,1.4,0.1,2.3c0.4,1.1,0.3,2.1-0.6,2.6c-0.1,0.1-1,0.5-2.7,1.1c-2.5,0.9-2.8,2.9-0.8,5.9c1.6,2.5,1.9,4.4,0.7,5.5c-1.3,1.4-1.6,3.2-0.6,5.6c0.8,1.8,0.9,2.9,0.4,3.3c-0.1,0.1-0.7,0.1-1.7,0.2c-1.8,0-1.5,2.4,0.8,7.3c-3.1-1.3-5.2-1.7-6.5-1.2c-1.6,0.8-3.8,0.9-6.3,0.5c-3.3-0.6-5.3-0.6-5.8,0c-1.5,1.9-3,3.3-4.5,4c-3,1.7-4.9,2.9-5.7,3.8c-0.5,0.4-0.8,1-1,2c-0.5,1.9-3.9,5-10.2,9.3c-3.2,2.3-4,3.4-2.1,3.5c1,0.1,2.5,0.1,4.5-0.1c1,0.7,1.6,0.8,2,0.4c0.1-0.1,0.4-0.7,0.9-2c1.1-2.5,3.2-3.8,6.6-3.8c2.3,0.1,3.1,0.9,2.5,2.5c-0.7,2.1-0.4,3.3,0.9,3.9c0.9,0.4,1.2,1,1,1.8c-0.1,0.3-0.5,1.1-1.4,2.1c-1.5,2-1.4,3.4,0.6,4c1.3,0.4,1.9,0.6,2.1,0.8c0.3,0.1,0.3,0.3,0,0.7c-1.1,1.5-1.6,3.2-1.7,5.2c-0.1,3.7-3.1,7.3-9.1,11c-5.1,3-9.4,4.7-12.7,4.9c-2.8,0.1-5.1,1.1-6.7,2.8c-1.9,2-1.7,3.7,0.5,5.3c0.9,0.7,1.3,1.2,1.3,1.5c-0.1,0-0.3,0.3-0.8,0.8c-1,0.9-0.7,2.5,1,4.8c2,2.5,4.1,3.4,6.5,2.9c1.6-0.5,3.6-1.7,6.1-3.8c2.8-2.4,4.4-3.7,5-4c1.5-0.7,2.5,0.1,3,2.4c0.4,1.6,1.4,2.4,3.2,2.4c0.7,0.1,1.2,0.1,1.2,0.2c0.2,0,0.1,0.2-0.1,0.5c-0.1,0.1-0.3,0.3-0.4,0.3c-1.9,2-2.5,3.5-1.7,4.8c0.7,1.2,2.5,0.9,5.2-1.3c2-1.4,4-1.5,6,0c0.4,0.2,2.2,2,5.5,5.2c2.2,2.3,4.3,3.4,6,3.4c2.5,0,5-1.9,7.8-5.8c1.7-2.2,3.3-3.3,5-3.3c2.2,0,4.7-1.3,7.8-4.1c1.8-1.6,1.2-0.4-1.6,3.5c-2.5,3.7-4.8,6.1-6.7,7.2c-1.5,0.9-2.4,1.8-2.7,2.7c-0.1,0.4-0.1,1.2,0.2,2.2c0.2,1.8-1.3,3.1-4.8,4.2c-1.4,0.4-3.6,0.3-6.9-0.1c-3.9-0.7-6.8-1.1-8.7-1.4c-7.3-0.8-11,0.9-11.5,5.2c-0.3,2.8-1.4,4.1-3.1,4.1c-2.4-0.2-4.2,0.5-5.3,2.1c-0.6,0.9-1,2-1,3.3c0.1,0.6,0.2,1.7,0.5,3.2c0.3,2.9-1,5.8-4,8.5c-1,1-2.2,1.8-3.9,2.5c-1.1,0.4-2.1,1.5-3.1,3.1c-4.3,7.7-8.2,11.7-11.7,12.2c-0.2,0.1-1.4,0-3.5-0.1c-1.2-0.1-2.2,0.3-2.9,1.1c-3,3.3-3.3,5.5-0.9,6.5c0.9,0.4,2-0.2,3.3-1.7c1.3-1.6,2.8-2.2,4.6-1.8c1.5,0.3,2.6,1.8,3.4,4.5c0.2,0.9,0.6,1.4,1,1.5c0.5,0.2,1.2-0.2,2.4-1.2c0.9-0.6,1.6-1.1,1.9-1.5c0.5-0.7,1-1.9,1.3-3.5c0.1-1.3,0.4-2.1,0.7-2.5c0.3-0.1,0.7-0.3,1.4-0.4c1.8-0.1,3.6-1.5,5.5-4c0.8-1,1.5-1.6,2.1-1.7c0.3,0,0.9,0.1,1.9,0.3c1.9,0.5,4.4-0.6,7.4-3c1.2-1,2.5-0.9,3.6,0.2c1.8,1.7,3.8,2.5,6.3,2.3c1.8-0.1,3,0.5,3.5,1.7c0.5,1.3,1.6,2.1,3.1,2.5c1.1,0.1,1.8-0.7,2.2-2.4c0.5-2.1,1.4-3.2,2.5-3.5c1.9-0.4,2.5-1.3,2-2.6c-0.7-2-1-3.6-0.6-4.5c0-0.1,0.2-1.7,0.6-4.7c0.2-1.5,0.8-1.7,1.9-0.4c0.9,1.1,2,1.2,3.3,0.4c1.7-1.3,3.1-2.3,4.2-3c4.5-2.8,9.6-2,15.4,2.5c2.1,1.7,3.4,2.5,4,2.5c0.2,0.1,0.5-0.3,0.5-1.1c0.2-2.2,2.4-2.6,6.6-1.4c2.6,0.8,4.3,1,4.8,0.5c0.2-0.2,0.2-0.9,0-2.3c-0.4-2.9,2.4-4.2,8.6-4.1c5.3-1.5,8.1-3,8.2-4.5c-0.6-1.3-0.6-2,0.1-2.4c0.4-0.1,0.8-0.1,1.1,0.3c0.1,0.2,0.3,0.6,0.7,1.2c0.7,1.2,2.4,1.3,5,0.1c1.7-0.7,2.9-0.8,3.6-0.3c0.2,0.1,0.7,0.8,1.4,2.1c0.9,1.8,3.8,1.3,8.5-1.5c2.5-1.5,7.5-1.9,15-1.4c6.8,0.5,10.5,0.2,11.2-1c0.8-1.4,1.9-2.1,3.3-2.1c1.5-0.1,2.6-0.8,3.6-2c0.8-1.1,2.6-1.7,5.4-1.7c2.1-0.1,3.3-1.2,3.3-3.5c0.1-2.2,0.7-3.7,1.8-4.7c0.5-0.3,1.7-0.8,3.5-1.4c1.6-0.5,2.7-1.2,3.2-2.2c0.8-1.5,1.1-3.7,0.8-6.8c-0.1-0.5,0-1.1,0.3-1.7c0.4-0.5,0.5-0.9,0.4-1c0-0.4-2-0.5-5.7-0.3c-1.1,0-3.3,1-6.3,2.8c-2.2,1.2-3.9,1.2-5-0.1c-0.9-1-1.8-1.2-2.9-0.7c-0.8,0.3-1.2,0-1.3-1c-0.4-2.2-1.3-2.9-2.8-2.3c-1.7,0.8-2.7,0.7-3.2-0.1c0.1-1.3,1-2.3,2.5-3c0.7-0.3,2.4-0.7,4.9-1.3c2.1-0.5,3.6-1,4.3-1.7c1.1-0.8,1.4-2,1-3.6c-0.1-0.1-0.2-0.2-0.2-0.3c-0.2-0.6-0.7-0.8-1.5-0.7c-0.8,0.3-1.5,0.5-1.8,0.5c-1.3,0.3-1.2-1.1,0.3-4.2c0.4-0.7,0.9-0.8,1.5-0.7c0.5,0,1.2,0.3,2.3,0.7c2.4,0.5,4.7-0.6,6.9-3.5c0.8-1.2,0.5-2-0.8-2.8c-1.4-0.8-1.9-1.7-1.4-2.5C325.6,319.2,326,319,326.4,319.3z" fill="#000000" style="fill-opacity: 0.5;"></path>

<path d="M245.4,40.4c0.8-1,0.8-1.7,0.1-2.1c-0.9-0.2-1.6,0-1.8,0.8c-0.3,0.6-0.3,1.3,0.1,1.9C244.1,41.6,244.7,41.4,245.4,40.4z" fill="#000000" style="fill-opacity: 0.5;"></path>

<path d="M246.4,32.9c1,0,1.4-0.5,1.4-1.5c0.1-0.7-0.4-1-1.5-1.1c-1-0.2-1.5,0.1-1.5,0.8C244.8,32.2,245.4,32.8,246.4,32.9z" fill="#000000" style="fill-opacity: 0.5;"></path>

<path d="M247.4,21.4c-0.6-0.8-1.1-1-1.7-0.7c-0.6,0.4-1.1,1.1-1.4,2.2c-0.4,1-1,1.5-2.1,1.4c-0.9-0.1-1.4,0.6-1.5,2.1c0,1.2-0.5,2-1.5,2.5c-0.6,0.3-0.8,1.6-0.2,3.8c0.4,1.7,1,2.2,1.8,1.7c0.8-0.5,1.2-1.8,1.3-3.5c0.2-2,0.8-2.7,2.2-2.3c1.3,0.3,1.8-0.3,1.7-2c-0.1-1.2,0.3-2.2,1.1-3.2C247.7,22.5,247.8,21.9,247.4,21.4z" fill="#000000" style="fill-opacity: 0.5;"></path>

<path d="M207.1,20.9c0.7,0,0.2-0.5-1.3-1.8c-1.4-1.2-2.2-1.5-2.7-0.7c-0.4,0.7,0,1.3,1.3,1.8C205.2,20.6,206.1,20.7,207.1,20.9z" fill="#000000" style="fill-opacity: 0.5;"></path>

<path d="M212.8,19.9c-1.5,1.2-2,2.3-1.1,3.3c0.9,1,2.1,0.7,3.6-1.1c1.5-1.8,1.8-3,0.6-3.4C215.4,18.4,214.3,18.8,212.8,19.9z" fill="#000000" style="fill-opacity: 0.5;"></path>

<path d="M210.6,24.2c-0.2-0.9-0.7-1.3-1.4-1.1c-0.9,0.3-1.2,0.8-0.9,1.8c0.2,0.9,0.8,1.2,1.5,1C210.4,25.6,210.7,25.1,210.6,24.2z" fill="#000000" style="fill-opacity: 0.5;"></path>

<path d="M205.8,26.4c0.6-0.9,0.5-1.7-0.4-2.3c-0.7-0.5-1.6-0.6-2.4-0.2c-0.8,0.5-0.9,1.2-0.2,2.1C203.6,26.9,204.6,27.1,205.8,26.4z" fill="#000000" style="fill-opacity: 0.5;"></path>

<path d="M207.8,30.1c0.5,0.2,1,0,1.3-0.5c0.5-0.7,0.3-1.2-0.4-1.4c-0.8-0.1-1.3,0.1-1.5,0.8C206.9,29.6,207.2,30,207.8,30.1z" fill="#000000" style="fill-opacity: 0.5;"></path>

<path d="M204.8,34.6c0.5,0.3,1,0.8,1.2,1.3c0.3,0.6,1.3,1,2.9,1c1.7,0.1,2.5-0.2,2.7-0.8c0.1-0.9,0.1-1.4,0-1.7c-0.3-0.5-0.9-0.7-1.9-0.7c-0.5,0-1-0.3-1.5-0.8c-0.4-0.6-1.4-0.8-2.9-0.7c-1.1,0.1-1.7-0.7-1.8-2.5c-0.2-1.8-0.8-2.7-2.1-2.8c-2.1-0.3-3.1-0.3-3.2-0.3c-0.7,0.3-0.9,1.3-0.9,3.3c0,1.8,0.1,3,0.3,3.5c0.2,1,0.7,0.9,1.2-0.1c0.5-0.7,0.8-1,1-0.7c0.2,0.1,0.4,0.5,0.6,1.4c0.5,1.7,1.4,2.1,2.4,0.9C203.4,34.4,204.1,34.2,204.8,34.6z" fill="#000000" style="fill-opacity: 0.5;"></path><path d="M208.2,39.5c-0.1-0.7-0.9-0.5-2.3,0.6c-0.6,0.5-0.6,1.1,0.3,1.6c0.9,0.6,1.4,0.6,1.6,0C208.2,40.7,208.3,39.9,208.2,39.5z" fill="#000000" style="fill-opacity: 0.5;"></path><path d="M236.2,31.9c0.5-1.6,0.5-2.3-0.1-2c-0.9,0.6-1.6,1-2,1.3c-1.5,0.3-2.5,0.6-3.2,0.9c-1.1,0.5-0.6,1.5,1.5,3.1c1.9,1.4,3.3,2.9,3.8,4.3c0.6,1.6,0,2.4-2,2.6c-4.3,0.3-6.3,1.1-5.9,2.5c0,0.5,0.4,0.8,1,1.3c0.5,0.4,0.9,0.6,1,0.6c0.6,0,1.1,0.6,1.5,1.9c0.4,0.8,1.1,0.7,2.4-0.3c1.1-0.8,1.7-0.5,2.1,1.1c0.3,1.2,0.3,3.3,0,6c-0.5,4.5,0,6.7,1.4,6.4c1.3-0.1,1.9-2,1.9-5.5c-0.1-2.4,0.4-4.2,1.5-5.4c0.6-0.8,0.5-1.8-0.5-3.1c-0.8-1.1-1-2-0.6-2.5c0.8-1.5,1.3-2.2,1.3-2.4c0.5-2,0.7-3.3,0.5-3.8c-0.1-0.6-0.9-1.1-2.1-1.6c-2.1-0.9-3.4-1.4-3.6-1.9C235.6,34.9,235.7,33.7,236.2,31.9z" fill="#000000" style="fill-opacity: 0.5;"></path><path d="M199.7,36.6c-1.5-1.6-2.7-2-3.4-1.2c-0.8,1-0.7,2.2,0.1,3.7c0.9,1.7,2.3,2.1,4.1,1.4C201.4,39.6,201.2,38.3,199.7,36.6z" fill="#000000" style="fill-opacity: 0.5;"></path><path d="M121.6,63.7c0.2,2.1-0.1,3.3-0.8,3.5c-0.3,0.2-1.1,0-2.3-0.6c-1.2-0.7-2.1-1-2.6-0.8c-0.8,0.3-1.2,1.4-1.2,3.4c-0.2,4.3,0.6,7,2.2,8.2c0.4,0.3,0.7,0.6,0.7,0.8c-0.1,0.4-0.8,1.2-1.9,2.6c-0.9,1-0.9,2.2-0.2,3.6c0.7,1.5,1.7,1.7,3,0.8c3.8-2.6,5.3-4.7,4.9-6.1c-0.3-0.7-0.6-1.2-0.7-1.5c-0.1-0.6,0.1-1.2,0.9-1.9c0.5-0.4,1.2,0.1,2,1.5c0.7,1.4,1.8,1.2,3.3-0.2c1.3-1.3,1.6-2.8,0.8-4.5c-0.8-1.6-0.6-2.6,0.6-3.3c2-1.1,3-1.6,3-1.7c-0.2-0.8,0-2.2,0.5-4.2c1.2-4.6,1.6-7.5,1.3-8.7c-0.5-1.6-2.6-0.5-6.1,3.3c-1.2,1.2-3,2.1-5.4,2.7C122.2,60.9,121.5,61.9,121.6,63.7z" fill="#000000" style="fill-opacity: 0.5;"></path><path d="M105.8,93.2c1.1-0.1,2.1,0.4,3,1.7c0.9,1.2,1.6,1.5,2.2,1.1c2.5-1.5,3.7-3,3.5-4.4c-0.2-1.5-1.7-2.2-4.4-2.2c-3.8,0.2-5.9,0.7-6.3,1.8C103.6,92.1,104.2,92.7,105.8,93.2z" fill="#000000" style="fill-opacity: 0.5;"></path><path d="M109.6,97.7c-0.9-0.5-1.8-0.3-2.5,0.5c-0.8,1-1.2,2.7-1.1,4.9c0,0.6-0.2,3-0.8,7.1c-0.2,3.5,0.7,4.6,2.8,3.2c1.4-1,2-2.2,2-3.4c-0.2-1.9,0-3.3,0.5-4.3c1-1.8,1.3-3.6,1-5.1S110.5,98.2,109.6,97.7z" fill="#000000" style="fill-opacity: 0.5;"></path><path d="M121.7,97.1c-0.8-0.4-1.2-0.4-1.1,0c0,0.5,0.7,1.8,1.9,3.8s2.2,2.6,2.8,1.8c0.9-0.9,1.5-1.2,2.1-0.8c0.9,0.6,1.3,1.1,0.9,1.4c-0.5,0.3-1,0.6-1.2,0.8c-0.9,0.8,1,2.6,6,5.6c1.4,0.9,2.5,0.9,3.4,0.2c0.6-0.7,1.3-0.7,1.9,0c0.6,0.7,0.2,1.5-1.4,2.7c-1.4,1.1-1.4,2.2,0.1,3.3c1.2,0.9,3.1,0,5.7-2.9c2.6-2.9,3.4-4.8,2.2-5.8c-0.7-0.5-1.6-0.6-2.8-0.1c-1.3,0.3-2.6-0.3-4-1.7c-2.2-2.3-3.1-4.7-2.8-7.1c0.4-2.6-0.3-5-2.1-7.2c-1.5-2-2.8-2.7-3.6-1.9c-0.9,0.7-0.7,2.4,0.4,4.7c0.8,1.7,1.1,2.6,0.7,2.7c-0.1,0-0.7-0.3-1.7-1c-2.5-1.7-3.8-1.5-3.9,0.5C125.2,97.8,124,98.1,121.7,97.1z" fill="#000000" style="fill-opacity: 0.5;"></path><path d="M81.5,197.6c-0.3,0.5-1,1.1-2,1.8c-0.7,0.4-1,1.5-0.8,3.3c0.2,1.6,0.3,3,0.6,4.4c-0.1,0.5-0.6,0.8-1.7,1c-0.6,0.1-1,0.6-1.3,1.6c-0.3,0.8-1.2,1-2.8,0.6c-1-0.2-2,0-2.8,0.7c-0.7,0.7-1.2,1.4-1.3,2.4c-0.3,2.4,1.5,3.6,5.4,3.3c4.8-0.3,7.7-0.3,8.8-0.1c1.6,0.1,1.4,0.8-0.2,2.1c-1,0.7-1.4,1.6-1.4,2.7c0,0.7-1.1,1.3-3.5,1.8c-3.2,0.7-5,2.5-5,5.4c-0.1,1.3-0.2,2.1-0.4,2.4c-0.3,0.6-1.2,0.7-2.7,0.4c-5.3-1-8.4-0.8-9.5,0.4c-0.4,0.3-0.6,0.8-0.9,1.4c-0.2,0.4-0.6,0.5-1.4,0.3c-0.3-0.1-0.6-0.4-1-0.9c-0.5-1-0.9-1.5-1.1-1.8c-1.4-1.6-3.7-2.4-6.9-2.2c-0.7,0-1.4,0-2.1,0.1c-2,0-3.4,0.2-4.1,0.5c-1.3,0.2-2.3,1-3.1,2c-2.4,3-2.9,5-1.4,6c0.8,0.7,1.3,1,1.4,1.1c0.2,0.6,0,1.4-0.9,2.3c-1.5,1.6-1.9,2.8-1.4,3.5c0.4,0.5,1.4,0.8,3.1,1.1c2.1,0.2,3.5,0.5,4.1,0.8c1.3,0.6,1.8,1.4,1.7,2.8c-0.2,0.9-0.6,1.4-1.5,1.5c-0.2,0-1.1-0.1-2.5-0.2c-2.5-0.3-4,0.8-4.4,3.3c-0.2,1.6,0.4,2.4,1.9,2.6c0.7,0.1,1.1,0.2,1.2,0.3c0.3,0.2,0.1,0.6-0.4,1.3c-0.6,1-1.9,1.1-3.6,0.3c-1.7-0.7-2.8-0.2-3.5,1.4c-0.6,1.2-0.8,1.8-0.8,1.9c0,0.1,0,1.1,0.1,2.9c-0.1,1.1,0,1.8,0.1,2.1c0.3,0.6,1.1,0.9,2.3,0.9c1.1,0,2.1-0.2,2.8-0.5c0.3-0.1,0.5,0.6,0.5,2c0.2,1.6,1.1,2.1,2.9,1.2c1.8-0.8,2.6-0.3,2.6,1.5c-0.1,2.5,2,3.5,6.2,3.1c0.1,0,0.2,0,0.3,0c3-0.3,4.5-0.5,4.6-0.5c1.4,0,2.1,0.3,2.1,1.1c0,0.1,0.4,0.6,1.2,1.3c0.5,0.4-0.1,1.2-1.7,2.4c-2.1,1.4-3.4,1.7-4.2,0.9c-0.2-0.4-0.6-0.4-1.1-0.3c-0.5,0.1-1.1,0.5-1.9,1.3c-3.3,3.5-4.8,5.7-4.5,6.7c0.2,0.4,0.3,0.9,0.7,1.5c0.1,0.9-0.2,1.9-0.9,3.2c-1.3,2.7-2,4.1-2,4.1c-0.6-0.1-1.5,0.5-2.8,1.6c-1.5,1.5-3.7,3.1-6.5,5.1c-1.2,1.3,0,1.6,3.6,0.9c1.2-0.2,2.3-1,3.2-2.5c0.5-0.8,2-0.5,4.2,1c2.4,1.5,4.6,1.8,6.8,1c2.1-0.9,3.7-2.9,4.6-5.9c0.2-1,0.7-1.3,1.5-1.1c0.6,0.3,1,0.9,1,1.7c0,1.6,0.8,2.5,2.2,2.6c1.4,0.1,2.2,0.6,2.2,1.5c0,0.7-0.7,0.8-2,0.4c-1.7-0.5-3-0.4-3.9,0.3c-2.4,2-5.9,2.6-10.6,2.1c-2.5-0.3-4-0.4-4.5-0.3c-1.4,0-2.3,0.5-2.8,1.4c-0.7,1.6-2.5,2.7-5.3,3.3c-1.2,0.2-1.9,0.3-2,0.5c-0.5,0.2-0.4,0.7,0.1,1.3c1.4,1.6,1.6,2.7,0.7,3.1c-0.8,0.6-1,1.1-0.5,1.9c0.9,1.3,1,2.3,0.2,2.9s-1.8,0.1-3-1.3c-0.9-1-1.5-1.2-2.1-0.6c-0.8,0.6-1.8,0.5-2.9-0.3c-2.3-1.5-3.7-1.5-4.1,0.3c-0.2,0.5-0.3,1.2-0.4,2.2c-0.1,0.7-0.4,1-0.8,1c-1.6,0-2.6,0.8-2.9,2.3c-0.3,1.5,0.4,2.1,2,1.7c1.9-0.5,3.7-0.6,5.7-0.2c1.8,0.2,3.2,0.2,4.4-0.3c2.4-1,3.7-1.2,3.8-0.7c0.1,0.4-0.3,1.1-1.2,2.2c-1.7,1.8-3.9,2.8-6.6,3.1c-2.2,0.3-3.2,0.7-3.3,1.4c-0.1,2.2-0.7,3.5-1.7,3.8c-1,0.4-1.5,1.3-1.4,2.7c0,1.7,0.7,2.1,2.3,1.1c1.6-0.9,2.4-0.6,2.6,0.9c0.1,2.1,2.7,2.3,7.9,0.6c1.3-0.4,3-1,5.2-1.8c1.5-0.5,2.3-0.5,2.3,0.1c-0.1,0.6-1.7,1.5-5,2.6c-3.2,1-4.8,2.3-4.9,3.8c0,0.8-0.3,1.3-0.6,1.3c-1.1,0.1-1.9,0.2-2.3,0.5c-1.8,0.9-2.6,1.7-2.5,2.5c0.3,0.7,1.2,0.8,3,0c3.8-1.6,6.8-2.3,9.1-2.2c1.6,0.1,2.7-0.1,3.2-0.6c1.6-1.6,2.5-2.5,2.8-2.5c1-0.7,1.5,0,1.4,2.2c-0.2,1.3-1.7,2.1-4.9,2.5c-3,0.5-4.4,1-4.3,1.5c0.2,1.1,1.2,1.3,3.2,0.5c2-0.7,3.1-0.8,3.3-0.2c0.2,0.7-1.1,1.4-3.9,2c-2.6,0.7-3.3,1.9-2.3,3.6c0.5,0.9,1.4,0.9,2.5,0.1c1.5-0.9,2.7-1.3,3.5-1.1c0.7,0.2,1.7-0.2,3-1.4c1-0.8,1.7-0.7,2.2,0.5c0.5,1.2,0.9,1.8,1.3,1.9c0.3,0.1,0.7-0.1,1.3-0.4c1.4-1,2.9-1,4.5,0.2c0.6,0.5,0.9,0.5,1.1,0c0.1-0.1,0.1-0.7,0.2-1.8c0-1.7,1-2.1,2.9-1c1.7,1,3,1,3.5-0.1c0.6-1,1.6-0.9,3,0.2c1.1,0.9,1.7,0.8,2-0.3c0.4-1.4,1.2-2,2.6-1.7c1.3,0.3,2-0.3,2-1.9c0.1-1.6,1-2.1,2.8-1.6c2.4,0.8,3.5-0.7,3.2-4.3c-0.1-1.7-0.1-2.6-0.1-2.7c0.1-0.5,0.6,0,1.5,1.2c1.6,2.3,2.8,3.1,3.6,2.2c0.9-1.1,2-1.3,3-0.5c0.5,0.3,0.7,0.4,0.8,0.1c0-0.5,0-0.8,0-1.1c0.2-1.4,1.2-1.9,2.9-1.8c1,0,1.5-0.1,1.8-0.6c0-0.2,0.2-0.7,0.2-1.7c0.1-1.6,1.3-2.3,3.7-1.9c1.4,0.2,2.2-0.1,2.4-0.7c0.2-0.4,0.2-1.1,0-2.2c-0.3-2.4,0.7-3.4,3.3-3c2.7,0.3,5.1,0.2,7.4-0.4c2-0.5,3.5-0.6,4.7-0.3c1.3,0.5,1.8-0.2,1.4-2c-0.3-1.7,0.1-2.4,1.2-2c1.2,0.3,1.5,1.4,0.7,3.2c-0.3,0.9-0.5,1.4-0.4,1.6c0.1,0.4,0.6,0.4,1.5,0.2c0.9-0.3,1.4-0.8,1.6-1.6c0-1,0.1-1.7,0.1-2.1c0.2-1.3,2.2-1.2,5.9,0.5c1.1,0.6,2.4,0.9,3.9,1.2c2,0.2,3.2-0.1,3.6-1.1c0.3-0.9,0.3-1.7-0.1-2.7c-0.5-1.1-0.9-2-1.2-2.5c-0.9-2.1-0.3-4.2,1.9-6.4c1.9-1.9,3-5,3-9.3c0.2-4.4,0.9-7.4,2.4-9c1.9-2.1,2.6-4.3,2-6.4c-0.4-1.2-0.7-2-0.9-2.6c-0.2-0.9-0.3-1.8-0.1-2.5c0.4-1.3,0-2.4-1-3.7c-1-1.1-1.1-2.2-0.4-3.5c0.5-1,0.5-1.7-0.3-2.1c-1-0.4-1.3-1.5-0.9-3.3c1.1-5.1,1.2-8.2,0.1-9.6c-0.7-0.6-1.1-1-1.4-1.2c-0.5-0.4-0.7-1-0.8-1.9c-0.2-5.6-1-9.1-2.7-10.6c-0.7-0.6-1.3-1-1.5-1.3c-0.5-0.4-0.7-1.1-0.7-2c0.1-2,1.1-2.5,2.8-1.6c2,1,3.1,1.2,3.4,0.7c0.7-1.5,0.4-2.4-1-2.8c-1.5-0.5-2.1-1.2-2-2c0.8-0.2,1.8,0,3,0.5c0.6,0.2,1.5,0.6,2.7,1.2c1.9,0.8,3.2-0.2,3.7-3c0.5-3,1.9-4.6,4.1-4.7c1.1-0.2,1.9-0.3,2.2-0.4c0.7-0.4,1.1-1.3,1.1-2.5c0.1-0.6-0.3-1.3-0.9-1.9c-0.4-0.2-0.5-0.6-0.5-1.2c0-0.4,0.1-0.7,0.2-1.1c0.5-1.1,0.3-2.3-0.5-4c-0.7-1.4-0.8-2.3-0.3-2.5c1.2-0.7,2,0.7,2.5,3.8c0.2,1.1,0.3,2,0.6,2.8c0.4,1.6,0.9,2.3,1.3,2.3c0.8-0.1,1.1-1.2,0.9-3.2c0-0.2,0-0.4-0.1-0.6c-0.2-2.1-0.9-4.4-1.8-7c-0.3-1.1-0.7-1.5-1.1-1.5c-0.7,0.1-1.3-0.1-1.9-0.5c-1.2-1-2.5-0.8-4.2,0.6c-1.2,1.2-2,1.1-2.3,0c-0.3-1.4,0.3-2.6,1.9-3.6c1.7-1.2,2.5-2.1,2.6-2.8c0.1-1.4,0-2.2-0.2-2.5c-0.2-0.4-1-0.1-2.3,0.7c-0.7,0.4-0.9,0-0.7-1.3c0.1-1.8-0.3-2.8-1.5-3.1c-1.3-0.4-1.8-0.9-1.5-1.8c0.3-1-0.1-1.8-1-2.4c-0.7-0.4-1.1-1-1.3-1.7c0-1,0-1.8-0.1-2.3c-0.1-1.9-1.8-3.3-5.1-4.2c-2.5-0.8-4.5-0.9-5.7-0.2c-1.8,0.9-3.8,1.4-5.8,1.4c-3,0-4.8,0.9-5.3,2.9c-0.3,1.2-0.5,1.9-0.7,2.1c-0.3,0.7-1.1,1-2.2,1.1c-1.1-0.2-1.9,0-2.8,0.5c-0.6,0.4-1.5,0.4-2.5-0.1l5.9-4.6c3.4-3.1,4-4.6,1.6-4.6c-2,0-3.7-1.3-5.3-3.6c-0.6-1-1-1.7-1.2-1.8c-0.5-0.3-1-0.1-1.5,0.7c-0.6,0.7-0.3,1.8,0.7,3.3c0.7,0.9,0,1.3-2,1.2c-1.7-0.1-2.7,0.5-2.9,1.7c-0.1,0.6,0.1,1.9,0.6,3.7c0.6,1.8,0.8,3,0.7,3.7c-0.1,1-1.1,1.3-2.7,1.1c-0.9-0.1-1.2-0.8-0.7-1.9c0.7-1.5,0.5-2.7-0.3-3.6c-0.7-1.7-1.1-2.8-1.4-3.2c-0.3-0.8-1.4-0.3-3.1,1.4c-0.6,0.6-1.2,0.8-1.7,0.7c-0.1-0.1-0.5-0.4-1.3-1.1c-1.4-1.1-2.9-0.8-4.7,0.6c-0.5,0.5-1.3,0.7-2.5,1C83,194.6,82.3,195.6,81.5,197.6z" fill="#000000" style="fill-opacity: 0.5;"></path><path d="M132.3,119.1c-0.3-0.5-0.2-1.2,0.3-2c0.4-0.7,0.2-1.2-0.5-1.5c-1.3-0.2-2.1-0.3-2.4-0.2c-0.9,0-1.2,0.4-1.3,1.1c-0.1,1.6,0.8,2.8,2.4,3.4c0.6,0.2,1.1,0.2,1.5,0C132.6,119.8,132.7,119.6,132.3,119.1z" fill="#000000" style="fill-opacity: 0.5;"></path><path d="M141.9,137.7c-1.1,0-3.1-1.6-6.1-5.1c-0.5-0.5-1-0.4-1.8,0.7c-0.9,1.3-1.8,1.9-2.7,1.9c-1.7,0.1-1.6,0.7,0.4,2c2.1,1.2,3.4,1.8,3.9,1.6c1.4-0.5,2.2-0.4,2.5,0.3c0.2,0.8-0.2,1.4-1.4,1.8c-2.7,1-3.4,1.8-1.9,2.7c0.7,0.5,1,0.8,1,1c0,0.3-1,0.8-2.6,1.2c-2.6-0.1-3.8,0.6-3.5,1.7c0,0.4,0.3,0.7,0.8,1c0.6,0.2,1.1,0.2,1.6,0c4.6-2.1,7.5-3.1,8.8-2.9c0.4,0,0.7,0,1.2,0.1c0.4,0,1.1-0.3,2-0.8c1.2-0.7,2-1.3,2.2-1.8c0.3-0.5,0.1-1.3-0.5-2.2C144.1,138.8,142.8,137.7,141.9,137.7z" fill="#000000" style="fill-opacity: 0.5;"></path><path d="M161.6,167.8c-0.8-1.6-1.6-2.6-2.5-3.2c-1-0.7-1.5-0.3-1.5,1.1c0,0.8,0.4,1.4,1.2,1.7c0.7,0.3,1.1,1.1,1,2.4c0,1.4,0.4,1.7,1.2,0.8C161.8,169.6,162,168.7,161.6,167.8z" fill="#000000" style="fill-opacity: 0.5;"></path><path d="M158.9,174.6c-0.7-1.5-1.5-2.3-2.2-2.4c-1.3-0.1-2.4,0.4-3.3,1.6c-1,1.3-1,2.4,0,3.5c0.9,0.9,1.2,2,0.9,3.4c-0.2,1.1,0.3,2.2,1.5,3.1c3.2,1.4,4.6-0.1,4.3-4.5C159.9,177.7,159.6,176.1,158.9,174.6z" fill="#000000" style="fill-opacity: 0.5;"></path><path d="M138.6,161c0.5,0.1,0.7,0.2,0.7,0.2c0,0.2-0.5,0.6-1.3,1.2c-0.9,0.7-1.4,1.9-1.3,3.8c0,2,0.4,3,1.3,3c1.2-0.1,2-0.9,2.3-2.5c1-3.9,2.2-7.4,3.6-10.6c0.9-2.1,0.7-2.5-0.8-1.2c-1.9,2-3.3,3.3-3.9,3.8C137.8,160.1,137.6,160.8,138.6,161z" fill="#000000" style="fill-opacity: 0.5;"></path><path d="M127,167c-0.7,3.6-0.9,5.6-0.5,6.2c0.3,0.5,0.9,0.1,1.8-0.9c1.5-1.6,2.3-2.5,2.4-2.5c0.6-0.6,0.9-0.1,0.8,1.5c-0.1,0.8,0.1,1.2,0.5,1.4c0.3,0.1,0.2,1-0.3,2.6c-0.4,1-0.4,1.6,0.2,1.9c0.4,0.1,1.2,0,2.1-0.4c2.2-1.1,3.3-2.5,3.4-4.2c0-1.3-0.3-2.2-0.9-2.7s-0.8-1.7-0.8-3.6c0.1-1.4-0.2-2.6-0.6-3.5c-0.6-1.1-1.3-0.7-2.1,1.3c-0.9,2.5-2.1,3-3.5,1.6c-0.7-0.8-1.2-1.1-1.4-1C127.7,164.7,127.3,165.5,127,167z" fill="#000000" style="fill-opacity: 0.5;"></path><path d="M169.5,240.8c3.3-0.9,6-2.8,8.1-5.6c2-2.7,2.6-4.9,1.8-6.5c-0.2-0.5-0.1-1,0.3-1.5c0.2-0.5,0.1-0.9-0.6-1.2c-1.7-0.1-3.5,1.2-5.6,3.8c-0.3,0.4-1.7,2.4-4.1,6c-1.7,2.2-2.8,3.6-3.2,4.4C165.4,241.4,166.6,241.7,169.5,240.8z" fill="#000000" style="fill-opacity: 0.5;"></path><path d="M176.6,267.4c-2.1,0.9-3.5,1.9-4.4,3c-1.5,2-0.7,3.8,2.6,5.5c0.7,0.3,1,1,0.9,2c0,0.8,0.4,1.2,1.5,1.1c0.6-0.1,1.1,0.3,1.2,1.2c0,0.5,1.2,0,3.3-1.5c3.1-2,4.9-3.4,5.4-3.9c1.1-1.1,0.7-1.7-1.3-1.7c-2.7-0.2-4.5-1.4-5.4-3.9c-0.3-1.1-0.7-1.8-1-2C178.8,266.8,177.9,266.9,176.6,267.4z" fill="#000000" style="fill-opacity: 0.5;"></path><path d="M262.3,377.3c-5.1,1.8-7.2,2.9-6.5,3.2c0.4,0.2,1.4,0.5,3,1c1.6,0.5,3,1.2,4,2.1c1.4,1.1,2.4,1.2,3,0.1c1.1-1.6,1.9-2.5,2.4-2.7c1.4-0.5,2-1.4,2-2.6c0-1.3-0.7-1.5-2.1-0.9c-1,0.5-1.9,0.4-2.9-0.2C264.3,376.7,263.3,376.7,262.3,377.3z" fill="#000000" style="fill-opacity: 0.5;"></path></g><g id="regions"><g><path id="map_1" fill="#ded2e7" stroke="#9CA8B6" stroke-width="1" d="M336.1,297.9c2.2-8.4-0.6-14.2-8.5-17.3c-3-1.3-6.3-1.9-10.1-1.9c-5.2,0-8.6,0-10.2-0.3c-2.5-0.4-4.7,1-6.4,4.2c-0.6,1.5-1.1,2.5-1.5,3c-0.5,0.7-1,0.9-1.6,0.5c-2.1,4.3-5.2,6.6-9.2,6.9c-4.2-0.5-7-0.5-8.2-0.2c-0.8,0.3-1.1,0.9-0.8,1.7c0,0.3,0.5,1.2,1.4,2.7c1.6,2.8,1.7,4.8,0.1,6c-1.2,1-2,1.8-2.2,2.3c0,0.3,0,0.7,0.3,1.3c0.6,1.4-0.3,3.2-2.6,5.8c0.3,1.5,0.2,4.1-0.2,7.9c-0.3,2.8,0,4.6,1.2,5.4c0.6,0.4,0.8,1.1,0.8,1.9c-0.1,0.4-0.3,1.2-0.5,2.4c-0.1,1.1,0.3,2.1,1.2,3.2s2.4,2.1,4.5,3.1c1.8-0.5,3.7-1.3,5.7-2.5c1.4-0.8,2.6-1.1,3.6-1c0.9,0,1.6,0.3,2.2,1c0.5,0.6,1.8,1,3.6,1.2c4.2,0.5,6,1.4,5.2,2.5c-0.6,0.8-1.1,1.5-1.5,2c-0.6,1-0.8,2-0.6,2.9l4.1-1c0.1-1.3,1-2.3,2.5-3c0.7-0.3,2.4-0.8,4.9-1.4c2.1-0.4,3.6-1,4.3-1.6c1.1-0.9,1.4-2.1,1-3.6c-0.1-0.2-0.2-0.3-0.2-0.3c-0.2-0.6-0.7-0.9-1.5-0.7c-0.8,0.2-1.5,0.4-1.8,0.5c-1.3,0.3-1.2-1.2,0.3-4.3c0.4-0.6,0.9-0.8,1.5-0.7c0.5,0.1,1.2,0.3,2.3,0.7c2.4,0.6,4.7-0.5,6.9-3.5c0.8-1.1,0.5-2-0.8-2.7c-1.4-0.8-1.9-1.7-1.4-2.5c0.2-0.6,0.6-0.8,1-0.4c0.2,0.2,0.7,0.6,1.4,1.1c1.5,0.8,3.6-0.9,6.1-5.2c1.4-2.3,2.1-4.3,2.2-6C334.6,304.9,335.1,301.6,336.1,297.9z" cursor="pointer" style="fill: #ded2e7;"></path></g><g><path id="map_2" fill="#e5f1c8" stroke="#9CA8B6" stroke-width="1" d="M285.1,257.5c-0.7-0.2-1.8-0.8-3.5-1.9c-1.5-1.2-2.7-1.8-3.2-1.9c-1-0.1-1.5,0.5-1.6,2c-0.2,3.3-1.1,4.5-2.9,3.5c-1.2-0.6-1.8-1-2-1c-0.6-0.3-1.1,0.1-1.4,1c-1.2,3.9-2.3,5.7-3.6,5.4c-0.9-0.4-1.6-0.6-2.2-0.7c-1.1-0.2-2.3,0.2-3.5,0.8c-3.9,2.2-6.9,3.2-8.9,3c-1.4-0.3-2.6-1.3-3.5-3c-1.5-2.5-2.4-4-2.9-4.5c-1.5-1.4-3.6-1.9-6.5-1.4c-2.2,3.7-2.8,6.1-1.8,7.4c0.7,0.8,1.1,1.5,1.2,1.8c0.4,0.9,0.3,2.3-0.2,4.2c3,1.1,4.9,2.6,5.6,4.2c0.4,1.1,0.3,2.5-0.3,4.3c-0.6,2-0.9,3.2-0.7,3.8c0.2,1.2,1.6,2,4.1,2.5s3.4,1.4,2.6,2.8c-1,2.1-1.1,3.5-0.6,4.4c1.3,1.6,3.1,3.5,5.5,5.6c2.6,2.3,4.3,3.8,4.9,4.5c2.7,3.2,2.3,7-1.4,11.4c0.8,3.5,1.8,5.5,2.9,6.3c0.9,0.7,2.2,0.3,3.8-0.8c0.9-0.7,2.7-2.2,5.1-4.3c2.3-2.1,4.5-3.5,6.5-4.3c2.3-2.6,3.2-4.4,2.6-5.8c-0.3-0.6-0.3-1-0.3-1.3c0.2-0.5,1-1.3,2.2-2.3c1.6-1.2,1.5-3.2-0.1-6c-0.9-1.5-1.4-2.4-1.4-2.7c-0.3-0.8,0-1.4,0.8-1.7c1.2-0.3,4-0.3,8.2,0.2c4-0.3,7.1-2.6,9.2-6.9c-0.9-0.5-2.1-1-3.8-1.4c-1.7-0.4-2.7-0.7-3.1-1c-1.3-0.8,0.5-3.2,5.4-7c1.8-1.5,1.6-5-0.9-10.6c-2.4-5.5-5.1-8.9-8.1-10.2C287,257.3,286.3,257.8,285.1,257.5z" cursor="pointer"></path></g><g><path id="map_3" fill="#bbbbbb" stroke="#9CA8B6" stroke-width="1" d="M82,193.3c-0.5,0-1.2,1-2,3c-0.3,0.5-1,1.2-2,1.9c-0.7,0.4-1,1.5-0.8,3.3c0.2,1.6,0.3,3,0.6,4.3c-0.1,0.5-0.6,0.9-1.7,1c-0.6,0.1-1,0.7-1.3,1.7c-0.3,0.7-1.2,0.9-2.8,0.6c-1-0.3-2,0-2.8,0.6c-0.7,0.7-1.2,1.5-1.3,2.5c-0.3,2.4,1.5,3.5,5.4,3.3c4.8-0.3,7.7-0.3,8.8-0.2c1.6,0.2,1.4,0.9-0.2,2.1c-1,0.8-1.4,1.7-1.4,2.8c0,0.6-1.1,1.2-3.5,1.7c-3.2,0.8-5,2.5-5,5.4c-0.1,1.4-0.2,2.1-0.4,2.4c-0.3,0.6-1.2,0.8-2.7,0.5c-5.3-1-8.4-0.9-9.5,0.4c-0.4,0.2-0.6,0.7-0.9,1.3c-0.2,0.4-0.6,0.5-1.4,0.3c-0.3,0-0.6-0.4-1-0.9c-0.5-1-0.9-1.5-1.1-1.7c-1.4-1.7-3.7-2.4-6.9-2.3c-0.7,0-1.4,0-2,0.1c-2.1,0.1-3.5,0.3-4.2,0.5c-1.3,0.3-2.3,1-3.1,2.1c-2.4,2.9-2.9,4.9-1.4,6c0.8,0.7,1.3,1,1.4,1.1c0.2,0.6,0,1.3-0.9,2.2c-1.5,1.7-1.9,2.9-1.4,3.5c0.4,0.5,1.4,0.9,3.1,1.1c2.1,0.3,3.5,0.6,4.1,0.8c1.3,0.6,1.9,1.5,1.7,2.9c-0.2,0.8-0.6,1.3-1.5,1.5c-0.2,0-1.1-0.1-2.5-0.3c-2.5-0.2-4,0.9-4.4,3.4c-0.2,1.5,0.4,2.4,1.9,2.5c0.7,0.1,1.1,0.2,1.2,0.4c0.3,0.1,0.1,0.6-0.4,1.2c-0.6,1-1.9,1.1-3.6,0.4c-1.7-0.7-2.8-0.3-3.5,1.4c-0.6,1.1-0.8,1.7-0.8,1.8c0,0.2,0,1.2,0.1,2.9c-0.1,1.1,0,1.9,0.1,2.1c0.3,0.7,1.1,0.9,2.3,0.9c1.1,0,2.1-0.1,2.8-0.5c0.3-0.1,0.5,0.6,0.5,2c0.2,1.7,1.1,2.1,2.9,1.3c1.8-0.9,2.6-0.4,2.6,1.5c-0.1,2.5,2,3.5,6.2,3.1c0.1,0,0.2,0,0.3,0c3-0.4,4.5-0.5,4.6-0.5c1.4,0,2.1,0.3,2.1,1c0,0.1,0.4,0.6,1.2,1.4c0.5,0.4-0.1,1.1-1.7,2.3c-2.1,1.4-3.4,1.8-4.2,0.9c-0.2-0.3-0.6-0.4-1.1-0.2c-0.5,0.1-1.1,0.5-1.9,1.2c-3.3,3.5-4.8,5.8-4.5,6.8c0.2,0.3,0.3,0.8,0.7,1.5c0.1,0.8-0.2,1.8-0.9,3.2c-1.3,2.7-2,4-2,4c-0.6,0-1.5,0.5-2.8,1.7c-1.5,1.4-3.7,3.1-6.5,5.1c-1.2,1.2,0,1.6,3.6,0.9c1.2-0.2,2.3-1.1,3.2-2.6c0.5-0.7,2-0.4,4.2,1c2.3,1.6,4.6,1.9,6.8,1c2.1-0.9,3.7-2.8,4.6-5.9c0.2-0.9,0.7-1.3,1.5-1c0.6,0.3,1,0.8,1,1.7c0,1.6,0.8,2.5,2.2,2.5c1.4,0.1,2.2,0.6,2.2,1.5c0,0.7-0.7,0.8-2,0.5c-1.7-0.5-3-0.5-3.9,0.3c-2.4,1.9-5.9,2.6-10.6,2c-2.5-0.2-4-0.3-4.5-0.3c-1.4,0.1-2.3,0.6-2.8,1.5c-0.7,1.6-2.5,2.6-5.3,3.2c-1.2,0.3-1.9,0.4-2,0.5c-0.5,0.3-0.4,0.8,0.1,1.3c1.4,1.6,1.6,2.7,0.7,3.1c-0.8,0.6-1,1.2-0.5,1.9c0.9,1.3,1,2.3,0.2,3c-0.8,0.5-1.8,0.1-3-1.4c-0.9-1-1.5-1.1-2.1-0.6c-0.8,0.6-1.8,0.6-2.9-0.2c-2.3-1.6-3.7-1.5-4.1,0.2c-0.2,0.5-0.3,1.3-0.4,2.2c-0.2,0.8-0.4,1.1-0.8,1.1c-1.6,0-2.6,0.7-2.9,2.2c-0.4,1.6,0.4,2.1,2,1.7c1.9-0.5,3.7-0.6,5.7-0.2c1.8,0.3,3.2,0.2,4.4-0.2c2.4-1,3.7-1.3,3.8-0.8s-0.3,1.1-1.2,2.2c-1.7,1.8-3.9,2.9-6.6,3.2c-2.2,0.2-3.2,0.7-3.3,1.4c-0.1,2.2-0.7,3.5-1.8,3.8c-0.9,0.4-1.4,1.2-1.3,2.6c0,1.8,0.7,2.1,2.3,1.2c1.6-0.9,2.4-0.7,2.6,0.9c0.1,2.1,2.7,2.3,7.9,0.5c1.3-0.3,3-1,5.2-1.8c1.5-0.4,2.3-0.4,2.3,0.1c-0.1,0.7-1.7,1.5-5,2.6c-3.2,1.1-4.8,2.3-4.9,3.8c0,0.8-0.3,1.3-0.6,1.4c-1.1,0.1-1.9,0.2-2.3,0.4c-1.8,1-2.6,1.8-2.5,2.5c0.2,0.8,1.2,0.8,3,0.1c3.8-1.6,6.8-2.4,9.1-2.3c1.6,0.1,2.7-0.1,3.2-0.6c1.6-1.5,2.5-2.4,2.8-2.5c1-0.7,1.5,0,1.4,2.2c-0.2,1.3-1.7,2.2-4.9,2.6c-3,0.4-4.4,0.9-4.3,1.5c0.2,1,1.2,1.2,3.2,0.5c2-0.8,3.1-0.8,3.3-0.3c0.2,0.8-1.1,1.5-3.9,2.1c-2.6,0.7-3.3,1.8-2.3,3.6c0.5,0.8,1.4,0.8,2.5,0.1c1.5-1,2.7-1.4,3.5-1.1c0.7,0.1,1.7-0.3,3-1.4c1-0.9,1.7-0.7,2.2,0.5c0.5,1.1,0.9,1.7,1.3,1.9c0.3,0.1,0.7-0.1,1.3-0.4c1.4-1,2.9-1,4.5,0.1c0.6,0.5,0.9,0.5,1.1,0c0.1-0.1,0.1-0.6,0.2-1.7c0-1.8,1-2.2,2.9-1c1.7,1,3,1,3.5-0.1c0.6-1,1.6-1,3,0.2c1.1,0.9,1.7,0.7,2-0.4c0.4-1.4,1.2-1.9,2.6-1.6c1.3,0.3,2-0.3,2-2c0.1-1.5,1-2,2.8-1.5c2.4,0.7,3.5-0.7,3.2-4.3c-0.1-1.7-0.1-2.7-0.1-2.8c0.1-0.4,0.6,0,1.5,1.3c1.6,2.3,2.8,3,3.6,2.1c0.9-1.1,2-1.2,3-0.5c0.5,0.4,0.7,0.4,0.8,0.2c0-0.5,0-0.8,0-1.2c0.2-1.3,1.2-1.9,2.9-1.8c1,0.1,1.5-0.1,1.8-0.6c0-0.2,0.2-0.7,0.2-1.7c0.1-1.5,1.3-2.2,3.7-1.9c1.4,0.2,2.2,0,2.4-0.6c0.2-0.4,0.2-1.2,0-2.3c-0.3-2.3,0.7-3.3,3.3-2.9c2.7,0.3,5.1,0.2,7.4-0.5c2-0.5,3.5-0.5,4.7-0.2c1.3,0.4,1.8-0.3,1.4-2c-0.3-1.8,0.1-2.5,1.2-2.1c1.2,0.3,1.5,1.5,0.7,3.3c-0.3,0.8-0.5,1.3-0.4,1.5c0.1,0.4,0.6,0.5,1.5,0.2c0.9-0.2,1.4-0.7,1.6-1.5c0-1,0.1-1.7,0.1-2.2c0.2-1.3,2.2-1.2,5.9,0.6c1.1,0.6,2.4,0.9,3.9,1.1c2,0.3,3.2,0,3.6-1c0.3-0.9,0.3-1.8-0.1-2.7c-0.5-1.2-0.9-2-1.2-2.5c-0.9-2.2-0.3-4.3,1.9-6.4c1.9-1.9,3-5.1,3-9.4c0.2-4.4,0.9-7.4,2.4-8.9c1.9-2.1,2.6-4.3,2-6.5c-0.4-1.1-0.7-2-0.9-2.5c-0.2-1-0.3-1.8-0.1-2.6c0.4-1.2,0-2.4-1-3.6c-1-1.1-1.1-2.3-0.4-3.5c0.5-1,0.5-1.8-0.3-2.1c-1-0.4-1.3-1.6-0.9-3.3c1.1-5.1,1.2-8.3,0.1-9.6c-0.7-0.6-1.1-1-1.4-1.3c-0.5-0.4-0.7-1-0.8-1.8c-0.2-5.7-1-9.2-2.7-10.7c-0.7-0.6-1.3-1-1.5-1.2c-0.5-0.4-0.7-1.1-0.7-2c0.1-2,1.1-2.5,2.8-1.7c2,1,3.1,1.3,3.4,0.8c0.7-1.5,0.4-2.5-1-2.9c-1.5-0.5-2.1-1.1-2-2c-0.6-0.6-1.7-0.6-3.2,0c-0.7,0.2-1.4,0.5-2.2,0.9c-2.3,1-3.6,0.7-3.8-1c-0.4-3.3-1.4-4.9-3.1-5c-1.2,0-1.8-0.1-1.9-0.2c-0.7-0.3-1.1-0.9-1.4-2c-0.9-3.4-2-5.3-3.4-5.8c-1.4-0.4-2.4,1-3,4.5c-0.4,1.8-1,2.9-2,3.1c-1,0.3-1.6,1.1-2,2.6c-0.3,1.4-0.7,2-1.2,1.8c-0.8-0.4-1.6-0.7-2.4-0.9c-2.4-0.3-3.9-1-4.6-2.1c-0.6-1-1.6-1.5-2.8-1.6c-1.5,0-2.7-1-3.6-2.8c-1.2-2.2-2.2-3.6-3.2-4.1c-1.7-0.9-2.3-1.9-2-3c0.1-0.7,0.8-1.6,2.1-2.9c0.9-0.8,2.3-1.3,4.4-1.6c1.7-0.1,2.5-0.8,2.5-2c0.1-1-0.7-1.8-2.2-2.3c-1.4-0.3-1.8-0.9-1.2-1.7c1.2-1.8,2.8-2.4,4.9-1.7c2,0.7,3.4,0.4,4-0.6c2.2-3.3,3.8-6.3,4.8-8.9l1-2.8l5.9-4.6c3.4-3.2,4-4.7,1.6-4.7c-2,0-3.7-1.2-5.3-3.6c-0.6-1-1-1.6-1.2-1.7c-0.5-0.4-1-0.1-1.5,0.6c-0.6,0.8-0.3,1.9,0.7,3.4c0.7,0.8,0,1.2-2,1.1c-1.7,0-2.7,0.5-2.9,1.7c-0.1,0.7,0.1,1.9,0.6,3.8c0.6,1.8,0.8,3,0.7,3.6c-0.1,1-1.1,1.4-2.7,1.1c-0.9-0.1-1.2-0.7-0.7-1.8c0.7-1.5,0.5-2.8-0.3-3.7c-0.7-1.7-1.1-2.7-1.4-3.2c-0.3-0.7-1.4-0.3-3.1,1.5c-0.6,0.5-1.2,0.7-1.7,0.6c-0.1-0.1-0.5-0.4-1.3-1.1c-1.4-1-2.9-0.8-4.7,0.6C84,192.8,83.2,193.1,82,193.3z" cursor="default"></path></g><g><path id="map_4" fill="#dee4c0" stroke="#9CA8B6" stroke-width="1" d="M295.1,334c-0.6-0.7-1.3-1-2.2-1c-1-0.1-2.2,0.2-3.6,1c-2,1.2-3.9,2-5.7,2.5c-0.1,0.7,0,1.3,0,2c0,0.6-0.5,1.3-1.5,2.2c-1,1.1-0.8,2.2,0.7,3.5c1.2,1,2.8,1.8,4.8,2.2c1,0.3,2.2,1.1,3.3,2.6c0.6,0.8,1.7,0.8,3.2-0.1c0.8-0.4,1.5-0.2,2.4,0.8c0.8,0.8,1.4,1,2.1,0.5c1.3-1,1.8-1.9,1.3-2.8c-0.5-1.2,0.2-2.7,1.9-4.8c-0.2-0.9,0-1.9,0.6-2.9c0.4-0.5,0.9-1.2,1.5-2c0.8-1.1-1-2-5.2-2.5C296.9,335,295.6,334.6,295.1,334z" cursor="pointer"></path></g><g><path id="map_5" fill="#e7c782" stroke="#9CA8B6" stroke-width="1" d="M231.1,163.4c-3.9,4.4-5.3,8.1-4.3,10.9c0.6,1.8,1,2.8,1,3.1c0,1.3-0.5,2.7-1.9,4.3c-1.2,1.7-2.2,2.6-2.9,2.9c-0.3,0.1-0.7,0-1.1-0.4c-0.6-0.4-2.2,1.5-4.6,5.5c0.1,1.6,1,2.9,3,3.8c1.6,0.7,2.2,2.4,1.6,5.1c-1.1,4.7-0.9,7.2,0.7,7.5c0.3,0,1,0,1.8,0.1c0.7,0.2,1,1,1,2.2c0,2.9,0.9,5,2.8,6.4c1.7,1.4,2.6,3.2,2.6,5.4c6.9-2,11.5-3,13.8-2.7c0.3,0.1,0.8,0.2,1.6,0.4c0.4,0.2,0.9,0.1,1.4-0.1c0.7-0.2,1.2-0.5,1.3-1c0.1-0.6,0.2-1.1,0.3-1.5c0.4-1.7,2.1-3.6,5.1-5.6c-4.1-14.4-7.6-24.8-10.4-31.3c-1.2-2.7-3-4.7-5.4-6C235.9,171.1,233.4,168.1,231.1,163.4z" cursor="pointer" style="fill: #bdd8f2;"></path></g><g><path id="map_6" fill="#dbe9d2" stroke="#9CA8B6" stroke-width="1" d="M106.3,198.7c-0.6,0.5-1.5,0.5-2.5,0l-1,2.8c-1,2.6-2.6,5.6-4.8,8.9c-0.6,1-2,1.3-4,0.6c-2.1-0.7-3.7-0.1-4.9,1.7c-0.6,0.8-0.2,1.4,1.2,1.7c1.5,0.5,2.3,1.3,2.2,2.3c0,1.2-0.8,1.9-2.5,2c-2.1,0.3-3.5,0.8-4.4,1.6c-1.3,1.3-2,2.2-2.1,2.9c-0.3,1.1,0.3,2.1,2,3c1,0.5,2,1.9,3.2,4.1c0.9,1.8,2.1,2.8,3.6,2.8c1.2,0.1,2.2,0.6,2.8,1.6c0.7,1.1,2.2,1.8,4.6,2.1c0.8,0.2,1.6,0.5,2.4,0.9c0.5,0.2,0.9-0.4,1.2-1.8c0.4-1.5,1-2.3,2-2.6c1-0.2,1.6-1.3,2-3.1c0.6-3.5,1.6-4.9,3-4.5c1.4,0.5,2.5,2.4,3.4,5.8c0.3,1.1,0.7,1.7,1.4,2c0.1,0.1,0.7,0.2,1.9,0.2c1.7,0.1,2.7,1.7,3.1,5c0.2,1.7,1.5,2,3.8,1c0.8-0.4,1.5-0.7,2.2-0.9c1.5-0.6,2.6-0.6,3.2,0c0.8-0.1,1.8,0,3,0.5c0.6,0.3,1.5,0.7,2.7,1.3c1.9,0.7,3.2-0.3,3.7-3c0.5-3,1.9-4.7,4.1-4.8c1.1-0.1,1.9-0.2,2.2-0.4c0.7-0.3,1.1-1.2,1.1-2.5c0.1-0.6-0.3-1.2-0.9-1.8c-0.4-0.3-0.5-0.7-0.5-1.3c0-0.3,0.1-0.6,0.2-1.1c0.5-1,0.3-2.3-0.5-4c-0.7-1.4-0.8-2.2-0.3-2.5c1.2-0.6,2,0.7,2.5,3.9c0.2,1.1,0.3,2,0.6,2.7c0.4,1.6,0.9,2.4,1.3,2.4c0.8-0.1,1.1-1.2,0.9-3.2c0-0.3,0-0.4-0.1-0.7c-0.2-2.1-0.9-4.4-1.8-7c-0.3-1.1-0.7-1.5-1.1-1.5c-0.7,0.1-1.3-0.1-1.9-0.5c-1.2-1-2.5-0.7-4.2,0.7c-1.2,1.2-2,1.1-2.3-0.1c-0.3-1.3,0.3-2.6,1.9-3.6c1.7-1.1,2.6-2.1,2.6-2.7c0.1-1.4,0-2.3-0.2-2.5c-0.2-0.4-1-0.2-2.3,0.6c-0.7,0.5-0.9,0-0.7-1.3c0.1-1.7-0.3-2.7-1.5-3.1c-1.3-0.3-1.8-0.9-1.5-1.7c0.3-1-0.1-1.9-1-2.4c-0.7-0.5-1.1-1-1.3-1.8c0-1,0-1.7-0.1-2.2c-0.1-2-1.8-3.4-5.1-4.3c-2.5-0.7-4.5-0.8-5.7-0.2c-1.8,1-3.8,1.5-5.8,1.5c-3,0-4.8,0.9-5.3,2.9c-0.3,1.1-0.5,1.8-0.7,2.1c-0.3,0.6-1.1,1-2.2,1C108,198.1,107.2,198.2,106.3,198.7z" cursor="pointer"></path></g><g><path id="map_7" fill="#fbe4db" stroke="#9CA8B6" stroke-width="1" d="M210.2,196.8c-0.9,0.3-1.4,0.5-1.6,1c-0.2,0.3-0.3,0.8-0.3,1.4c-0.1,1-1.9,1.7-5.1,1.9c-3.1,2.6-4.5,4.9-4.4,7c0.2,2.6-0.9,5.5-3.4,8.5c-1.6,2.1-1.5,4.1,0.4,6.2c0.6,0.5,1.5,1.4,2.8,2.5c1.1,1.1,1.7,2.1,2.1,3c2.6,6.9,5,9.5,7.2,7.9c0.6-0.5,1.4-1.1,2.4-2.2c0.8-0.7,1.5-0.4,2.1,0.6c1,1.8,1.5,3.1,1.4,3.5c-0.3,0.6-0.2,1.4,0.1,2.2c0.4,1.2,0.3,2.1-0.6,2.6c-0.1,0.2-1,0.5-2.7,1.2c-2.5,0.8-2.8,2.8-0.8,5.8c1.6,2.6,1.9,4.4,0.7,5.6c-1.3,1.3-1.6,3.2-0.6,5.6c0.8,1.7,0.9,2.8,0.4,3.2c-0.1,0.1-0.7,0.2-1.7,0.3c-1.8,0-1.5,2.4,0.8,7.2c2.7,1.1,4.4,3.3,5.3,6.4c0.7,2.8,2.4,4.5,4.8,4.9c3.7,0.7,6.4,0.6,8.3-0.6c0.9-0.7,1.8-1.6,2.4-2.8c2.1-2.3,4-3.5,5.7-3.6c1-0.1,1.9-1.4,2.7-3.9c0.5-1.9,0.6-3.3,0.2-4.2c-0.1-0.3-0.5-1-1.2-1.8c-1-1.3-0.4-3.7,1.8-7.4c-3.4-2.9-5.5-5.1-6.1-6.8c-0.4-1-0.2-2,0.5-3.1c0.6-1,0.9-1.9,0.5-2.7c-0.6-1.4-2.6-3.4-6-5.9c-4.1-3.1-5-6.6-2.7-10.5c0.6-1,1.7-2.6,3.2-4.6c1.3-1.9,2-3.5,2-5c0-2.2-0.9-4-2.6-5.4c-1.9-1.4-2.8-3.5-2.8-6.4c0-1.2-0.3-2-1-2.2c-0.8-0.1-1.5-0.1-1.8-0.1c-1.6-0.3-1.8-2.8-0.7-7.5c0.6-2.7,0-4.4-1.6-5.1c-2-0.9-2.9-2.2-3-3.8c-0.9,0-1.9,1.1-3,3.3C213,195.2,211.7,196.6,210.2,196.8zM178.2,225.9c0.2-0.4,0.1-0.8-0.6-1.2c-1.7,0-3.5,1.3-5.6,3.9c-0.3,0.4-1.7,2.4-4.1,6c-1.7,2.1-2.8,3.6-3.2,4.3c-0.8,1.3,0.4,1.5,3.3,0.7c3.3-0.9,6-2.9,8.1-5.7c2-2.7,2.6-4.8,1.8-6.5C177.7,227,177.8,226.5,178.2,225.9z" cursor="pointer" style="fill: #fbe4db;"></path></g><g><path id="map_8" fill="#fbf5e0" stroke="#9CA8B6" stroke-width="1" d="M167.2,49.7c-0.3,0.1-0.7,0.6-1.2,1.4c-0.4,0.8-0.8,1.3-1.1,1.3c-0.5-0.1-1-0.9-1.6-2.5c-0.9-2.7-1.8-3.7-2.7-3.2c-1,0.5-1.5,2-1.6,4.4c-0.2,3.1-0.6,5-1.4,5.8c-0.5,0.5-0.5,1.5,0,3.3c0.4,1.7,0.3,2.5-0.2,2.7c-0.3,0-1.1-0.3-2.1-0.9c-1-0.7-1.7-1.1-2-1c-0.5,0.1-0.5,0.8,0,2.4c0.7,2.3,0.3,3.8-1.3,4.7c-1.3,0.7-1.2,2.5,0.3,5.2c1.8,3.1,2.5,5.1,2.3,6c-0.3,0.9-1.3,0.4-2.9-1.6c-0.9-1-1.4-0.5-1.5,1.5c-0.1,1.9-0.9,2.2-2.1,0.7c-1-1.2-1.7-1.5-2.1-1.1c-0.2,0.3-0.5,1.1-0.7,2.6c-0.3,3-1.2,4-2.7,2.8c-1.7-1.3-2.3-0.9-1.8,1.2c0.4,1.9,1.3,3.7,2.6,5.5c1.4,1.7,2,2.8,1.8,3c-0.1,0.2-0.8,0-1.9-0.3c-2.8-1-3.7,0-2.8,3.1c0.6,1.9,2.4,2.9,5.4,3c1.1,0,1.7,0.3,1.8,0.7c0.1,0.7-0.3,1.9-1.4,3.7c-0.8,1.3-0.5,2.5,0.8,3.7c1.1,0.9,0.6,2.1-1.4,3.8c-1.9,1.4-2.5,3-1.9,4.8c0.1,0.7,0.1,1.1,0,1.3c-0.4,0.4-1.2,0.6-2.6,0.7c-0.2,0.1-0.2,1.3,0.1,3.7c0.4,2.4-0.4,3.6-2.3,3.6c-2.3,0-3.8,0.3-4.5,0.9c-0.4,0.3-0.6,0.6-0.7,1c-0.1,1.1,1,1.8,3.5,1.9s3.9,0.3,4.2,0.6c0.1,0.1-0.2,0.5-0.9,1.1c-1.7,1.6-0.4,3.2,3.8,4.7c1.3,0.5,4.3-1.5,9.2-6c1.2-1,1.9-1.7,2.2-1.8c0.2-0.2,0.3-0.2,0.3-0.2c0,0.1,0,0.1,0,0.2c-0.2,0.4-1.2,2-3.2,4.8c-1.4,2-1.5,3.7-0.1,5.1c0.6,0.6,0.9,0.9,1,1.1c0,0.3-0.5,0.6-1.6,1c-3.4,1.1-4.8,2.5-4.1,4c0.5,1,0.7,1.6,0.7,2c-0.1,1-0.7,1.9-1.9,2.8c-1.1,0.9-1.5,1.7-1.3,2.7c0.1,0.4,0.5,1.1,1.2,2.3c1.4,1.9,1,3.6-1.3,5c-1.2,0.8-1.9,1.8-1.8,2.7c0,0.5,0.4,1.5,1.1,3c1.5,3.1,1.2,6.2-0.7,9.2c-0.8,1.2-1,2.9-0.9,5c0.1,2.1,0,3.4-0.6,3.9c-1.6,1.4-2.1,2.7-1.6,3.9c0.5,1,1.4,1.4,2.8,1.3c3.3-0.2,4.9-1.1,4.6-2.7c-0.2-1.2-0.5-2.2-0.6-3c-0.2-1.5-0.1-2.9,0.3-4.2c0.5-1.8,1.8-4.6,4-8.7c0.6-1.1,0.1-3.1-1.6-5.8c0.1-3.2,0.7-5.3,1.7-6.3c0.4-0.3,0.9-0.6,1.6-1.1c0.6-0.6,1.1-1.2,1.6-2c2.1-3.7,3.4-5.5,4.1-5.1s0,1.9-2.2,4.5c-3.3,4.2-4.9,7.4-4.6,9.4c0.1,0.8,0.4,1.2,0.9,1c0.6-0.1,1-0.6,1.5-1.4c0.6-1.3,1.2-1.6,1.7-0.8c0.6,0.9,1.3,1.1,1.9,0.5c0.2-0.1,0.8,0.2,1.9,1c0.6,0.5,0.9-0.7,1.1-3.5c0.1-3,0.5-5.1,1.1-6.3c0.5-1.3,1-0.5,1.4,2.2c0.1,1,1.2,2.3,3.1,3.7c0.6,0.4,0.9,0.8,0.7,1c-0.2,0.3-1,0.5-2.4,0.8c-1.7,0.3-2.5,1.3-2.5,3c0,1,0.1,2.3,0.2,4.1c-0.5,2.7-0.2,4.4,1,5c1.9,1,3.1,2.4,3.6,4.2c0.4,1.1,0.4,1.9,0.3,2.4c0,0.3-0.4,0.7-1,1.4c-1.5,1.7-2.7,4.7-3.4,8.9c-0.3,1.6-1.1,2.9-2.5,4.1c-1,0.9-1.2,3-0.6,6.2c0.1,1.3,0.1,1.9-0.1,1.9c-0.2,0-0.7-0.2-1.3-0.9c-1.5-1.5-2.3-1.2-2.5,0.5c-0.2,2.2,0.7,5.1,3,8.9c2.1,3.9,3.8,5.4,4.9,4.7c0.7-0.4,0.4-1.8-0.9-4.3c-1.4-2.4-1.5-3.9-0.5-4.4c1.7-0.8,4,0.2,6.7,3c2.8,2.8,4.4,3.9,5.1,3.6c1.7-1,2.4-2.5,2-4.5c-0.4-1.7-0.3-2.7,0.4-2.7c1.6-0.2,3.3,0.8,5.2,3c0.7,1,1.3,1.5,1.6,1.5c0.6,0.1,1.3-0.3,1.9-1.4c1-1.5,2.4-2.4,4.2-2.7c1.5-0.3,2.7-1.3,3.6-3.3c0.2-0.2,0.3-0.5,0.3-0.7c0.8-2,2.4-2.9,4.7-2.9c1.9,0.1,3.3,0.5,4.2,1.4c3.2-0.2,5-0.9,5.1-1.9c0-0.6,0.1-1.1,0.3-1.4c0.2-0.5,0.7-0.7,1.6-1c1.5-0.2,2.8-1.6,4.1-3.8c1.1-2.2,2.1-3.3,3-3.3c2.4-4,4-5.9,4.6-5.5c0.4,0.4,0.8,0.5,1.1,0.4c0.7-0.3,1.7-1.2,2.9-2.9c1.4-1.6,1.9-3,1.9-4.3c0-0.3-0.4-1.3-1-3.1c-1-2.8,0.4-6.5,4.3-10.9c-0.8-1.6-1.8-2.6-2.8-3.1c-0.5-0.2-1.8-0.6-4-1.1c-1.7-0.4-3-1.1-3.9-2.3c-0.8-1.1-2-1.8-3.3-1.9c-2.3-0.3-4-0.3-5.1,0.1c-0.7,0.3-1.3,0.8-2.1,1.8c-1.6,1.8-4.6,2.5-9,2.3c-1.3,0-2.7-0.4-4.1-1c-0.9-0.5-1.8-0.8-2.8-0.9c-0.7-0.2-1.3-0.2-1.9-0.3c-2.2-0.1-3.3-0.7-3.3-1.6c-0.1-1,1.2-0.8,4,0.7c0.3,0.1,0.7,0.1,1.2,0c0.2-0.2,0.4-0.2,0.7-0.4c0.8-0.3,2-0.1,3.6,0.7c1.5,0.7,2.8,0.7,3.8,0c0.5-0.4,1.3-1.4,2.5-3c2.5-3.7,5.7-5.7,9.6-5.8c1.7,0,2.6-1,2.6-2.6c-0.1-1.6-1.1-2.4-3-2.1c-2,0.2-2.9-0.5-2.7-2.2c0-0.8,0-1.3-0.2-1.5c-0.2-0.3-0.9-0.4-2-0.1c-1.6,0.3-2.6,0.3-2.9-0.2c-0.3-0.6,0.7-1.3,3.1-2.3c6.5-2.4,9.8-5.3,10-8.8c0.2-3.1,1.4-5.4,3.7-6.9c1.3-1,2-1.5,2.1-1.7c0.7-0.6,0.9-1.3,0.8-2.1c-0.2-1.9,0.3-3.4,1.5-4.7c1.1-1.1,1.5-2.5,1.1-4.3c-0.6-2.7-0.5-5,0.5-6.9c0.3-0.7,1.3-2,2.9-3.6c1.2-1.2,1.8-2.5,1.7-3.7c0-1.8-1.1-4.1-3.1-7.1c-1.2-1.7-2.5-2.2-3.7-1.4c-1.4,0.7-2.2,1-2.5,0.6c-0.8-0.9-2.3-1.3-4.3-1c-2.9,0.4-5.1,0.4-6.7-0.1c-3.2-0.8-5.6-0.5-7.3,0.8c-1.4,1.2-3.7,1.1-7-0.3c-1.2-0.5-3-0.3-5.5,0.7c-2.4,0.8-4.2,1.8-5.5,2.8c-1.7,1.5-3,2.2-4,2.2c-0.7-0.1-1.9,0.8-3.5,2.6c-2,2.2-3.5,2.9-4.7,2.3c-1.2-0.6-0.4-2.1,2.4-4.3c2.2-1.6,2.9-3.2,2.2-4.6c-0.6-1.1,0.6-2.4,3.6-3.8c2.4-1.1,3.4-1.7,3.3-1.9c-0.2-0.2-1-0.3-2.7-0.1c-3.8,0.3-4.9-0.5-3.1-2.2c13.9-13.1,21-21.3,21.4-24.5c0-0.4-0.4-1.2-1.1-2.4c-0.4-0.8,0-1.8,1.2-3.4c1.5-1.7,1.8-2.7,0.9-2.7c-1.8,0.1-3,0-3.9-0.2c-2.9-0.8-4.2-0.4-4,1.2c0,0.6,0,1-0.2,1.1c-0.4,0.2-1.4-0.2-3.1-1.1c-1.4-0.7-3.2-0.1-5.1,1.8c-1.7,1.7-3.3,1.9-5,0.6c-0.9-0.7-1.6-0.9-2-0.8c-0.2,0.2-0.6,0.6-1,1.4c-0.8,1.6-2.2,2.1-4.1,1.5c-1.2-0.4-2.4,0.3-3.5,2.3c-0.4,0.7-0.7,0.8-1,0.7c-0.5-0.3-1.1-1.2-1.9-3C168.3,50.2,167.7,49.6,167.2,49.7zM245.6,22.1c0.6-0.9,0.7-1.5,0.3-2c-0.6-0.7-1.1-1-1.7-0.7c-0.6,0.4-1.1,1.2-1.4,2.3c-0.4,0.9-1,1.4-2.1,1.4c-0.9-0.1-1.4,0.6-1.5,2c0,1.2-0.5,2-1.5,2.5c-0.6,0.3-0.8,1.6-0.2,3.9c0.4,1.6,1,2.2,1.8,1.6c0.8-0.5,1.2-1.7,1.3-3.5c0.2-1.9,0.8-2.7,2.2-2.2c1.3,0.3,1.8-0.3,1.7-2C244.4,24.2,244.8,23.1,245.6,22.1zM210.2,21.9c0.9,1.1,2.1,0.7,3.6-1c1.5-1.8,1.8-3,0.6-3.5c-0.5-0.3-1.6,0.2-3.1,1.3C209.8,19.9,209.3,21,210.2,21.9zM209.1,22.9c-0.2-0.8-0.7-1.2-1.4-1c-0.9,0.2-1.2,0.8-0.9,1.7c0.2,1,0.8,1.3,1.5,1C208.9,24.4,209.2,23.9,209.1,22.9zM207.6,28.4c0.5-0.8,0.3-1.3-0.4-1.5c-0.8-0.1-1.3,0.2-1.5,0.8c-0.3,0.7,0,1,0.6,1.2C206.8,29.1,207.3,28.9,207.6,28.4zM208.2,32.5c-0.5,0-1-0.3-1.5-0.9c-0.4-0.5-1.4-0.8-2.9-0.7c-1.1,0.2-1.7-0.7-1.8-2.4c-0.2-1.8-0.8-2.8-2.1-2.9c-2.1-0.2-3.1-0.3-3.2-0.2c-0.7,0.2-0.9,1.2-0.9,3.2c0,1.8,0.1,3,0.3,3.5c0.2,1,0.7,1,1.2,0c0.5-0.8,0.8-1,1-0.8c0.2,0.1,0.4,0.6,0.6,1.4c0.5,1.8,1.4,2.2,2.4,1c0.6-0.6,1.3-0.7,2-0.3c0.5,0.3,1,0.7,1.2,1.2c0.3,0.6,1.3,1,2.9,1.1c1.7,0,2.5-0.2,2.7-0.8c0.1-0.9,0.1-1.5,0-1.8C209.8,32.7,209.2,32.4,208.2,32.5zM204.7,40.5c0.9,0.6,1.4,0.6,1.6,0c0.4-1.1,0.5-1.8,0.4-2.3c-0.1-0.6-0.9-0.5-2.3,0.7C203.8,39.4,203.8,39.9,204.7,40.5zM244.8,29.1c-1-0.2-1.5,0.1-1.5,0.8c0,1.1,0.6,1.7,1.6,1.7s1.4-0.5,1.4-1.5C246.4,29.5,245.9,29.1,244.8,29.1zM244,37.1c-0.9-0.3-1.6,0-1.8,0.7c-0.3,0.6-0.3,1.3,0.1,1.9c0.3,0.6,0.9,0.4,1.6-0.6C244.7,38.2,244.7,37.5,244,37.1zM240.3,37.6c-0.1-0.5-0.9-1-2.1-1.5c-2.1-0.9-3.4-1.5-3.6-1.9c-0.5-0.6-0.4-1.8,0.1-3.6c0.5-1.5,0.5-2.2-0.1-2c-0.9,0.6-1.6,1.1-2,1.3c-1.5,0.3-2.5,0.7-3.2,1c-1.1,0.5-0.6,1.5,1.5,3c1.9,1.5,3.3,2.9,3.8,4.3c0.6,1.7,0,2.5-2,2.7c-4.3,0.3-6.3,1.1-5.9,2.5c0,0.4,0.4,0.8,1,1.2c0.5,0.5,0.9,0.6,1,0.6c0.6,0,1.1,0.7,1.5,1.9c0.4,0.8,1.1,0.8,2.4-0.2c1.1-0.8,1.7-0.5,2.1,1c0.3,1.3,0.3,3.3,0,6.1c-0.5,4.4,0,6.6,1.4,6.4c1.3-0.2,1.9-2,1.9-5.6c-0.1-2.4,0.4-4.2,1.5-5.4c0.6-0.7,0.5-1.7-0.5-3c-0.8-1.2-1-2-0.6-2.6c0.8-1.4,1.3-2.2,1.3-2.4C240.3,39.4,240.5,38.1,240.3,37.6zM201.6,17.1c-0.4,0.8,0,1.4,1.3,1.9c0.8,0.3,1.7,0.5,2.7,0.6c0.7,0.1,0.2-0.5-1.3-1.8C202.9,16.6,202.1,16.4,201.6,17.1zM201.3,24.7c0.8,1,1.8,1.1,3,0.4c0.6-0.9,0.5-1.6-0.4-2.2c-0.7-0.5-1.6-0.7-2.4-0.2C200.7,23.1,200.6,23.8,201.3,24.7zM198.2,35.4c-1.5-1.7-2.7-2.1-3.4-1.3c-0.8,1-0.7,2.3,0.1,3.8c0.9,1.7,2.3,2.1,4.1,1.3C199.9,38.4,199.7,37.1,198.2,35.4zM122.1,59.3c-1.4,0.3-2.1,1.3-2,3.2c0.2,2.1-0.1,3.2-0.8,3.5c-0.3,0.1-1.1-0.1-2.3-0.7c-1.2-0.7-2.1-0.9-2.6-0.7c-0.8,0.2-1.2,1.3-1.2,3.4c-0.2,4.2,0.6,6.9,2.2,8.1c0.4,0.3,0.7,0.6,0.7,0.9c-0.1,0.4-0.8,1.2-1.9,2.6c-0.9,1-0.9,2.1-0.2,3.6c0.7,1.4,1.7,1.7,3,0.7c3.8-2.6,5.3-4.7,4.9-6.1c-0.3-0.7-0.6-1.2-0.7-1.5c-0.1-0.6,0.1-1.2,0.9-1.9c0.5-0.3,1.2,0.2,2,1.6c0.7,1.3,1.8,1.2,3.3-0.3c1.3-1.2,1.6-2.7,0.8-4.5c-0.8-1.5-0.6-2.6,0.6-3.2c2-1.1,3-1.7,3-1.8c-0.2-0.8,0-2.1,0.5-4.1c1.2-4.7,1.6-7.5,1.3-8.7c-0.5-1.7-2.6-0.6-6.1,3.2C126.3,57.9,124.5,58.7,122.1,59.3zM110,99.3c-0.3-1.4-1-2.4-1.9-2.9c-0.9-0.4-1.8-0.3-2.5,0.6c-0.8,0.9-1.2,2.6-1.1,4.9c0,0.5-0.2,2.9-0.8,7c-0.2,3.6,0.7,4.7,2.8,3.2c1.4-1,2-2.1,2-3.4c-0.2-1.8,0-3.2,0.5-4.2C110,102.6,110.3,100.9,110,99.3zM109.5,94.7c2.5-1.5,3.7-3,3.5-4.4c-0.2-1.4-1.7-2.2-4.4-2.1c-3.8,0.2-5.9,0.7-6.3,1.7c-0.2,0.9,0.4,1.6,2,2c1.1-0.1,2.1,0.5,3,1.8C108.2,94.8,108.9,95.1,109.5,94.7zM120.2,95.9c-0.8-0.4-1.2-0.4-1.1,0c0,0.4,0.7,1.7,1.9,3.8c1.2,1.9,2.2,2.5,2.8,1.8c0.9-0.9,1.5-1.3,2.1-0.9c0.9,0.6,1.3,1.1,0.9,1.5c-0.5,0.3-1,0.5-1.2,0.8c-0.9,0.7,1,2.6,6,5.5c1.4,0.9,2.5,1,3.4,0.2c0.6-0.6,1.3-0.6,1.9,0c0.6,0.7,0.2,1.6-1.4,2.8c-1.4,1-1.4,2.2,0.1,3.2c1.2,1,3.1,0,5.7-2.9c2.6-2.8,3.4-4.7,2.2-5.7c-0.7-0.6-1.6-0.6-2.8-0.2c-1.3,0.3-2.6-0.2-4-1.7c-2.2-2.3-3.1-4.7-2.8-7c0.4-2.7-0.3-5-2.1-7.2c-1.5-2.1-2.8-2.7-3.6-2c-0.9,0.8-0.7,2.4,0.4,4.8c0.8,1.7,1.1,2.5,0.7,2.7c-0.1,0-0.7-0.3-1.7-1c-2.5-1.7-3.8-1.5-3.9,0.5C123.7,96.6,122.5,96.9,120.2,95.9zM130.8,118.7c0.3-0.1,0.4-0.4,0-0.8c-0.3-0.6-0.2-1.3,0.3-2.1c0.4-0.7,0.2-1.2-0.5-1.5c-1.3-0.2-2.1-0.2-2.4-0.2c-0.9,0-1.2,0.5-1.3,1.1c-0.1,1.7,0.8,2.9,2.4,3.4C129.9,118.8,130.4,118.9,130.8,118.7zM140.4,136.5c-1.1,0-3.1-1.7-6.1-5.1c-0.5-0.6-1-0.4-1.8,0.7c-0.9,1.3-1.8,1.9-2.7,1.9c-1.7,0.1-1.6,0.7,0.4,1.9c2.1,1.3,3.4,1.8,3.9,1.7c1.4-0.5,2.2-0.5,2.5,0.3c0.2,0.7-0.2,1.3-1.4,1.8c-2.7,0.9-3.4,1.8-1.9,2.7c0.7,0.4,1,0.7,1,0.9c0,0.3-1,0.8-2.6,1.3c-2.6-0.1-3.8,0.5-3.5,1.6c0,0.5,0.3,0.8,0.8,1c0.6,0.3,1.1,0.3,1.6,0c4.6-2.1,7.5-3.1,8.8-2.9c0.4,0.1,0.7,0.1,1.2,0.2c0.4-0.1,1.1-0.3,2-0.9c1.2-0.7,2-1.2,2.2-1.7c0.3-0.6,0.1-1.3-0.5-2.2C142.6,137.6,141.3,136.5,140.4,136.5zM157.6,163.3c-1-0.6-1.5-0.2-1.5,1.1c0,0.8,0.4,1.4,1.2,1.8c0.7,0.2,1.1,1,1,2.4c0,1.4,0.4,1.6,1.2,0.7c0.8-1,1-1.9,0.6-2.7C159.3,165,158.5,163.9,157.6,163.3zM157.4,173.3c-0.7-1.5-1.5-2.2-2.2-2.4c-1.3-0.1-2.4,0.4-3.3,1.7c-1,1.2-1,2.4,0,3.5c0.9,0.8,1.2,2,0.9,3.3c-0.2,1.2,0.3,2.3,1.5,3.2c3.2,1.3,4.6-0.2,4.3-4.5C158.4,176.4,158.1,174.8,157.4,173.3zM142.4,154.9c0.9-2.2,0.7-2.6-0.8-1.3c-1.9,2-3.3,3.3-3.9,3.9c-1.4,1.3-1.6,2.1-0.6,2.2c0.5,0.1,0.7,0.2,0.7,0.3c0,0.2-0.5,0.6-1.3,1.2c-0.9,0.6-1.4,1.9-1.3,3.8c0,1.9,0.4,2.9,1.3,2.9c1.2-0.1,2-0.8,2.3-2.5C139.8,161.6,141,158.1,142.4,154.9zM126.6,163.4c-0.4,0-0.8,0.8-1.1,2.3c-0.7,3.6-0.9,5.6-0.5,6.3c0.3,0.4,0.9,0.1,1.8-0.9c1.5-1.7,2.3-2.5,2.4-2.5c0.6-0.6,0.9-0.1,0.8,1.5c-0.1,0.7,0.1,1.1,0.5,1.3c0.3,0.2,0.2,1-0.3,2.7c-0.4,1-0.4,1.6,0.2,1.8c0.4,0.2,1.2,0.1,2.1-0.3c2.2-1.2,3.3-2.5,3.4-4.3c0-1.2-0.3-2.1-0.9-2.6s-0.8-1.7-0.8-3.6c0.1-1.4-0.2-2.6-0.6-3.5c-0.6-1.2-1.3-0.8-2.1,1.2c-0.9,2.5-2.1,3-3.5,1.6C127.3,163.7,126.8,163.3,126.6,163.4z" cursor="pointer" style="fill: #fbf5e0;"></path></g><g><path id="map_9" fill="#fbeec0" stroke="#9CA8B6" stroke-width="1" d="M332.7,344.2c0.4-0.5,0.5-0.9,0.4-1c0-0.4-2-0.5-5.7-0.2c-1.1,0-3.3,1-6.3,2.7c-2.2,1.3-3.9,1.3-5,0c-0.9-1-1.8-1.3-2.9-0.8c-0.8,0.3-1.2,0.1-1.3-0.9c-0.4-2.2-1.3-3-2.8-2.3c-1.7,0.7-2.7,0.6-3.2-0.1l-4.1,1c-1.7,2.1-2.4,3.6-1.9,4.8c0.5,0.9,0,1.8-1.3,2.8c-0.7,0.5-1.3,0.3-2.1-0.5c-0.9-1-1.6-1.2-2.4-0.8c-1.5,0.9-2.6,0.9-3.2,0.1c-1.1-1.5-2.3-2.3-3.3-2.6c-2-0.4-3.6-1.2-4.8-2.2c-1.5-1.3-1.7-2.4-0.7-3.5c1-0.9,1.5-1.6,1.5-2.2c0-0.7-0.1-1.3,0-2c-2.1-1-3.6-2-4.5-3.1s-1.3-2.1-1.2-3.2c0.2-1.2,0.4-2,0.5-2.4c0-0.8-0.2-1.5-0.8-1.9c-1.2-0.8-1.5-2.6-1.2-5.4c0.4-3.8,0.5-6.4,0.2-7.9c-2,0.8-4.2,2.2-6.5,4.3c-2.4,2.1-4.2,3.6-5.1,4.3c-1.6,1.1-2.9,1.5-3.8,0.8c-1.1-0.8-2.1-2.8-2.9-6.3c-2.6,2.8-5.2,5.6-7.6,8.4c-0.4,4.1-0.3,7.6,0.1,10.6c0.3,2.9,1,5.3,2,7.3c0.5,1,1.2,2.2,2.2,3.7c0.8,1.3,1.2,2.8,1.2,4.4c0.1,3.6-0.9,5.4-3.3,5.5c-0.9,0-1.5,0.1-1.6,0.5c-0.3,0.5,0,1.9,0.8,3.9c1.4,3.5,1.6,5.8,0.6,6.7c-0.5,0.5-1.8,0.7-3.8,0.5c-1.5-0.1-2.2,0.3-2,1.3c0.3,1.5,2.2,4.5,5.8,9.2c5.3-1.5,8.1-3,8.2-4.5c-0.6-1.2-0.6-2,0.1-2.3c0.4-0.2,0.8-0.1,1.1,0.2c0.1,0.3,0.3,0.7,0.7,1.3c0.7,1.1,2.4,1.2,5,0.1c1.7-0.8,2.9-0.9,3.6-0.4c0.2,0.2,0.7,0.9,1.4,2.1c0.9,1.8,3.8,1.3,8.5-1.5c2.5-1.4,7.5-1.8,15-1.3c6.8,0.5,10.5,0.1,11.2-1c0.8-1.4,1.9-2.2,3.3-2.2c1.5-0.1,2.6-0.7,3.6-2c0.8-1.1,2.6-1.7,5.4-1.7c2.1,0,3.3-1.1,3.3-3.5c0.1-2.1,0.7-3.6,1.8-4.6c0.5-0.4,1.7-0.9,3.5-1.4c1.6-0.5,2.7-1.3,3.2-2.3c0.8-1.4,1.1-3.7,0.8-6.8C332.3,345.4,332.4,344.8,332.7,344.2zM263.7,376c-0.9-0.5-1.9-0.5-2.9,0c-5.1,1.9-7.2,3-6.5,3.3c0.4,0.2,1.4,0.4,3,0.9c1.6,0.5,3,1.3,4,2.2c1.4,1.1,2.4,1.2,3,0.1c1.1-1.6,1.9-2.5,2.4-2.8c1.4-0.4,2-1.3,2-2.6c0-1.2-0.7-1.5-2.1-0.9C265.6,376.7,264.7,376.6,263.7,376z" cursor="pointer"></path></g><g><path id="map_10" fill="#f9d0d8" stroke="#9CA8B6" stroke-width="1" d="M244.1,319.6c-1.8,1.9-3,3.1-3.8,3.6c-1.8,1.3-4,1.8-6.5,1.4c-2-0.3-3.2-0.2-3.8,0.4c-0.3,0.2-0.6,1-0.6,2.2c-0.1,2.6-2.1,4.3-5.8,4.8l1.3,8.2c1.8-1.6,1.2-0.5-1.6,3.5c-2.5,3.6-4.8,6-6.7,7.2c-1.5,0.8-2.4,1.7-2.7,2.6c-0.1,0.5-0.1,1.2,0.2,2.3c0.2,1.7-1.3,3.1-4.8,4.2c-1.4,0.4-3.6,0.3-6.9-0.1c-3.9-0.8-6.8-1.2-8.7-1.4c-7.3-0.9-11,0.9-11.5,5.1c-0.3,2.9-1.4,4.2-3.1,4.1c-2.4-0.2-4.2,0.6-5.3,2.2c-0.6,0.9-1,2-1,3.2c0.1,0.7,0.2,1.8,0.5,3.3c0.3,2.9-1,5.7-4,8.5c-1,1-2.2,1.7-3.9,2.4c-1.1,0.4-2.1,1.6-3.1,3.2c-4.3,7.6-8.2,11.7-11.7,12.2c-0.2,0-1.4,0-3.5-0.1c-1.2-0.1-2.2,0.2-2.9,1.1c-3,3.3-3.3,5.5-0.9,6.4c0.9,0.4,2-0.1,3.3-1.6c1.3-1.7,2.8-2.3,4.6-1.8c1.5,0.3,2.6,1.8,3.4,4.4c0.2,0.9,0.6,1.4,1,1.6c0.5,0.2,1.2-0.3,2.4-1.2c0.9-0.6,1.6-1.1,1.9-1.5c0.5-0.7,1-1.9,1.3-3.6c0.1-1.2,0.4-2.1,0.7-2.5c0.3-0.1,0.7-0.3,1.4-0.3c1.8-0.2,3.6-1.5,5.5-4c0.8-1,1.5-1.6,2.1-1.7c0.3,0,0.9,0,1.9,0.3c1.9,0.4,4.4-0.6,7.4-3.1c1.2-1,2.5-0.9,3.6,0.3c1.8,1.7,3.8,2.5,6.3,2.3c1.8-0.1,3,0.4,3.5,1.6c0.5,1.3,1.6,2.2,3.1,2.5c1.1,0.2,1.8-0.6,2.2-2.4c0.5-2,1.4-3.2,2.5-3.4c1.9-0.4,2.5-1.3,2-2.6c-0.7-2.1-1-3.7-0.6-4.6c0-0.1,0.2-1.6,0.6-4.7c0.2-1.5,0.8-1.6,1.9-0.4c0.9,1.1,2,1.2,3.3,0.5c1.7-1.3,3.1-2.3,4.2-3c4.5-2.8,9.6-2.1,15.4,2.4c2.1,1.7,3.4,2.5,4,2.6c0.2,0,0.5-0.3,0.5-1.1c0.2-2.2,2.4-2.7,6.6-1.4c2.6,0.8,4.3,0.9,4.8,0.5c0.2-0.2,0.2-1,0-2.3c-0.4-2.9,2.4-4.3,8.6-4.2c-3.6-4.7-5.5-7.7-5.8-9.2c-0.2-1,0.5-1.4,2-1.3c2,0.2,3.3,0,3.8-0.5c1-0.9,0.8-3.2-0.6-6.7c-0.8-2-1.1-3.4-0.8-3.9c0.1-0.4,0.7-0.5,1.6-0.5c2.4-0.1,3.4-1.9,3.3-5.5c0-1.6-0.4-3.1-1.2-4.4c-1-1.5-1.7-2.7-2.2-3.7c-1-2-1.7-4.4-2-7.3c-0.4-3-0.5-6.5-0.1-10.6c-1.6-3.4-2.9-5.3-3.9-5.8C246.1,318,245.1,318.3,244.1,319.6z" cursor="pointer"></path></g><g><path id="map_11" fill="#e3f1da" stroke="#9CA8B6" stroke-width="1" d="M158.6,334.7c-0.1,0.1-0.3,0.4-0.8,0.8c-1,1-0.7,2.6,1,4.8c2,2.5,4.1,3.5,6.5,2.9c1.6-0.4,3.6-1.7,6.1-3.8c2.8-2.4,4.4-3.7,5-3.9c1.5-0.7,2.5,0.1,3,2.3c0.4,1.6,1.4,2.4,3.2,2.5c0.7,0,1.2,0,1.2,0.1c0.2,0.1,0.1,0.3-0.1,0.6c-0.1,0.1-0.3,0.2-0.4,0.3c-1.9,1.9-2.5,3.5-1.7,4.7c0.7,1.3,2.5,0.9,5.2-1.2c2-1.5,4-1.5,6-0.1c0.4,0.3,2.2,2,5.5,5.3c2.2,2.2,4.3,3.4,6,3.4c2.5,0,5-1.9,7.8-5.8c1.7-2.3,3.3-3.4,5-3.4c2.2,0.1,4.7-1.3,7.8-4l-1.3-8.2c-9.5-4.6-13.5-9.2-12.3-13.9c1-2.3,1.7-3.8,2-4.8c0.6-1.5,0.3-2.6-1-3.5c-2-1.3-3-2.3-3.1-3.1c0-0.5,0.5-1,1.6-1.4c1.3-0.6,2.1-1.1,2.4-1.4c0.6-0.6,0.5-1.5-0.4-2.5c-1.7-2.2-2.1-3.7-1.2-4.7c1.1-1.3,1.2-2.6,0.3-4.2c-1.4-2.6-1.6-4.3-0.7-5.1c0.6-0.6,2.1-0.7,4.3-0.6c2.4,0.1,3.9,0.1,4.4-0.1c1-0.5,0.9-1.6-0.4-3.6c-2.4-0.4-4.1-2.1-4.8-4.9c-0.9-3.1-2.6-5.3-5.3-6.4c-3.1-1.2-5.2-1.6-6.5-1.1c-1.6,0.7-3.8,0.9-6.3,0.5c-3.3-0.6-5.3-0.6-5.8,0c-1.5,1.9-3,3.2-4.5,4c-3,1.6-4.9,2.9-5.7,3.7c-0.5,0.4-0.8,1.1-1,2c-0.5,1.9-3.9,5.1-10.2,9.4c-3.2,2.2-4,3.4-2.1,3.5c1,0,2.5,0,4.5-0.1c1,0.6,1.6,0.8,2,0.4c0.1-0.1,0.4-0.8,0.9-2c1.1-2.6,3.2-3.9,6.6-3.8c2.3,0,3.1,0.9,2.5,2.5c-0.7,2-0.4,3.3,0.9,3.9c0.9,0.3,1.2,1,1,1.7c-0.1,0.4-0.5,1.1-1.4,2.2c-1.5,2-1.4,3.3,0.6,3.9c1.3,0.4,1.9,0.7,2.1,0.8c0.3,0.2,0.3,0.4,0,0.7c-1.1,1.5-1.6,3.3-1.7,5.2c-0.1,3.7-3.1,7.4-9.1,11c-5.1,3.1-9.4,4.8-12.7,5c-2.8,0.1-5.1,1-6.7,2.8c-1.9,1.9-1.7,3.7,0.5,5.3C158.2,334,158.6,334.4,158.6,334.7zM185.6,273.6c1.1-1.2,0.7-1.8-1.3-1.8c-2.7-0.1-4.5-1.4-5.4-3.9c-0.3-1.1-0.7-1.7-1-2c-0.6-0.3-1.5-0.2-2.8,0.3c-2.1,0.9-3.5,1.9-4.4,3c-1.5,2-0.7,3.8,2.6,5.5c0.7,0.3,1,1,0.9,2c0,0.8,0.4,1.1,1.5,1c0.6,0,1.1,0.4,1.2,1.2c0,0.5,1.2,0,3.3-1.4C183.3,275.4,185.1,274.1,185.6,273.6z" cursor="pointer"></path></g><g><path id="map_12" fill="#fbe2cb" stroke="#9CA8B6" stroke-width="1" d="M249.9,289.8c0.8-1.4-0.1-2.3-2.6-2.8s-3.9-1.3-4.1-2.5c-0.2-0.6,0.1-1.8,0.7-3.8c0.6-1.8,0.7-3.2,0.3-4.3c-0.7-1.6-2.6-3.1-5.6-4.2c-0.8,2.5-1.7,3.8-2.7,3.9c-1.7,0.1-3.6,1.3-5.7,3.6c-0.6,1.2-1.5,2.1-2.4,2.8c-1.9,1.2-4.6,1.3-8.3,0.6c1.3,2,1.4,3.1,0.4,3.6c-0.5,0.2-2,0.2-4.4,0.1c-2.2-0.1-3.7,0-4.3,0.6c-0.9,0.8-0.7,2.5,0.7,5.1c0.9,1.6,0.8,2.9-0.3,4.2c-0.9,1-0.5,2.5,1.2,4.7c0.9,1,1,1.9,0.4,2.5c-0.3,0.3-1.1,0.8-2.4,1.4c-1.1,0.4-1.6,0.9-1.6,1.4c0.1,0.8,1.1,1.8,3.1,3.1c1.3,0.9,1.6,2,1,3.5c-0.3,1-1,2.5-2,4.8c-1.2,4.7,2.8,9.3,12.3,13.9c3.7-0.5,5.7-2.2,5.8-4.8c0-1.2,0.3-2,0.6-2.2c0.6-0.6,1.8-0.7,3.8-0.4c2.5,0.4,4.7-0.1,6.5-1.4c0.8-0.5,2-1.7,3.8-3.6c1-1.3,2-1.6,2.7-1.3c1,0.5,2.3,2.4,3.9,5.8c2.4-2.8,5-5.6,7.6-8.4c3.7-4.4,4.1-8.2,1.4-11.4c-0.6-0.7-2.3-2.2-4.9-4.5c-2.4-2.1-4.2-4-5.5-5.6C248.8,293.3,248.9,291.9,249.9,289.8z" cursor="pointer"></path></g><g><path id="map_13" fill="#e6e5f4" stroke="#9CA8B6" stroke-width="1" d="M247.6,217.8c-0.5,0.2-1,0.3-1.4,0.1c-0.8-0.2-1.3-0.3-1.6-0.4c-2.3-0.3-6.9,0.7-13.8,2.7c0,1.5-0.7,3.1-2,5c-1.5,2-2.6,3.6-3.2,4.6c-2.3,3.9-1.4,7.4,2.7,10.5c3.4,2.5,5.4,4.5,6,5.9c0.4,0.8,0.1,1.7-0.5,2.7c-0.7,1.1-0.9,2.1-0.5,3.1c0.6,1.7,2.7,3.9,6.1,6.8c2.9-0.5,5,0,6.5,1.4c0.5,0.5,1.4,2,2.9,4.5c0.9,1.7,2.1,2.7,3.5,3c2,0.2,5-0.8,8.9-3c1.2-0.6,2.4-1,3.5-0.8c0.6,0.1,1.3,0.3,2.2,0.7c1.3,0.3,2.4-1.5,3.6-5.4c0.3-0.9,0.8-1.3,1.4-1c0.2,0,0.8,0.4,2,1c1.8,1,2.7-0.2,2.9-3.5c0.1-1.5,0.6-2.1,1.6-2c0.5,0.1,1.7,0.7,3.2,1.9c1.7,1.1,2.8,1.7,3.5,1.9c1.2,0.3,1.9-0.2,2.2-1.6c-1.5-0.5-2.5-0.8-2.9-1c-0.3-0.2-0.8-0.8-1.5-2c-1-1.8-3.2-2.4-6.6-1.7c-3.4,0.5-5,0.7-5.2,0.4c-0.1-0.5,1.5-1.2,4.9-2c3.6-0.9,6.1-0.4,7.5,1.3c0.8,0.9,1.7,1.4,2.9,1.5c1.7,0.2,2.7,0.3,3.1,0.4c2.3,0.9,2.5-0.1,0.7-2.6c-0.6-1-3.1-3.9-7.1-8.6c-2.8-3.4-3.8-5.7-3.2-7l1-1.8c0.2-0.8,0-1.9-0.6-3.2c-4.2-9-9.2-14.3-15.1-15.9c-2.9-0.5-5-1-6.3-1.2c-2-0.4-3.6-1.3-4.6-2.8c-3,2-4.7,3.9-5.1,5.6c-0.1,0.4-0.2,0.9-0.3,1.5C248.8,217.3,248.3,217.6,247.6,217.8z" cursor="pointer"></path></g><g><text transform="matrix(1 0 0 1 10 414)"></text></g></g></svg>