<svg xmlns="http://www.w3.org/2000/svg" xmlns:xlink="http://www.w3.org/1999/xlink" width="35" height="35" viewBox="0 0 35 35">
  <defs>
    <clipPath id="clip-path">
      <rect id="Rectangle_29995" data-name="Rectangle 29995" width="18.858" height="22.319" fill="#fff"/>
    </clipPath>
  </defs>
  <g id="drag_icon" transform="translate(-1028.939 -411.939)">
    <circle id="Ellipse_11192" data-name="Ellipse 11192" cx="17.5" cy="17.5" r="17.5" transform="translate(1028.939 411.939)" fill="#f15a5c"/>
    <g id="Group_1572" data-name="Group 1572" transform="translate(1037.177 417.947)">
      <g id="Group_1571" data-name="Group 1571" clip-path="url(#clip-path)">
        <path id="Path_9090" data-name="Path 9090" d="M16.8,9.164a2.041,2.041,0,0,0-1.017.271,2.051,2.051,0,0,0-3.238-1.3,2.053,2.053,0,0,0-2.807-.865V3.912a2.057,2.057,0,0,0-4.115,0v8.811L3.568,11.59a2.263,2.263,0,0,0-2.79.3,2.058,2.058,0,0,0-.013,2.9l4.9,5.259h0c0,.005.006.011.01.016A7.721,7.721,0,0,0,18.857,14.6V11.22A2.058,2.058,0,0,0,16.8,9.164m.983,5.436A6.647,6.647,0,0,1,6.443,19.3L1.536,14.042a.987.987,0,0,1,0-1.393,1.231,1.231,0,0,1,1.511-.119L5.62,13.95v.992a.537.537,0,0,0,1.073,0V3.912a.984.984,0,1,1,1.968,0v7.934a.537.537,0,1,0,1.073,0V9.074a.984.984,0,0,1,1.968,0V12.2a.537.537,0,0,0,1.073,0V9.79a.984.984,0,1,1,1.968,0v2.774a.537.537,0,0,0,1.073,0V11.225a.984.984,0,1,1,1.968,0ZM3.791,6.895a.536.536,0,0,0-.758,0l-.52.52V5.755a.537.537,0,1,0-1.073,0V7.415l-.52-.52a.539.539,0,1,0-.761.762L1.593,9.092a.56.56,0,0,0,.082.067L1.7,9.17a.543.543,0,0,0,.074.038c.01,0,.021.006.03.01a.581.581,0,0,0,.07.021.52.52,0,0,0,.106.01.526.526,0,0,0,.106-.01.489.489,0,0,0,.069-.022.077.077,0,0,0,.03-.01.5.5,0,0,0,.074-.039l.02-.01a.538.538,0,0,0,.081-.067L3.791,7.657a.536.536,0,0,0,0-.758M.916,2.352l.52-.52V3.494a.537.537,0,1,0,1.073,0V1.832l.52.52a.537.537,0,1,0,.76-.76L2.353.158A.493.493,0,0,0,2.271.091.16.16,0,0,0,2.252.08.542.542,0,0,0,2.177.042L2.148.032A.54.54,0,0,0,2.081.01a.556.556,0,0,0-.214,0A.562.562,0,0,0,1.8.031a.081.081,0,0,0-.03.01.5.5,0,0,0-.074.038L1.675.091a.566.566,0,0,0-.082.067L.157,1.593a.537.537,0,1,0,.759.759" transform="translate(0 0)" fill="#fff"/>
      </g>
    </g>
  </g>
</svg>
