<?xml version="1.0" encoding="utf-8"?>
<!-- Generator: Adobe Illustrator 22.1.0, SVG Export Plug-In . SVG Version: 6.00 Build 0)  -->
<svg version="1.1" id="Layer_1" xmlns="http://www.w3.org/2000/svg" xmlns:xlink="http://www.w3.org/1999/xlink" x="0px" y="0px"
	 viewBox="0 0 162 162" style="enable-background:new 0 0 162 162;" xml:space="preserve">
<style type="text/css">
	.st0{fill:#ff6c5d;}
	.st1{opacity:0.7;fill:#ff6c5d;enable-background:new    ;}
	.st2{opacity:0.3;fill:#ff6c5d;enable-background:new    ;}
	.st3{fill:#d94333;}
</style>
<g>
	<ellipse class="st0" cx="80.7" cy="81.1" rx="77.3" ry="77.3"/>
	<path class="st1" d="M16.7,88.6c0-37.6,30.5-68.2,68.2-68.2c20.5,0,39.9,9.2,52.8,25.1C118.1,14,76.7,4.3,45.2,23.9
		C15.8,42.2,5.1,79.8,20.5,110.8C18,103.7,16.7,96.2,16.7,88.6z"/>
	<path class="st2" d="M57.5,133c-14,0-27.9-2.9-40.7-8.6c24,35.3,72.1,44.5,107.3,20.5c28-19,40.4-54.1,30.5-86.5
		C142.9,102.4,103,133,57.5,133z"/>
	<path class="st3" d="M80.7,0.6C72.3,0.6,64,1.9,56,4.5c-0.1,0-0.2,0-0.3,0.1c-0.4,0.1-0.8,0.3-1.2,0.4l-0.9,0.3
		c-1.4,0.5-2.8,1-4.2,1.6L49.3,7c-3,1.3-6,2.8-8.8,4.4c-0.1,0.1-0.2,0.1-0.3,0.2l-0.1,0.1l0,0c-1.4,1.1-1.5,3.2-0.4,4.5
		c0.6,0.7,1.5,1.2,2.5,1.1c0.5,0,1-0.1,1.5-0.4c0,0,0,0,0,0.1c4.1-2.4,8.5-4.4,13-6h0.1c38.7-13.4,80.9,7.1,94.4,45.7
		c13.4,38.7-7.1,80.9-45.7,94.4c-38.7,13.4-80.9-7.1-94.4-45.7C4.9,87.5,5.8,68,13.5,50.7h-0.1c0.5-1.7-0.4-3.5-2.1-4
		c-1.5-0.5-3.2,0.2-3.9,1.7c-2.3,5.1-4,10.5-5.2,16c0,0.1,0,0.2,0,0.3c-9,43.5,19,86.1,62.5,95.1s86.1-19,95.1-62.5
		s-19-86.1-62.5-95.1C91.7,1.1,86.2,0.6,80.7,0.6L80.7,0.6z"/>
	<path class="st3" d="M16.3,38.3c1.4,1,3.4,0.7,4.5-0.7l0,0l0.2-0.3l0,0c2.9-3.9,6.1-7.5,9.7-10.8l0,0l0.5-0.5
		c1.3-1.2,1.3-3.3,0.1-4.6c-1.2-1.2-3.1-1.3-4.4-0.2c-4.2,3.8-7.9,8-11.2,12.5C14.5,35.3,14.8,37.3,16.3,38.3L16.3,38.3z"/>
	<path class="st3" d="M60,62.3c0,7.6-3.8,13.7-8.5,13.7S43,69.9,43,62.3s3.8-13.7,8.5-13.7S60,54.8,60,62.3z"/>
	<path class="st3" d="M118.5,62.3c0,7.6-3.8,13.7-8.5,13.7s-8.5-6.1-8.5-13.7s3.8-13.7,8.5-13.7S118.5,54.8,118.5,62.3z"/>
	<path class="st3" d="M80.7,101.6c11.9,0,23.4,4.5,32,12.7c1.6,1.5,1.7,4.1,0.2,5.7s-4.1,1.7-5.7,0.2c-14.9-13.9-38.1-13.9-53,0
		c-1.6,1.6-4.1,1.6-5.7,0s-1.6-4.1,0-5.7c0.1-0.1,0.1-0.1,0.2-0.2C57.4,106.1,68.8,101.5,80.7,101.6z"/>
</g>
</svg>
