<svg xmlns="http://www.w3.org/2000/svg" width="64.118" height="64.118" viewBox="0 0 64.118 64.118">
  <g id="Group_15" data-name="Group 15" transform="translate(1 1)">
    <path id="Path_13" data-name="Path 13" d="M1742.8,684.5a31.059,31.059,0,1,1,31.059-31.059A31.094,31.094,0,0,1,1742.8,684.5Zm0-59.949a28.89,28.89,0,1,0,28.89,28.89A28.922,28.922,0,0,0,1742.8,624.549Z" transform="translate(-1711.743 -622.38)" fill="#f6911d" stroke="#f6911d" stroke-width="2"/>
    <path id="Path_14" data-name="Path 14" d="M1740.942,667.026a2.648,2.648,0,1,1,2.648,2.648A2.647,2.647,0,0,1,1740.942,667.026Z" transform="translate(-1726.04 -642.944)" fill="#f6911d" stroke="#f6911d" stroke-width="2"/>
    <path id="Path_15" data-name="Path 15" d="M1793.882,667.026a2.647,2.647,0,1,1,2.647,2.648A2.647,2.647,0,0,1,1793.882,667.026Z" transform="translate(-1751.962 -642.944)" fill="#f6911d" stroke="#f6911d" stroke-width="2"/>
    <path id="Path_16" data-name="Path 16" d="M1743.111,698.171a1.073,1.073,0,0,1-.431-.09,1.084,1.084,0,0,1-.564-1.426,16.908,16.908,0,0,1,31.025,0,1.084,1.084,0,1,1-1.989.863,14.739,14.739,0,0,0-27.046,0A1.085,1.085,0,0,1,1743.111,698.171Z" transform="translate(-1726.571 -653.761)" fill="#f6911d" stroke="#f6911d" stroke-width="2"/>
  </g>
</svg>
