<?xml version="1.0" standalone="no"?>
<!DOCTYPE svg PUBLIC "-//W3C//DTD SVG 20010904//EN"
 "http://www.w3.org/TR/2001/REC-SVG-20010904/DTD/svg10.dtd">
<svg version="1.0" xmlns="http://www.w3.org/2000/svg"
 width="525.000000pt" height="185.000000pt" viewBox="0 0 525.000000 185.000000"
 preserveAspectRatio="xMidYMid meet">
<metadata>
Created by potrace 1.15, written by Peter Selinger 2001-2017
</metadata>
<g transform="translate(0.000000,185.000000) scale(0.100000,-0.100000)"
fill="#000000" stroke="none">
<path d="M0 1825 l0 -25 2625 0 2625 0 0 25 0 25 -2625 0 -2625 0 0 -25z"/>
<path d="M0 930 l0 -820 2625 0 2625 0 0 240 0 240 -75 0 -75 0 0 -95 0 -95
-100 0 -100 0 0 110 0 110 100 0 c60 0 100 4 100 10 0 6 32 10 75 10 l75 0 0
290 0 290 -75 0 c-68 0 -75 2 -75 20 0 19 -7 20 -100 20 l-100 0 0 110 0 110
100 0 100 0 0 -105 0 -105 75 0 75 0 0 240 0 240 -2625 0 -2625 0 0 -820z
m4900 655 l0 -105 -100 0 -100 0 0 105 0 105 100 0 100 0 0 -105z m-4300 -340
l0 -25 -265 0 -265 0 0 25 0 25 265 0 265 0 0 -25z m820 0 l0 -25 -265 0 -265
0 0 25 0 25 265 0 265 0 0 -25z m820 0 l0 -25 -265 0 -265 0 0 25 0 25 265 0
265 0 0 -25z m820 0 l0 -25 -265 0 -265 0 0 25 0 25 265 0 265 0 0 -25z m820
0 l0 -25 -265 0 -265 0 0 25 0 25 265 0 265 0 0 -25z m868 18 l152 -6 0 -104
0 -103 100 0 100 0 0 -110 0 -110 -100 0 -100 0 0 -105 0 -105 -100 0 c-82 0
-100 -3 -100 -15 0 -13 -36 -15 -265 -15 l-265 0 0 25 0 25 265 0 265 0 0 95
0 95 100 0 100 0 0 110 0 110 -100 0 -100 0 0 85 0 85 -265 0 -265 0 0 25 0
25 213 0 c118 0 282 -3 365 -7z m-4148 -648 l0 -25 -265 0 -265 0 0 25 0 25
265 0 265 0 0 -25z m820 0 l0 -25 -265 0 -265 0 0 25 0 25 265 0 265 0 0 -25z
m820 0 l0 -25 -265 0 -265 0 0 25 0 25 265 0 265 0 0 -25z m820 0 l0 -25 -265
0 -265 0 0 25 0 25 265 0 265 0 0 -25z m820 0 l0 -25 -265 0 -265 0 0 25 0 25
265 0 265 0 0 -25z m1020 -320 l0 -105 -100 0 -100 0 0 105 0 105 100 0 100 0
0 -105z"/>
<path d="M0 30 l0 -30 2625 0 2625 0 0 30 0 30 -2625 0 -2625 0 0 -30z"/>
</g>
</svg>
