<svg xmlns="http://www.w3.org/2000/svg" width="32" height="32" viewBox="0 0 32 32">
  <g id="_2_emo" data-name="2_emo" transform="translate(-1334.812 -739.812)">
    <circle id="XMLID_14_" cx="16.001" cy="16.001" r="16.001" transform="translate(1334.812 771.812) rotate(-90)" fill="#fa8e21"/>
    <path id="Path_49" data-name="Path 49" d="M14.162,30.076h-.142a.613.613,0,0,1-.427-.782A6.709,6.709,0,0,1,19.922,24.6a6.612,6.612,0,0,1,6.329,4.694.63.63,0,0,1-1.209.356,5.394,5.394,0,0,0-5.12-3.769,5.522,5.522,0,0,0-5.191,3.769C14.731,29.862,14.446,30.076,14.162,30.076Z" transform="translate(1330.891 732.705)"/>
    <g id="XMLID_10_" transform="translate(1341.539 749.027)">
      <path id="Path_47" data-name="Path 47" d="M10.2,18.891a.683.683,0,0,1-.64-.427A.8.8,0,0,1,9.844,17.4L12.475,15.9,9.844,14.41a.781.781,0,0,1,.782-1.351l3.84,2.2a.947.947,0,0,1,.427.64.622.622,0,0,1-.427.64l-3.84,2.133A.615.615,0,0,1,10.2,18.891Z" transform="translate(-9.459 -12.959)"/>
      <path id="Path_48" data-name="Path 48" d="M32.68,18.948a.533.533,0,0,1-.356-.071l-3.769-2.2a.754.754,0,0,1,0-1.28l3.7-2.133a.781.781,0,0,1,.782,1.351L30.476,16.1,33.107,17.6a.8.8,0,0,1,.284,1.067A1.263,1.263,0,0,1,32.68,18.948Z" transform="translate(-14.872 -13.017)"/>
    </g>
  </g>
</svg>
