<svg xmlns="http://www.w3.org/2000/svg" xmlns:xlink="http://www.w3.org/1999/xlink" width="32" height="32" viewBox="0 0 32 32">
  <defs>
    <clipPath id="clip-path">
      <path id="Path_58" data-name="Path 58" d="M14.248,25.842c-.284,0-.427.356-.356.64.5,1.636,2.2,5.831,6.329,5.831s5.831-4.2,6.4-5.9c.071-.356-.071-.711-.356-.711Z" transform="translate(-13.875 -25.7)"/>
    </clipPath>
  </defs>
  <g id="_7_emo" data-name="7_emo" transform="translate(-1646 -640)">
    <g id="XMLID_375_" transform="translate(1646 640)">
      <path id="XMLID_376_" d="M32,16A16,16,0,1,1,16,0,16.024,16.024,0,0,1,32,16Z" fill="#59ba46"/>
    </g>
    <g id="XMLID_76_" transform="translate(1655.866 658.276)">
      <path id="XMLID_290_" d="M14.248,25.842c-.284,0-.427.356-.356.64.5,1.636,2.2,5.831,6.329,5.831s5.831-4.2,6.4-5.9c.071-.356-.071-.711-.356-.711Z" transform="translate(-13.875 -25.7)" fill="#291908"/>
      <g id="XMLID_77_" transform="translate(0 0)">
        <g id="Group_43" data-name="Group 43" clip-path="url(#clip-path)">
          <ellipse id="XMLID_80_" cx="4.48" cy="3.342" rx="4.48" ry="3.342" transform="translate(1.796 3.342)" fill="#ff5a58"/>
        </g>
      </g>
    </g>
    <g id="XMLID_64_" transform="translate(1652.044 651.733)">
      <path id="Path_59" data-name="Path 59" d="M29.24,20.2a.637.637,0,0,1-.64-.64,3.751,3.751,0,0,1,.853-2.347,2.574,2.574,0,0,1,1.92-.711,2.626,2.626,0,0,1,1.92.782,3.751,3.751,0,0,1,.853,2.347.64.64,0,1,1-1.28,0,2.3,2.3,0,0,0-.5-1.422,1.155,1.155,0,0,0-1-.356,1.407,1.407,0,0,0-1,.356,2.458,2.458,0,0,0-.5,1.493.631.631,0,0,1-.64.5Z" transform="translate(-14.307 -16.5)" fill="#291908"/>
      <path id="Path_60" data-name="Path 60" d="M9.14,20.2a.637.637,0,0,1-.64-.64,3.751,3.751,0,0,1,.853-2.347,2.574,2.574,0,0,1,1.92-.711,2.626,2.626,0,0,1,1.92.782,3.751,3.751,0,0,1,.853,2.347.64.64,0,1,1-1.28,0,2.3,2.3,0,0,0-.5-1.422,1.155,1.155,0,0,0-1-.356,1.407,1.407,0,0,0-1,.356A2.752,2.752,0,0,0,9.709,19.7c.071.213-.213.5-.569.5Z" transform="translate(-8.5 -16.5)" fill="#291908"/>
    </g>
  </g>
</svg>
