<svg xmlns="http://www.w3.org/2000/svg" width="16.757" height="16.757" viewBox="0 0 16.757 16.757">
  <path id="Emoji_3" d="M8.378.563a8.378,8.378,0,1,0,8.378,8.378A8.377,8.377,0,0,0,8.378.563Zm2.7,5.676A1.081,1.081,0,1,1,10,7.319,1.08,1.08,0,0,1,11.081,6.238Zm-5.405,0A1.081,1.081,0,1,1,4.595,7.319,1.08,1.08,0,0,1,5.676,6.238Zm5.75,7.372a3.97,3.97,0,0,0-6.095,0,.541.541,0,0,1-.831-.693,5.046,5.046,0,0,1,7.753,0A.539.539,0,0,1,11.426,13.61Z" transform="translate(0 -0.563)" fill="#f8bb2c"/>
</svg>
