<svg xmlns="http://www.w3.org/2000/svg" width="16.757" height="16.757" viewBox="0 0 16.757 16.757">
  <path id="Emoji_5" d="M8.378.563a8.378,8.378,0,1,0,8.378,8.378A8.377,8.377,0,0,0,8.378.563ZM3.784,7.84C3.9,6.417,4.872,5.427,5.676,5.427s1.78.99,1.892,2.412a.269.269,0,0,1-.5.152l-.321-.574a1.264,1.264,0,0,0-1.064-.73,1.264,1.264,0,0,0-1.064.73l-.321.574a.273.273,0,0,1-.51-.152Zm8.473,4.149a5.047,5.047,0,0,1-7.757,0,.541.541,0,0,1,.831-.693,3.97,3.97,0,0,0,6.095,0,.541.541,0,0,1,.831.693Zm.209-4-.321-.574a1.264,1.264,0,0,0-1.064-.73,1.264,1.264,0,0,0-1.064.73L9.7,7.992a.27.27,0,0,1-.5-.152C9.3,6.417,10.28,5.427,11.084,5.427s1.78.99,1.892,2.412A.273.273,0,0,1,12.466,7.992Z" transform="translate(0 -0.563)" fill="#a4e229"/>
</svg>
