<svg xmlns="http://www.w3.org/2000/svg" width="16.757" height="16.757" viewBox="0 0 16.757 16.757">
  <path id="Emoji_1" d="M8.378.563a8.378,8.378,0,1,0,8.378,8.378A8.377,8.377,0,0,0,8.378.563ZM4.595,7.319A1.081,1.081,0,1,1,5.676,8.4,1.08,1.08,0,0,1,4.595,7.319Zm6.328,6.193a10.21,10.21,0,0,0-2.544-.517,10.21,10.21,0,0,0-2.544.517.542.542,0,0,1-.693-.611c.236-1.351,2.03-2.068,3.236-2.068s3,.72,3.236,2.068A.542.542,0,0,1,10.922,13.512ZM11.081,8.4a1.081,1.081,0,1,1,1.081-1.081A1.08,1.08,0,0,1,11.081,8.4Z" transform="translate(0 -0.563)" fill="#e61818"/>
</svg>
