<svg xmlns="http://www.w3.org/2000/svg" width="16.757" height="16.757" viewBox="0 0 16.757 16.757">
  <path id="Emoji_7" d="M11.753,3.375a8.378,8.378,0,1,0,8.378,8.378A8.377,8.377,0,0,0,11.753,3.375Zm2.9,6.123a.967.967,0,1,1-.967.967A.964.964,0,0,1,14.654,9.5Zm-5.8,0a.967.967,0,1,1-.967.967A.964.964,0,0,1,8.853,9.5Zm2.9,6.807a3.955,3.955,0,0,1-3.794-2.848.324.324,0,0,1,.31-.415h6.965a.324.324,0,0,1,.31.415A3.946,3.946,0,0,1,11.753,16.305Z" transform="translate(-3.375 -3.375)" fill="#09ae02"/>
</svg>
