<svg xmlns="http://www.w3.org/2000/svg" xmlns:xlink="http://www.w3.org/1999/xlink" width="57.377" height="61.139" viewBox="0 0 57.377 61.139">
  <defs>
    <filter id="Path_40" x="0" y="0" width="57.377" height="61.139" filterUnits="userSpaceOnUse">
      <feOffset dy="3" input="SourceAlpha"/>
      <feGaussianBlur stdDeviation="1" result="blur"/>
      <feFlood flood-opacity="0.161"/>
      <feComposite operator="in" in2="blur"/>
      <feComposite in="SourceGraphic"/>
    </filter>
  </defs>
  <g id="Group_5" data-name="Group 5" transform="translate(3 -1.278)">
    <g transform="matrix(1, 0, 0, 1, -3, 1.28)" filter="url(#Path_40)">
      <path id="Path_40-2" data-name="Path 40" d="M10.96,49.454c-4.4-.482-1.94-11.364-1.94-24.719,0-2.969,0-5.816.023-8.454L.87,12.747a1.483,1.483,0,0,1-.813-1.742L2.531,2.839a1.473,1.473,0,0,1,1.636-1l5.6,1.038h0C10.1,1.042,10.583,0,11.275,0s1.17,1.042,1.5,2.88h0l5.6-1.037a1.473,1.473,0,0,1,1.636,1l2.475,8.166a1.483,1.483,0,0,1-.813,1.742l-8.168,3.532c.023,2.638.023,5.486.023,8.456,0,13.354,2.461,24.237-1.939,24.719-.032,3.021-.132,3.609-.286,3.609S10.993,52.475,10.96,49.454Z" transform="matrix(-0.77, -0.64, 0.64, -0.77, 20.27, 55.14)" fill="#fcaaae" fill-rule="evenodd"/>
    </g>
  </g>
</svg>
