<svg xmlns="http://www.w3.org/2000/svg" width="64.117" height="64.118" viewBox="0 0 64.117 64.118">
  <g id="Group_9" data-name="Group 9" transform="translate(1 1)">
    <g id="Group_6" data-name="Group 6">
      <path id="Path_5" data-name="Path 5" d="M1427.588,684.5a31.059,31.059,0,1,1,31.058-31.059A31.094,31.094,0,0,1,1427.588,684.5Zm0-59.949a28.89,28.89,0,1,0,28.889,28.89A28.922,28.922,0,0,0,1427.588,624.549Z" transform="translate(-1396.529 -622.38)" fill="#afc624" stroke="#afc624" stroke-width="2"/>
    </g>
    <g id="Group_7" data-name="Group 7" transform="translate(14.902 21.435)">
      <path id="Path_6" data-name="Path 6" d="M1425.728,667.026a2.648,2.648,0,1,1,2.648,2.648A2.647,2.647,0,0,1,1425.728,667.026Z" transform="translate(-1425.728 -664.379)" fill="#afc624" stroke="#afc624" stroke-width="2"/>
    </g>
    <g id="Group_8" data-name="Group 8" transform="translate(41.921 21.435)">
      <path id="Path_7" data-name="Path 7" d="M1478.668,667.026a2.648,2.648,0,1,1,2.647,2.648A2.647,2.647,0,0,1,1478.668,667.026Z" transform="translate(-1478.668 -664.379)" fill="#afc624" stroke="#afc624" stroke-width="2"/>
    </g>
    <path id="Path_8" data-name="Path 8" d="M1458.049,692.521a1.08,1.08,0,0,1-1.445.51l-.663-.317a17.964,17.964,0,0,1-33.556,0l-.664.317a1.083,1.083,0,1,1-.934-1.955l3.072-1.47a1.083,1.083,0,1,1,.934,1.955l-.444.214a15.794,15.794,0,0,0,29.626,0l-.444-.214a1.083,1.083,0,0,1,.934-1.955l3.072,1.47A1.081,1.081,0,0,1,1458.049,692.521Z" transform="translate(-1408.104 -655.245)" fill="#afc624" stroke="#afc624" stroke-width="2"/>
  </g>
</svg>
