<?xml version="1.0" encoding="utf-8"?>
<!-- Generator: Adobe Illustrator 22.1.0, SVG Export Plug-In . SVG Version: 6.00 Build 0)  -->
<svg version="1.1" id="Layer_1" xmlns="http://www.w3.org/2000/svg" xmlns:xlink="http://www.w3.org/1999/xlink" x="0px" y="0px"
	 viewBox="0 0 162 162" style="enable-background:new 0 0 162 162;" xml:space="preserve">
<style type="text/css">
	.st0{fill:#53d074;}
	.st1{opacity:0.7;fill:#53d074;enable-background:new    ;}
	.st2{opacity:0.3;fill:#53d074;enable-background:new    ;}
	.st3{fill:#188a34}
</style>
<g>
	
		<ellipse transform="matrix(0.7071 -0.7071 0.7071 0.7071 -33.6272 80.6853)" class="st0" cx="80.6" cy="80.9" rx="77.3" ry="77.3"/>
	<path class="st1" d="M16.6,88.6c0-37.6,30.5-68.2,68.2-68.2c20.5,0,39.9,9.2,52.8,25.1C117.9,14,76.5,4.4,45,24.1
		C15.8,42.4,5.1,79.9,20.3,110.8C17.9,103.7,16.6,96.1,16.6,88.6z"/>
	<path class="st2" d="M57.4,133c-14,0-27.9-2.9-40.7-8.6c24,35.3,72.1,44.5,107.3,20.5c28-19,40.3-54.1,30.5-86.5
		C142.9,102.4,102.9,133,57.4,133z"/>
	<path class="st3" d="M80.6,0.5c-8.4,0-16.8,1.3-24.7,3.9c-0.1,0-0.2,0-0.3,0c-0.4,0.1-0.8,0.3-1.2,0.4l-0.9,0.3
		c-1.4,0.5-2.8,1-4.2,1.7l-0.1,0.1c-3,1.3-6,2.8-8.8,4.4c-0.1,0.1-0.2,0.1-0.3,0.2l-0.2,0.1l0,0c-1.4,1.1-1.5,3.2-0.4,4.5
		c1,1.2,2.6,1.5,4,0.8c0,0,0,0,0,0.1c4.1-2.4,8.5-4.4,13-6h0.1c38.7-13.4,81,7,94.4,45.7s-7,81-45.7,94.4s-81-7-94.4-45.7
		c-6.2-17.9-5.3-37.5,2.4-54.7h-0.1c0.5-1.7-0.4-3.5-2.1-4c-1.5-0.5-3.2,0.2-3.9,1.7c-2.3,5.2-4,10.5-5.1,16.1c0,0.1,0,0.2,0,0.3
		c-9,43.5,19,86.1,62.6,95.1c43.5,9,86.1-19,95.1-62.6s-19-86.1-62.6-95.1C91.6,1.1,86.1,0.5,80.6,0.5z"/>
	<path class="st3" d="M16.1,38.3c0.6,0.4,1.2,0.6,1.9,0.6c1,0,2-0.5,2.6-1.3c0.1-0.1,0.1-0.2,0.2-0.3s0,0,0,0
		c2.9-3.9,6.1-7.5,9.7-10.8l0,0c0.2-0.2,0.3-0.3,0.5-0.5c1.4-1.1,1.6-3.2,0.5-4.5c-1.1-1.4-3.2-1.6-4.5-0.5
		c-0.1,0.1-0.2,0.2-0.3,0.2c-4.2,3.8-7.9,8-11.2,12.5C14.4,35.2,14.7,37.2,16.1,38.3L16.1,38.3z"/>
	<path class="st3" d="M59.9,62.3c0,7.6-3.8,13.7-8.5,13.7s-8.5-6.1-8.5-13.7s3.8-13.7,8.5-13.7C56,48.6,59.9,54.7,59.9,62.3z"/>
	<path class="st3" d="M118.4,62.3c0,7.6-3.8,13.7-8.5,13.7s-8.5-6.1-8.5-13.7s3.8-13.7,8.5-13.7S118.4,54.7,118.4,62.3z"/>
	<path class="st3" d="M80.6,123.9c-11.9,0-13.3,0.7-21.9-7.4c-1.6-1.6-11.7-14.3-10.1-15.9c1.5-1.5,3.9-1.6,5.5-0.2
		c14.9,13.9,38.1,13.9,53,0c1.6-1.5,4.2-1.5,5.7,0.2c1.5,1.6-8.7,14.3-10.3,15.9l0,0C93.7,124.7,92.5,124,80.6,123.9z"/>
</g>
</svg>
