<svg xmlns="http://www.w3.org/2000/svg" width="64.117" height="64.118" viewBox="0 0 64.117 64.118">
  <g id="Group_14" data-name="Group 14" transform="translate(1 1)">
    <g id="Group_10" data-name="Group 10" transform="translate(14.903 21.435)">
      <path id="Path_9" data-name="Path 9" d="M1581.055,667.026a2.647,2.647,0,1,1,2.647,2.648A2.647,2.647,0,0,1,1581.055,667.026Z" transform="translate(-1581.055 -664.379)" fill="#ecc728" stroke="#ecc728" stroke-width="2"/>
    </g>
    <g id="Group_11" data-name="Group 11" transform="translate(41.921 21.435)">
      <path id="Path_10" data-name="Path 10" d="M1633.994,667.026a2.648,2.648,0,1,1,2.647,2.648A2.647,2.647,0,0,1,1633.994,667.026Z" transform="translate(-1633.994 -664.379)" fill="#ecc728" stroke="#ecc728" stroke-width="2"/>
    </g>
    <g id="Group_12" data-name="Group 12">
      <path id="Path_11" data-name="Path 11" d="M1582.915,684.5a31.059,31.059,0,1,1,31.058-31.059A31.094,31.094,0,0,1,1582.915,684.5Zm0-59.949a28.89,28.89,0,1,0,28.889,28.89A28.923,28.923,0,0,0,1582.915,624.549Z" transform="translate(-1551.855 -622.38)" fill="#ecc728" stroke="#ecc728" stroke-width="2"/>
    </g>
    <g id="Group_13" data-name="Group 13" transform="translate(14.501 38.158)">
      <path id="Path_12" data-name="Path 12" d="M1612.3,699.315h-30.947a1.085,1.085,0,1,1,0-2.169H1612.3a1.085,1.085,0,1,1,0,2.169Z" transform="translate(-1580.268 -697.146)" fill="#ecc728" stroke="#ecc728" stroke-width="2"/>
    </g>
  </g>
</svg>
