<?xml version="1.0" encoding="utf-8"?>
<!-- Generator: Adobe Illustrator 22.1.0, SVG Export Plug-In . SVG Version: 6.00 Build 0)  -->
<svg version="1.1" id="Layer_1" xmlns="http://www.w3.org/2000/svg" xmlns:xlink="http://www.w3.org/1999/xlink" x="0px" y="0px"
	 viewBox="0 0 162 162" style="enable-background:new 0 0 162 162;" xml:space="preserve">
<style type="text/css">
	.st0{fill:#ffd152;}
	.st1{opacity:0.7;fill:#ffd152;enable-background:new    ;}
	.st2{opacity:0.3;fill:#ffd152;enable-background:new    ;}
	.st3{fill:#ffb308;}
</style>
<g>
	<path class="st0" d="M158.1,81.1c0,42.7-34.6,77.3-77.3,77.3S3.5,123.8,3.5,81.1S38.1,3.8,80.8,3.8S158.1,38.4,158.1,81.1
		L158.1,81.1z"/>
	<path class="st1" d="M16.9,88.7C16.9,51,47.4,20.5,85,20.5c20.5,0,39.9,9.2,52.9,25.1C118.3,14.1,76.9,4.4,45.4,24
		C16,42.3,5.3,79.9,20.7,110.9C18.1,103.8,16.9,96.3,16.9,88.7z"/>
	<path class="st2" d="M57.7,133.1c-14,0-27.9-2.9-40.7-8.6c24.1,35.2,72.1,44.3,107.4,20.2c27.9-19,40.2-54,30.4-86.3
		C143,102.5,103.2,133.1,57.7,133.1z"/>
	<path class="st3" d="M80.8,0.6c-8.4,0-16.7,1.3-24.7,3.9c-0.1,0-0.2,0-0.3,0.1C55.4,4.7,55,4.9,54.6,5S54,5.2,53.7,5.3
		c-1.4,0.5-2.8,1-4.2,1.6L49.4,7c-3,1.3-6,2.7-8.9,4.4c-0.1,0.1-0.2,0.1-0.3,0.2l-0.1,0.1l0,0c-1.4,1.1-1.5,3.2-0.4,4.5
		c0.6,0.7,1.5,1.1,2.4,1.2c0.5,0,1-0.1,1.5-0.4c0,0,0,0,0,0.1c4.1-2.4,8.5-4.4,13-6h0.1c38.7-13.4,80.9,7.1,94.4,45.7
		s-7.1,80.9-45.7,94.4c-38.7,13.4-80.9-7.1-94.4-45.7c-6.2-17.9-5.3-37.4,2.4-54.7h-0.1c0.6-1.7-0.4-3.5-2-4.1
		c-1.6-0.5-3.2,0.2-3.9,1.7c-2.3,5.1-4,10.5-5.2,16c0,0.1,0,0.2,0,0.3c-9,43.5,19,86.1,62.5,95.1s86.1-19,95.1-62.5
		s-19-86.1-62.5-95.1C91.7,1.2,86.2,0.6,80.8,0.6L80.8,0.6z"/>
	<path class="st3" d="M16.4,38.4c1.4,1,3.4,0.7,4.5-0.7l0,0l0.2-0.3l0,0c2.9-3.9,6.1-7.5,9.7-10.8l0,0c0.2-0.2,0.3-0.3,0.5-0.5
		c1.4-1.1,1.6-3.2,0.5-4.5c-1.1-1.4-3.2-1.6-4.5-0.5c-0.1,0.1-0.2,0.2-0.3,0.2c-4.2,3.8-7.9,8-11.2,12.5
		C14.6,35.3,14.9,37.3,16.4,38.4L16.4,38.4z"/>
	<path class="st3" d="M60.1,62.4c0,7.6-3.8,13.7-8.5,13.7s-8.5-6.1-8.5-13.7s3.8-13.7,8.5-13.7S60.1,54.8,60.1,62.4z"/>
	<path class="st3" d="M118.6,62.4c0,7.6-3.8,13.7-8.5,13.7s-8.5-6.1-8.5-13.7s3.8-13.7,8.5-13.7C114.8,48.7,118.6,54.8,118.6,62.4z"
		/>
	<path class="st3" d="M119.8,110.2c0.1,2.3-1.7,4.3-4,4.3l0,0H46c-2.3-0.1-4.1-2-4.1-4.3l0,0l0,0c-0.1-2.3,1.7-4.3,4-4.3l0,0h69.8
		C118.1,106,119.9,107.9,119.8,110.2L119.8,110.2L119.8,110.2z"/>
</g>
</svg>
