<svg xmlns="http://www.w3.org/2000/svg" width="64.118" height="64.118" viewBox="0 0 64.118 64.118">
  <g id="Group_5" data-name="Group 5" transform="translate(1 1)">
    <g id="Group_2" data-name="Group 2">
      <path id="Path_1" data-name="Path 1" d="M1266.55,684.5a31.059,31.059,0,1,1,31.059-31.059A31.094,31.094,0,0,1,1266.55,684.5Zm0-59.949a28.89,28.89,0,1,0,28.889,28.89A28.922,28.922,0,0,0,1266.55,624.549Z" transform="translate(-1235.491 -622.38)" fill="#07c516" stroke="#07c516" stroke-width="2"/>
    </g>
    <path id="Path_2" data-name="Path 2" d="M1297.009,692.521a1.072,1.072,0,0,1-.975.617,1.1,1.1,0,0,1-.469-.107l-.664-.317a17.964,17.964,0,0,1-33.556,0l-.663.317a1.066,1.066,0,0,1-.464.107,1.084,1.084,0,0,1-.47-2.062l3.072-1.47a1.084,1.084,0,1,1,.939,1.955l-.449.214a15.8,15.8,0,0,0,29.631,0l-.449-.214a1.083,1.083,0,0,1,.934-1.955l3.073,1.47A1.08,1.08,0,0,1,1297.009,692.521Z" transform="translate(-1247.066 -655.245)" fill="#07c516" stroke="#07c516" stroke-width="2"/>
    <g id="Group_3" data-name="Group 3" transform="translate(13.032 22.566)">
      <path id="Path_3" data-name="Path 3" d="M1265.524,671.006a5.018,5.018,0,0,1-4.326-2.494,1.276,1.276,0,0,1,2.208-1.28,2.446,2.446,0,0,0,4.147.143,1.276,1.276,0,1,1,2.115,1.429A5,5,0,0,1,1265.524,671.006Z" transform="translate(-1261.026 -666.596)" fill="#07c516" stroke="#07c516" stroke-width="2"/>
    </g>
    <g id="Group_4" data-name="Group 4" transform="translate(40.226 22.566)">
      <path id="Path_4" data-name="Path 4" d="M1318.671,671.006a5,5,0,0,1-4.142-2.2,1.276,1.276,0,1,1,2.115-1.429,2.446,2.446,0,0,0,4.146-.143,1.276,1.276,0,0,1,2.208,1.279A5.014,5.014,0,0,1,1318.671,671.006Z" transform="translate(-1314.309 -666.596)" fill="#07c516" stroke="#07c516" stroke-width="2"/>
    </g>
  </g>
</svg>
