<svg xmlns="http://www.w3.org/2000/svg" width="64.118" height="64.118" viewBox="0 0 64.118 64.118">
  <g id="Group_16" data-name="Group 16" transform="translate(1 1)">
    <path id="Path_17" data-name="Path 17" d="M1912.074,684.5a31.059,31.059,0,1,1,31.059-31.059A31.094,31.094,0,0,1,1912.074,684.5Zm0-59.949a28.89,28.89,0,1,0,28.89,28.89A28.922,28.922,0,0,0,1912.074,624.549Z" transform="translate(-1881.015 -622.38)" fill="#f61b1b" stroke="#f61b1b" stroke-width="2"/>
    <path id="Path_18" data-name="Path 18" d="M1912.383,698.171a1.086,1.086,0,0,1-.995-1.517,16.908,16.908,0,0,1,31.026,0,1.085,1.085,0,0,1-1.99.863,14.74,14.74,0,0,0-27.046,0A1.084,1.084,0,0,1,1912.383,698.171Z" transform="translate(-1895.843 -653.761)" fill="#f61b1b" stroke="#f61b1b" stroke-width="2"/>
    <path id="Path_19" data-name="Path 19" d="M1911.047,671.006a5.017,5.017,0,0,1-4.327-2.5,1.276,1.276,0,0,1,2.209-1.279,2.446,2.446,0,0,0,4.146.143,1.276,1.276,0,1,1,2.114,1.428A5,5,0,0,1,1911.047,671.006Z" transform="translate(-1893.517 -644.03)" fill="#f61b1b" stroke="#f61b1b" stroke-width="2"/>
    <path id="Path_20" data-name="Path 20" d="M1964.193,671.006a5,5,0,0,1-4.143-2.2,1.276,1.276,0,1,1,2.114-1.428,2.446,2.446,0,0,0,4.147-.143,1.276,1.276,0,0,1,2.209,1.279A5.016,5.016,0,0,1,1964.193,671.006Z" transform="translate(-1919.607 -644.03)" fill="#f61b1b" stroke="#f61b1b" stroke-width="2"/>
  </g>
</svg>
