<svg id="Group_1564" data-name="Group 1564" xmlns="http://www.w3.org/2000/svg" width="129.143" height="70.78" viewBox="0 0 129.143 70.78">
  <g id="Rectangle_391" data-name="Rectangle 391" fill="#cfcfce">
    <path d="M18.412,0h92.319a18.362,18.362,0,0,1,2.878.222,13.142,13.142,0,0,1,2.417.607,6.116,6.116,0,0,1,1.711.9,1.867,1.867,0,0,1,.752,1.114L128.5,66.7a2.038,2.038,0,0,1-.442,1.578,4.755,4.755,0,0,1-1.686,1.3,10.849,10.849,0,0,1-2.672.879,17.159,17.159,0,0,1-3.391.323H8.83a17.159,17.159,0,0,1-3.391-.323,10.849,10.849,0,0,1-2.672-.879,4.755,4.755,0,0,1-1.686-1.3A2.038,2.038,0,0,1,.64,66.7L10.653,2.848a1.867,1.867,0,0,1,.752-1.114,6.116,6.116,0,0,1,1.711-.9A13.142,13.142,0,0,1,15.534.222,18.361,18.361,0,0,1,18.412,0Z" stroke="none"/>
    <path d="M 120.2433090209961 70.26618194580078 C 121.3070755004883 70.26618194580078 122.3071136474609 70.1654052734375 123.2038345336914 69.9833984375 C 124.0997543334961 69.80155181884766 124.8918380737305 69.53874206542969 125.5411071777344 69.21465301513672 C 126.189338684082 68.89105987548828 126.6948089599609 68.50655364990234 127.0191497802734 68.0806884765625 C 127.3428268432617 67.65570068359375 127.4859771728516 67.18970489501953 127.4108200073242 66.70207214355469 L 117.568603515625 2.848347425460815 C 117.515251159668 2.502261638641357 117.2839660644531 2.17295503616333 116.9120178222656 1.873834013938904 C 116.5407180786133 1.575233817100525 116.0291213989258 1.306610226631165 115.4141159057617 1.081263065338135 C 114.7999114990234 0.8562121391296387 114.0822601318359 0.6742101907730103 113.2975921630859 0.5485172271728516 C 112.5134963989258 0.4229167699813843 111.6619720458984 0.3534599244594574 110.7790451049805 0.3534599244594574 L 18.36407661437988 0.3534599244594574 C 17.48114585876465 0.3534599244594574 16.62961578369141 0.4229167699813843 15.84552192687988 0.5485172271728516 C 15.06085300445557 0.6742101907730103 14.3432035446167 0.8562121391296387 13.72900772094727 1.081263065338135 C 13.11400127410889 1.306610226631165 12.60241317749023 1.575233817100525 12.23111438751221 1.873834013938904 C 11.85916709899902 2.17295503616333 11.6278715133667 2.502261638641357 11.57452774047852 2.848347425460815 L 1.732374906539917 66.70207214355469 C 1.657212018966675 67.18970489501953 1.800373315811157 67.65570068359375 2.124041557312012 68.0806884765625 C 2.448384046554565 68.50655364990234 2.953853607177734 68.89105987548828 3.602086305618286 69.21465301513672 C 4.251343727111816 69.53874206542969 5.043428421020508 69.80155181884766 5.939354419708252 69.9833984375 C 6.836074829101562 70.1654052734375 7.836113929748535 70.26618194580078 8.899886131286621 70.26618194580078 L 120.2433090209961 70.26618194580078 M 120.3129272460938 70.78043365478516 L 8.830270767211914 70.78043365478516 C 7.611058712005615 70.78043365478516 6.465823650360107 70.66519927978516 5.439601421356201 70.45698547363281 C 4.414414882659912 70.24897003173828 3.508926153182983 69.94835662841797 2.76738452911377 69.57749176025391 C 2.027179956436157 69.20728302001953 1.450837969779968 68.76734161376953 1.081800699234009 68.2799072265625 C 0.7136384844779968 67.79364776611328 0.5519687533378601 67.26036071777344 0.6395188570022583 66.70207214355469 L 10.65284061431885 2.848347425460815 C 10.71495628356934 2.452244281768799 10.97986030578613 2.075738430023193 11.40515518188477 1.73400342464447 C 11.82960319519043 1.392948389053345 12.41397285461426 1.086389780044556 13.11641597747803 0.8293622136116028 C 13.81780433654785 0.5727206468582153 14.63731575012207 0.3653137683868408 15.53367805480957 0.2221273630857468 C 16.42928695678711 0.07906099408864975 17.40229034423828 5.017766428327009e-15 18.41192626953125 5.017766428327009e-15 L 110.7311935424805 5.017766428327009e-15 C 111.7408294677734 5.017766428327009e-15 112.7138290405273 0.07906099408864975 113.6094512939453 0.2221273630857468 C 114.5058135986328 0.3653137683868408 115.325325012207 0.5727206468582153 116.0267105102539 0.8293622136116028 C 116.7291488647461 1.086389780044556 117.3135147094727 1.392948389053345 117.7379608154297 1.73400342464447 C 118.1632537841797 2.075738430023193 118.4281616210938 2.452244281768799 118.4903030395508 2.848347425460815 L 128.5036773681641 66.70207214355469 C 128.5912170410156 67.26036071777344 128.4295501708984 67.79364776611328 128.0613861083984 68.2799072265625 C 127.6923446655273 68.76734161376953 127.1160049438477 69.20728302001953 126.3758087158203 69.57749176025391 C 125.6342697143555 69.94835662841797 124.7287750244141 70.24897003173828 123.7035903930664 70.45698547363281 C 122.6773681640625 70.66519927978516 121.5321350097656 70.78043365478516 120.3129272460938 70.78043365478516 Z" stroke="none" fill="#707070"/>
  </g>
  <g id="Polygon_11" data-name="Polygon 11" transform="translate(48.62 22.188)" fill="#9d9ea0">
    <path d="M15.952,0,31.461,10.086,15.952,20.748.443,10.086Z" stroke="none"/>
    <path d="M 15.9517936706543 19.91238021850586 L 30.27657890319824 10.08579158782959 L 15.95178031921387 0.7507258653640747 L 1.626994371414185 10.08579158782959 L 15.9517936706543 19.91238021850586 M 15.95179271697998 20.74777793884277 L 0.4430022537708282 10.08579158782959 L 15.95178031921387 -1.423008786881883e-15 L 31.46056938171387 10.08579158782959 L 15.95179271697998 20.74777793884277 Z" stroke="none" fill="#707070"/>
  </g>
  <g id="Polygon_12" data-name="Polygon 12" transform="translate(71.963 26.648)" fill="#9d9ea0">
    <path d="M15.275,0,31.617,10.339,16.587,21.275.208,10.339Z" stroke="none"/>
    <path d="M 16.53392219543457 20.41821098327637 L 30.41812324523926 10.33856296539307 L 15.32246875762939 0.76929771900177 L 1.406800389289856 10.33856296539307 L 16.53392219543457 20.41821098327637 M 16.58677291870117 21.27543449401855 L 0.2078587412834167 10.33856296539307 L 15.27503681182861 -1.458174841994803e-15 L 31.61706352233887 10.33856296539307 L 16.58677291870117 21.27543449401855 Z" stroke="none" fill="#707070"/>
  </g>
  <g id="Polygon_13" data-name="Polygon 13" transform="translate(25.451 17.835)" fill="#9d9ea0">
    <path d="M17,0,31.709,9.842,15.75,20.24,1.073,9.842Z" stroke="none"/>
    <path d="M 15.80002021789551 19.42511558532715 L 30.53922653198242 9.842178344726562 L 16.95247650146484 0.7328184843063354 L 2.242467403411865 9.842178344726562 L 15.80002021789551 19.42511558532715 M 15.7498083114624 20.23951530456543 L 1.073056101799011 9.842178344726562 L 16.99765777587891 -1.38909962278357e-15 L 31.70863914489746 9.842178344726562 L 15.7498083114624 20.23951530456543 Z" stroke="none" fill="#707070"/>
  </g>
  <g id="Polygon_16" data-name="Polygon 16" transform="translate(8.22 57.332)" fill="#42424f">
    <path d="M8.3,0l6.437,4.877-7.628,5-6.422-5Z" stroke="none"/>
    <path d="M 7.224109172821045 8.948813438415527 L 13.45148468017578 4.877124786376953 L 8.196704864501953 0.8860440254211426 L 1.979053378105164 4.877124786376953 L 7.224109172821045 8.948813438415527 M 7.112364768981934 9.875164031982422 L 0.6899858117103577 4.877124786376953 L 8.303586959838867 0 L 14.74055194854736 4.877124786376953 L 7.112364768981934 9.875164031982422 Z" stroke="none" fill="#707070"/>
  </g>
  <g id="Polygon_17" data-name="Polygon 17" transform="translate(100.02 2.49)" fill="#42424f">
    <path d="M5.985,0l6.485,3.62-5.6,3.7L.374,3.62Z" stroke="none"/>
    <path d="M 6.784934520721436 6.633685111999512 L 11.35954475402832 3.620454072952271 L 6.064172267913818 0.6586475968360901 L 1.483358383178711 3.620454072952271 L 6.784934520721436 6.633685111999512 M 6.867488861083984 7.318046092987061 L 0.3736484348773956 3.620454072952271 L 5.984720230102539 0 L 12.46925449371338 3.620454072952271 L 6.867488861083984 7.318046092987061 Z" stroke="none" fill="#707070"/>
  </g>
  <g id="Path_6434" data-name="Path 6434" transform="translate(15.69 5.927)" fill="none">
    <path d="M80.982.183H6.547l-5.6,49.3" stroke="none"/>
    <path d="M 0.4166342914104462 49.4879035949707 L 6.081884860992432 0.1835423409938812 L 6.102735996246338 0.0002270363038405776 L 6.569068431854248 0.0002270363038405776 L 80.96432495117188 0.0002270363038405776 L 80.99835205078125 0.3661412298679352 L 6.991456985473633 0.3661412298679352 L 1.479228854179382 49.48645782470703 L 0.4166342914104462 49.4879035949707 Z" stroke="none" fill="#b8b8b8"/>
  </g>
  <g id="Path_6435" data-name="Path 6435" transform="translate(27.261 11.308)" fill="none">
    <path d="M.023,50.9H86.488L79.912,0" stroke="none"/>
    <path d="M 87.06080627441406 51.14798355102539 L 86.51847839355469 51.14798355102539 L 0.0005280636833049357 51.14798355102539 L 0.04588532075285912 50.65422821044922 L 85.91630554199219 50.65422821044922 L 79.43948364257812 0.001152793876826763 L 80.38401794433594 0 L 87.02851867675781 50.90024185180664 L 87.06080627441406 51.14798355102539 Z" stroke="none" fill="#b8b8b8"/>
  </g>
</svg>
