<svg id="Group_1565" data-name="Group 1565" xmlns="http://www.w3.org/2000/svg" width="129.143" height="70.78" viewBox="0 0 129.143 70.78">
  <g id="Rectangle_391" data-name="Rectangle 391" fill="#cfcfce">
    <path d="M18.412,0h92.319a18.362,18.362,0,0,1,2.878.222,13.142,13.142,0,0,1,2.417.607,6.116,6.116,0,0,1,1.711.9,1.867,1.867,0,0,1,.752,1.114L128.5,66.7a2.038,2.038,0,0,1-.442,1.578,4.755,4.755,0,0,1-1.686,1.3,10.849,10.849,0,0,1-2.672.879,17.159,17.159,0,0,1-3.391.323H8.83a17.159,17.159,0,0,1-3.391-.323,10.849,10.849,0,0,1-2.672-.879,4.755,4.755,0,0,1-1.686-1.3A2.038,2.038,0,0,1,.64,66.7L10.653,2.848a1.867,1.867,0,0,1,.752-1.114,6.116,6.116,0,0,1,1.711-.9A13.142,13.142,0,0,1,15.534.222,18.361,18.361,0,0,1,18.412,0Z" stroke="none"/>
    <path d="M 120.2433776855469 70.26618194580078 C 121.3071441650391 70.26618194580078 122.3071899414062 70.1654052734375 123.2039108276367 69.9833984375 C 124.0998306274414 69.80155181884766 124.8919067382812 69.53874206542969 125.5411834716797 69.21465301513672 C 126.1894073486328 68.89105987548828 126.6948776245117 68.50655364990234 127.0192108154297 68.0806884765625 C 127.3428955078125 67.65570068359375 127.4860458374023 67.18970489501953 127.4108963012695 66.70207214355469 L 117.5687103271484 2.848347425460815 C 117.5153579711914 2.502261638641357 117.2840728759766 2.17295503616333 116.9121246337891 1.873834013938904 C 116.5408248901367 1.575233817100525 116.0292282104492 1.306610226631165 115.4142303466797 1.081263065338135 C 114.8000259399414 0.8562121391296387 114.0823745727539 0.6742101907730103 113.2977066040039 0.5485172271728516 C 112.5136108398438 0.4229167699813843 111.6620864868164 0.3534599244594574 110.7791519165039 0.3534599244594574 L 18.36418724060059 0.3534599244594574 C 17.48125839233398 0.3534599244594574 16.62972831726074 0.4229167699813843 15.8456335067749 0.5485172271728516 C 15.06096458435059 0.6742101907730103 14.3433141708374 0.8562121391296387 13.72911834716797 1.081263065338135 C 13.11411094665527 1.306610226631165 12.60252380371094 1.575233817100525 12.23122501373291 1.873834013938904 C 11.85927772521973 2.17295503616333 11.62798118591309 2.502261638641357 11.5746374130249 2.848347425460815 L 1.732446789741516 66.70207214355469 C 1.657282948493958 67.18970489501953 1.800444364547729 67.65570068359375 2.124111652374268 68.0806884765625 C 2.448454141616821 68.50655364990234 2.953922748565674 68.89105987548828 3.602156400680542 69.21465301513672 C 4.251413822174072 69.53874206542969 5.043497562408447 69.80155181884766 5.93942403793335 69.9833984375 C 6.83614444732666 70.1654052734375 7.836183547973633 70.26618194580078 8.899954795837402 70.26618194580078 L 120.2433776855469 70.26618194580078 M 120.3129959106445 70.78043365478516 L 8.830340385437012 70.78043365478516 C 7.611128330230713 70.78043365478516 6.465893268585205 70.66519927978516 5.439671039581299 70.45698547363281 C 4.414484977722168 70.24897003173828 3.508996725082397 69.94835662841797 2.767453908920288 69.57749176025391 C 2.027250289916992 69.20728302001953 1.45090925693512 68.76734161376953 1.081870794296265 68.2799072265625 C 0.7137095332145691 67.79364776611328 0.5520407557487488 67.26036071777344 0.6395907402038574 66.70207214355469 L 10.65295028686523 2.848347425460815 C 10.71506595611572 2.452244281768799 10.97997093200684 2.075738430023193 11.40526676177979 1.73400342464447 C 11.82971382141113 1.392948389053345 12.41408252716064 1.086389780044556 13.11652755737305 0.8293622136116028 C 13.81791591644287 0.5727206468582153 14.63742733001709 0.3653137683868408 15.53378963470459 0.2221273630857468 C 16.42939758300781 0.07906099408864975 17.40240287780762 5.017766428327009e-15 18.41203689575195 5.017766428327009e-15 L 110.7313079833984 5.017766428327009e-15 C 111.7409439086914 5.017766428327009e-15 112.7139434814453 0.07906099408864975 113.6095657348633 0.2221273630857468 C 114.5059204101562 0.3653137683868408 115.325439453125 0.5727206468582153 116.0268173217773 0.8293622136116028 C 116.7292556762695 1.086389780044556 117.3136291503906 1.392948389053345 117.7380752563477 1.73400342464447 C 118.1633605957031 2.075738430023193 118.4282760620117 2.452244281768799 118.4903945922852 2.848347425460815 L 128.5037536621094 66.70207214355469 C 128.5912933349609 67.26036071777344 128.4296264648438 67.79364776611328 128.0614471435547 68.2799072265625 C 127.6924133300781 68.76734161376953 127.116081237793 69.20728302001953 126.3758773803711 69.57749176025391 C 125.6343307495117 69.94835662841797 124.7288436889648 70.24897003173828 123.7036666870117 70.45698547363281 C 122.6774368286133 70.66519927978516 121.5322036743164 70.78043365478516 120.3129959106445 70.78043365478516 Z" stroke="none" fill="#707070"/>
  </g>
  <g id="Polygon_11" data-name="Polygon 11" transform="translate(48.62 22.188)" fill="#9d9ea0">
    <path d="M15.952,0,31.461,10.086,15.952,20.748.443,10.086Z" stroke="none"/>
    <path d="M 15.9517822265625 19.91238021850586 L 30.27657318115234 10.08579158782959 L 15.95178031921387 0.7507258653640747 L 1.626988649368286 10.08579158782959 L 15.9517822265625 19.91238021850586 M 15.95178127288818 20.74777793884277 L 0.4429964125156403 10.08579158782959 L 15.95178031921387 -1.423008786881883e-15 L 31.46056365966797 10.08579158782959 L 15.95178127288818 20.74777793884277 Z" stroke="none" fill="#707070"/>
  </g>
  <g id="Polygon_12" data-name="Polygon 12" transform="translate(71.963 26.648)" fill="#9d9ea0">
    <path d="M15.275,0,31.617,10.339,16.587,21.275.208,10.339Z" stroke="none"/>
    <path d="M 16.53391647338867 20.41821098327637 L 30.41812133789062 10.33856296539307 L 15.32246780395508 0.76929771900177 L 1.406797528266907 10.33856296539307 L 16.53391647338867 20.41821098327637 M 16.58676719665527 21.27543449401855 L 0.2078557908535004 10.33856296539307 L 15.27503681182861 -1.458174841994803e-15 L 31.61706161499023 10.33856296539307 L 16.58676719665527 21.27543449401855 Z" stroke="none" fill="#707070"/>
  </g>
  <g id="Polygon_13" data-name="Polygon 13" transform="translate(25.451 17.835)" fill="#9d9ea0">
    <path d="M17,0,31.709,9.842,15.75,20.24,1.073,9.842Z" stroke="none"/>
    <path d="M 15.80000877380371 19.42511558532715 L 30.53921890258789 9.842178344726562 L 16.95247459411621 0.7328184843063354 L 2.242461204528809 9.842178344726562 L 15.80000877380371 19.42511558532715 M 15.74979686737061 20.23951530456543 L 1.073050260543823 9.842178344726562 L 16.99765777587891 -1.38909962278357e-15 L 31.70863151550293 9.842178344726562 L 15.74979686737061 20.23951530456543 Z" stroke="none" fill="#707070"/>
  </g>
  <g id="Polygon_16" data-name="Polygon 16" transform="translate(8.22 57.332)" fill="#42424f">
    <path d="M8.3,0l6.437,4.877-7.628,5-6.422-5Z" stroke="none"/>
    <path d="M 7.22416877746582 8.948813438415527 L 13.45154666900635 4.877124786376953 L 8.196769714355469 0.8860440254211426 L 1.97911548614502 4.877124786376953 L 7.22416877746582 8.948813438415527 M 7.112423896789551 9.875164031982422 L 0.6900479197502136 4.877124786376953 L 8.303651809692383 0 L 14.74061393737793 4.877124786376953 L 7.112423896789551 9.875164031982422 Z" stroke="none" fill="#707070"/>
  </g>
  <g id="Polygon_17" data-name="Polygon 17" transform="translate(100.02 2.49)" fill="#42424f">
    <path d="M5.985,0l6.485,3.62-5.6,3.7L.374,3.62Z" stroke="none"/>
    <path d="M 6.78493070602417 6.633685111999512 L 11.35954284667969 3.620454072952271 L 6.06417179107666 0.6586475968360901 L 1.483356118202209 3.620454072952271 L 6.78493070602417 6.633685111999512 M 6.867484092712402 7.318046092987061 L 0.3736462295055389 3.620454072952271 L 5.984720230102539 0 L 12.46925258636475 3.620454072952271 L 6.867484092712402 7.318046092987061 Z" stroke="none" fill="#707070"/>
  </g>
  <g id="Path_6434" data-name="Path 6434" transform="translate(15.692 5.927)" fill="none">
    <path d="M80.981.183H6.546l-5.6,49.3" stroke="none"/>
    <path d="M 0.415596604347229 49.4879035949707 L 6.080976009368896 0.1835423409938812 L 6.101827621459961 0.0002270363038405776 L 6.568614482879639 0.0002270363038405776 L 80.9638671875 0.0002270363038405776 L 80.99744415283203 0.3661412298679352 L 6.990547657012939 0.3661412298679352 L 1.478710055351257 49.48645782470703 L 0.415596604347229 49.4879035949707 Z" stroke="none" fill="#b8b8b8"/>
  </g>
  <g id="Path_6435" data-name="Path 6435" transform="translate(27.259 11.308)" fill="none">
    <path d="M.023,50.9H86.488L79.912,0" stroke="none"/>
    <path d="M 87.05974578857422 51.14798355102539 L 86.51742553710938 51.14798355102539 L -0.0005280636833049357 51.14798355102539 L 0.04535790160298347 50.65422821044922 L 85.91577911376953 50.65422821044922 L 79.43948364257812 0.001152793876826763 L 80.38356018066406 0 L 87.02799224853516 50.90024185180664 L 87.05974578857422 51.14798355102539 Z" stroke="none" fill="#b8b8b8"/>
  </g>
</svg>
