<svg xmlns="http://www.w3.org/2000/svg" width="22" height="22" viewBox="0 0 22 22">
  <path id="Icon_awesome-thumbs-up" data-name="Icon awesome-thumbs-up" d="M4.469,9.625H1.031A1.031,1.031,0,0,0,0,10.656V20.969A1.031,1.031,0,0,0,1.031,22H4.469A1.031,1.031,0,0,0,5.5,20.969V10.656A1.031,1.031,0,0,0,4.469,9.625ZM2.75,20.281A1.031,1.031,0,1,1,3.781,19.25,1.031,1.031,0,0,1,2.75,20.281ZM16.5,3.5c0,1.823-1.116,2.845-1.43,4.063h4.371A2.567,2.567,0,0,1,22,10.059a3.111,3.111,0,0,1-.835,2.114l0,0a3.589,3.589,0,0,1-.4,3.415,3.4,3.4,0,0,1-.7,3.212,2.281,2.281,0,0,1-.264,1.918C18.915,21.982,16.741,22,14.9,22h-.122a12.335,12.335,0,0,1-5.137-1.363,6.762,6.762,0,0,0-2.262-.7.516.516,0,0,1-.506-.516V10.241a.515.515,0,0,1,.153-.366c1.7-1.682,2.434-3.463,3.829-4.86a5.2,5.2,0,0,0,1.091-2.531C12.139,1.688,12.539,0,13.406,0,14.438,0,16.5.344,16.5,3.5Z" fill="#fff"/>
</svg>
