<svg xmlns="http://www.w3.org/2000/svg" xmlns:xlink="http://www.w3.org/1999/xlink" width="255.255" height="399" viewBox="0 0 255.255 399">
  <defs>
    <filter id="right_page">
      <feOffset dx="33" input="SourceAlpha"/>
      <feGaussianBlur stdDeviation="17.5" result="blur"/>
      <feFlood flood-opacity="0.169" result="color"/>
      <feComposite operator="out" in="SourceGraphic" in2="blur"/>
      <feComposite operator="in" in="color"/>
      <feComposite operator="in" in2="SourceGraphic"/>
    </filter>
  </defs>
  <g id="Right_Page-2" data-name="Right_Page" transform="translate(-1596.88 -296)">
    <rect id="right_middle_line" width="1" height="399" transform="translate(1596.88 296)" fill="#818181"/>
    <g data-type="innerShadowGroup">
      <path id="right_page-3" data-name="right_page" d="M259.755,7.5,11.755,0a1,1,0,0,0-1,1V398a1,1,0,0,0,1,1l253-8c.552,0,0-6.448,0-7l-5-365.5C259.755,17.948,260.307,7.5,259.755,7.5Z" transform="translate(1587.135 296)" fill="#fff7e8"/>
      <g transform="matrix(1, 0, 0, 1, 1596.88, 296)" filter="url(#right_page)">
        <path id="right_page-4" data-name="right_page" d="M259.755,7.5,11.755,0a1,1,0,0,0-1,1V398a1,1,0,0,0,1,1l253-8c.552,0,0-6.448,0-7l-5-365.5C259.755,17.948,260.307,7.5,259.755,7.5Z" transform="translate(-9.74)" fill="#fff"/>
      </g>
    </g>
    <g id="right" transform="translate(39 -312)">
      <circle id="Ellipse_11162" data-name="Ellipse 11162" cx="5" cy="5" r="5" transform="translate(1563 623)" fill="#53514c"/>
      <path id="Path_9223" data-name="Path 9223" d="M1138,2829h9.922" transform="translate(419.88 -2201)" fill="none" stroke="#53514c" stroke-width="2"/>
    </g>
    <g id="right-2" data-name="right" transform="translate(39 -288)">
      <circle id="Ellipse_11162-2" data-name="Ellipse 11162" cx="5" cy="5" r="5" transform="translate(1563 623)" fill="#53514c"/>
      <path id="Path_9223-2" data-name="Path 9223" d="M1138,2829h9.922" transform="translate(419.88 -2201)" fill="none" stroke="#53514c" stroke-width="2"/>
    </g>
    <g id="right-3" data-name="right" transform="translate(39 -264)">
      <circle id="Ellipse_11162-3" data-name="Ellipse 11162" cx="5" cy="5" r="5" transform="translate(1563 623)" fill="#53514c"/>
      <path id="Path_9223-3" data-name="Path 9223" d="M1138,2829h9.922" transform="translate(419.88 -2201)" fill="none" stroke="#53514c" stroke-width="2"/>
    </g>
    <g id="right-4" data-name="right" transform="translate(39 -240)">
      <circle id="Ellipse_11162-4" data-name="Ellipse 11162" cx="5" cy="5" r="5" transform="translate(1563 623)" fill="#53514c"/>
      <path id="Path_9223-4" data-name="Path 9223" d="M1138,2829h9.922" transform="translate(419.88 -2201)" fill="none" stroke="#53514c" stroke-width="2"/>
    </g>
    <g id="right-5" data-name="right" transform="translate(39 -216)">
      <circle id="Ellipse_11162-5" data-name="Ellipse 11162" cx="5" cy="5" r="5" transform="translate(1563 623)" fill="#53514c"/>
      <path id="Path_9223-5" data-name="Path 9223" d="M1138,2829h9.922" transform="translate(419.88 -2201)" fill="none" stroke="#53514c" stroke-width="2"/>
    </g>
    <g id="right-6" data-name="right" transform="translate(39 -192)">
      <circle id="Ellipse_11162-6" data-name="Ellipse 11162" cx="5" cy="5" r="5" transform="translate(1563 623)" fill="#53514c"/>
      <path id="Path_9223-6" data-name="Path 9223" d="M1138,2829h9.922" transform="translate(419.88 -2201)" fill="none" stroke="#53514c" stroke-width="2"/>
    </g>
    <g id="right-7" data-name="right" transform="translate(39 -168)">
      <circle id="Ellipse_11162-7" data-name="Ellipse 11162" cx="5" cy="5" r="5" transform="translate(1563 623)" fill="#53514c"/>
      <path id="Path_9223-7" data-name="Path 9223" d="M1138,2829h9.922" transform="translate(419.88 -2201)" fill="none" stroke="#53514c" stroke-width="2"/>
    </g>
    <g id="right-8" data-name="right" transform="translate(39 -144)">
      <circle id="Ellipse_11162-8" data-name="Ellipse 11162" cx="5" cy="5" r="5" transform="translate(1563 623)" fill="#53514c"/>
      <path id="Path_9223-8" data-name="Path 9223" d="M1138,2829h9.922" transform="translate(419.88 -2201)" fill="none" stroke="#53514c" stroke-width="2"/>
    </g>
    <g id="right-9" data-name="right" transform="translate(39 -120)">
      <circle id="Ellipse_11162-9" data-name="Ellipse 11162" cx="5" cy="5" r="5" transform="translate(1563 623)" fill="#53514c"/>
      <path id="Path_9223-9" data-name="Path 9223" d="M1138,2829h9.922" transform="translate(419.88 -2201)" fill="none" stroke="#53514c" stroke-width="2"/>
    </g>
    <g id="right-10" data-name="right" transform="translate(39 -96)">
      <circle id="Ellipse_11162-10" data-name="Ellipse 11162" cx="5" cy="5" r="5" transform="translate(1563 623)" fill="#53514c"/>
      <path id="Path_9223-10" data-name="Path 9223" d="M1138,2829h9.922" transform="translate(419.88 -2201)" fill="none" stroke="#53514c" stroke-width="2"/>
    </g>
    <g id="right-11" data-name="right" transform="translate(39 -72)">
      <circle id="Ellipse_11162-11" data-name="Ellipse 11162" cx="5" cy="5" r="5" transform="translate(1563 623)" fill="#53514c"/>
      <path id="Path_9223-11" data-name="Path 9223" d="M1138,2829h9.922" transform="translate(419.88 -2201)" fill="none" stroke="#53514c" stroke-width="2"/>
    </g>
    <g id="right-12" data-name="right" transform="translate(39 -48)">
      <circle id="Ellipse_11162-12" data-name="Ellipse 11162" cx="5" cy="5" r="5" transform="translate(1563 623)" fill="#53514c"/>
      <path id="Path_9223-12" data-name="Path 9223" d="M1138,2829h9.922" transform="translate(419.88 -2201)" fill="none" stroke="#53514c" stroke-width="2"/>
    </g>
    <g id="right-13" data-name="right" transform="translate(39 -24)">
      <circle id="Ellipse_11162-13" data-name="Ellipse 11162" cx="5" cy="5" r="5" transform="translate(1563 623)" fill="#53514c"/>
      <path id="Path_9223-13" data-name="Path 9223" d="M1138,2829h9.922" transform="translate(419.88 -2201)" fill="none" stroke="#53514c" stroke-width="2"/>
    </g>
    <g id="right-14" data-name="right" transform="translate(39)">
      <circle id="Ellipse_11162-14" data-name="Ellipse 11162" cx="5" cy="5" r="5" transform="translate(1563 623)" fill="#53514c"/>
      <path id="Path_9223-14" data-name="Path 9223" d="M1138,2829h9.922" transform="translate(419.88 -2201)" fill="none" stroke="#53514c" stroke-width="2"/>
    </g>
    <g id="right-15" data-name="right" transform="translate(39 24)">
      <circle id="Ellipse_11162-15" data-name="Ellipse 11162" cx="5" cy="5" r="5" transform="translate(1563 623)" fill="#53514c"/>
      <path id="Path_9223-15" data-name="Path 9223" d="M1138,2829h9.922" transform="translate(419.88 -2201)" fill="none" stroke="#53514c" stroke-width="2"/>
    </g>
    <g id="right-16" data-name="right" transform="translate(39 48)">
      <circle id="Ellipse_11162-16" data-name="Ellipse 11162" cx="5" cy="5" r="5" transform="translate(1563 623)" fill="#53514c"/>
      <path id="Path_9223-16" data-name="Path 9223" d="M1138,2829h9.922" transform="translate(419.88 -2201)" fill="none" stroke="#53514c" stroke-width="2"/>
    </g>
  </g>
</svg>
