<svg id="Right_Page-2" data-name="Right_Page" xmlns="http://www.w3.org/2000/svg" xmlns:xlink="http://www.w3.org/1999/xlink" width="455.12" height="528" viewBox="0 0 455.12 528">
  <defs>
    <filter id="right_page">
      <feOffset dx="33" input="SourceAlpha"/>
      <feGaussianBlur stdDeviation="17.5" result="blur"/>
      <feFlood flood-opacity="0.169" result="color"/>
      <feComposite operator="out" in="SourceGraphic" in2="blur"/>
      <feComposite operator="in" in="color"/>
      <feComposite operator="in" in2="SourceGraphic"/>
    </filter>
  </defs>
  <rect id="right_middle_line" width="1.783" height="528" fill="#818181"/>
  <g data-type="innerShadowGroup">
    <path id="right_page-3" data-name="right_page" d="M455.5,9.925,12.541,0c-.986,0-1.786.592-1.786,1.323V526.677c0,.731.8,1.323,1.786,1.323l451.886-10.586c.986,0,0-8.532,0-9.263L455.5,24.481C455.5,23.75,456.482,9.925,455.5,9.925Z" transform="translate(-9.745)" fill="#fff7e8"/>
    <g transform="matrix(1, 0, 0, 1, 0, 0)" filter="url(#right_page)">
      <path id="right_page-4" data-name="right_page" d="M455.5,9.925,12.541,0c-.986,0-1.786.592-1.786,1.323V526.677c0,.731.8,1.323,1.786,1.323l451.886-10.586c.986,0,0-8.532,0-9.263L455.5,24.481C455.5,23.75,456.482,9.925,455.5,9.925Z" transform="translate(-9.74)" fill="#fff"/>
    </g>
  </g>
  <g id="right" transform="translate(0 15)">
    <circle id="Ellipse_11162" data-name="Ellipse 11162" cx="5" cy="5" r="5" transform="translate(5.12)" fill="#53514c"/>
    <path id="Path_9223" data-name="Path 9223" d="M1138,2829h9.922" transform="translate(-1138 -2824)" fill="none" stroke="#53514c" stroke-width="2"/>
  </g>
  <g id="right-2" data-name="right" transform="translate(0 39)">
    <circle id="Ellipse_11162-2" data-name="Ellipse 11162" cx="5" cy="5" r="5" transform="translate(5.12)" fill="#53514c"/>
    <path id="Path_9223-2" data-name="Path 9223" d="M1138,2829h9.922" transform="translate(-1138 -2824)" fill="none" stroke="#53514c" stroke-width="2"/>
  </g>
  <g id="right-3" data-name="right" transform="translate(0 63)">
    <circle id="Ellipse_11162-3" data-name="Ellipse 11162" cx="5" cy="5" r="5" transform="translate(5.12)" fill="#53514c"/>
    <path id="Path_9223-3" data-name="Path 9223" d="M1138,2829h9.922" transform="translate(-1138 -2824)" fill="none" stroke="#53514c" stroke-width="2"/>
  </g>
  <g id="right-4" data-name="right" transform="translate(0 88)">
    <circle id="Ellipse_11162-4" data-name="Ellipse 11162" cx="5" cy="5" r="5" transform="translate(5.12)" fill="#53514c"/>
    <path id="Path_9223-4" data-name="Path 9223" d="M1138,2829h9.922" transform="translate(-1138 -2824)" fill="none" stroke="#53514c" stroke-width="2"/>
  </g>
  <g id="right-5" data-name="right" transform="translate(0 115.851)">
    <circle id="Ellipse_11162-5" data-name="Ellipse 11162" cx="5" cy="5" r="5" transform="translate(5.12)" fill="#53514c"/>
    <path id="Path_9223-5" data-name="Path 9223" d="M1138,2829h9.922" transform="translate(-1138 -2824)" fill="none" stroke="#53514c" stroke-width="2"/>
  </g>
  <g id="right-6" data-name="right" transform="translate(0 147.81)">
    <circle id="Ellipse_11162-6" data-name="Ellipse 11162" cx="5" cy="5" r="5" transform="translate(5.12)" fill="#53514c"/>
    <path id="Path_9223-6" data-name="Path 9223" d="M1138,2829h9.922" transform="translate(-1138 -2824)" fill="none" stroke="#53514c" stroke-width="2"/>
  </g>
  <g id="right-7" data-name="right" transform="translate(0 179.769)">
    <circle id="Ellipse_11162-7" data-name="Ellipse 11162" cx="5" cy="5" r="5" transform="translate(5.12)" fill="#53514c"/>
    <path id="Path_9223-7" data-name="Path 9223" d="M1138,2829h9.922" transform="translate(-1138 -2824)" fill="none" stroke="#53514c" stroke-width="2"/>
  </g>
  <g id="right-8" data-name="right" transform="translate(0 211.728)">
    <circle id="Ellipse_11162-8" data-name="Ellipse 11162" cx="5" cy="5" r="5" transform="translate(5.12)" fill="#53514c"/>
    <path id="Path_9223-8" data-name="Path 9223" d="M1138,2829h9.922" transform="translate(-1138 -2824)" fill="none" stroke="#53514c" stroke-width="2"/>
  </g>
  <g id="right-9" data-name="right" transform="translate(0 243.686)">
    <circle id="Ellipse_11162-9" data-name="Ellipse 11162" cx="5" cy="5" r="5" transform="translate(5.12)" fill="#53514c"/>
    <path id="Path_9223-9" data-name="Path 9223" d="M1138,2829h9.922" transform="translate(-1138 -2824)" fill="none" stroke="#53514c" stroke-width="2"/>
  </g>
  <g id="right-10" data-name="right" transform="translate(0 275.645)">
    <circle id="Ellipse_11162-10" data-name="Ellipse 11162" cx="5" cy="5" r="5" transform="translate(5.12)" fill="#53514c"/>
    <path id="Path_9223-10" data-name="Path 9223" d="M1138,2829h9.922" transform="translate(-1138 -2824)" fill="none" stroke="#53514c" stroke-width="2"/>
  </g>
  <g id="right-11" data-name="right" transform="translate(0 307.604)">
    <circle id="Ellipse_11162-11" data-name="Ellipse 11162" cx="5" cy="5" r="5" transform="translate(5.12)" fill="#53514c"/>
    <path id="Path_9223-11" data-name="Path 9223" d="M1138,2829h9.922" transform="translate(-1138 -2824)" fill="none" stroke="#53514c" stroke-width="2"/>
  </g>
  <g id="right-12" data-name="right" transform="translate(0 339.563)">
    <circle id="Ellipse_11162-12" data-name="Ellipse 11162" cx="5" cy="5" r="5" transform="translate(5.12)" fill="#53514c"/>
    <path id="Path_9223-12" data-name="Path 9223" d="M1138,2829h9.922" transform="translate(-1138 -2824)" fill="none" stroke="#53514c" stroke-width="2"/>
  </g>
  <g id="right-13" data-name="right" transform="translate(0 371.522)">
    <circle id="Ellipse_11162-13" data-name="Ellipse 11162" cx="5" cy="5" r="5" transform="translate(5.12)" fill="#53514c"/>
    <path id="Path_9223-13" data-name="Path 9223" d="M1138,2829h9.922" transform="translate(-1138 -2824)" fill="none" stroke="#53514c" stroke-width="2"/>
  </g>
  <g id="right-14" data-name="right" transform="translate(0 403.481)">
    <circle id="Ellipse_11162-14" data-name="Ellipse 11162" cx="5" cy="5" r="5" transform="translate(5.12)" fill="#53514c"/>
    <path id="Path_9223-14" data-name="Path 9223" d="M1138,2829h9.922" transform="translate(-1138 -2824)" fill="none" stroke="#53514c" stroke-width="2"/>
  </g>
  <g id="right-15" data-name="right" transform="translate(0 429.481)">
    <circle id="Ellipse_11162-15" data-name="Ellipse 11162" cx="5" cy="5" r="5" transform="translate(5.12)" fill="#53514c"/>
    <path id="Path_9223-15" data-name="Path 9223" d="M1138,2829h9.922" transform="translate(-1138 -2824)" fill="none" stroke="#53514c" stroke-width="2"/>
  </g>
  <g id="right-16" data-name="right" transform="translate(0 456)">
    <circle id="Ellipse_11162-16" data-name="Ellipse 11162" cx="5" cy="5" r="5" transform="translate(5.12)" fill="#53514c"/>
    <path id="Path_9223-16" data-name="Path 9223" d="M1138,2829h9.922" transform="translate(-1138 -2824)" fill="none" stroke="#53514c" stroke-width="2"/>
  </g>
  <g id="right-17" data-name="right" transform="translate(0 480)">
    <circle id="Ellipse_11162-17" data-name="Ellipse 11162" cx="5" cy="5" r="5" transform="translate(5.12)" fill="#53514c"/>
    <path id="Path_9223-17" data-name="Path 9223" d="M1138,2829h9.922" transform="translate(-1138 -2824)" fill="none" stroke="#53514c" stroke-width="2"/>
  </g>
  <g id="right-18" data-name="right" transform="translate(0 504)">
    <circle id="Ellipse_11162-18" data-name="Ellipse 11162" cx="5" cy="5" r="5" transform="translate(5.12)" fill="#53514c"/>
    <path id="Path_9223-18" data-name="Path 9223" d="M1138,2829h9.922" transform="translate(-1138 -2824)" fill="none" stroke="#53514c" stroke-width="2"/>
  </g>
</svg>
