<svg xmlns="http://www.w3.org/2000/svg" width="50" height="50" viewBox="0 0 50 50">
  <path id="Path_5879" data-name="Path 5879" d="M50,25c-3.462,1.43-4.011,2.83-.56,5.058-4.032.653-4.073,2.073-1.41,4.7-3.711-.1-4.726.922-2.342,4.229-3.959-.974-4.519.342-3.016,3.721-3.379-1.5-4.7-.943-3.721,3.016-3.306-2.384-4.333-1.368-4.229,2.342-2.591-2.695-4.042-2.653-4.664,1.379-2.2-3.451-3.6-2.9-5.027.56C23.6,46.538,22.2,45.989,20,49.44c-.663-4.032-2.073-4.073-4.706-1.41.1-3.711-.912-4.726-4.218-2.342.974-3.959-.342-4.519-3.731-3.016,1.513-3.379.954-4.7-3.006-3.721C6.727,35.645,5.711,34.619,2,34.722,4.623,32.131,4.592,30.68.56,30.058,4.011,27.83,3.451,26.43,0,25c3.451-1.43,4.011-2.83.56-5.027,4.032-.663,4.063-2.073,1.41-4.706,3.711.1,4.726-.912,2.342-4.218,3.959.974,4.519-.342,3.006-3.731,3.389,1.513,4.706.954,3.731-3.006C14.355,6.7,15.371,5.68,15.267,1.969,17.859,4.623,19.31,4.592,19.973.56,22.17,4.011,23.57,3.451,25,0c1.43,3.451,2.83,4.011,5.058.56.653,4.032,2.073,4.063,4.7,1.41-.1,3.711.922,4.726,4.229,2.342-.974,3.959.342,4.519,3.721,3.006-1.5,3.389-.943,4.706,3.016,3.731-2.384,3.306-1.368,4.322,2.342,4.218-2.664,2.591-2.622,4.042,1.41,4.706C45.989,22.17,46.538,23.57,50,25Z" transform="translate(0 0)" fill="#e2a803"/>
</svg>
