<?xml version="1.0" encoding="utf-8"?><svg version="1.1" id="Layer_1" xmlns="http://www.w3.org/2000/svg" xmlns:xlink="http://www.w3.org/1999/xlink" x="0px" y="0px"    viewBox="0 0 30 30" style="enable-background:new 0 0 30 30;" xml:space="preserve"><style type="text/css">.st0{fill:#00CA00;}.st1{fill:#272525;}.st2{fill:#272525;}</style> <circle id="Ellipse_7" class="st0" cx="15" cy="15" r="14"/><path class="st2" d="M15,0C6.7,0,0,6.7,0,15s6.7,15,15,15s15-6.7,15-15S23.3,0,15,0z M15,29C7.3,29,1,22.7,1,15S7.3,1,15,1s13.9,6.3,14,14C29,22.7,22.7,29,15,29z"/><path id="Path_2" class="st2" d="M24.1,18c-0.1,0.2-0.3,0.3-0.5,0.3c-0.1,0-0.2,0-0.2-0.1L23.1,18c-1.7,4.5-6.7,6.7-11.2,5c-2.3-0.9-4.1-2.7-5-5l-0.3,0.2c-0.1,0-0.1,0.1-0.2,0.1c-0.3,0-0.5-0.2-0.5-0.5c0-0.2,0.1-0.4,0.3-0.5l1.5-0.7c0.3-0.1,0.6,0,0.7,0.2s0,0.6-0.2,0.7l0,0L8,17.6c1.5,4,5.9,6,9.8,4.5c2.1-0.8,3.7-2.4,4.5-4.5l-0.2-0.1c-0.3-0.1-0.4-0.4-0.2-0.7s0.4-0.4,0.7-0.2l0,0l1.5,0.7C24.1,17.4,24.2,17.7,24.1,18L24.1,18z"/><path id="Path_3" class="st2" d="M8.5,13.1c-0.9,0-1.7-0.5-2.1-1.2c-0.2-0.3-0.1-0.7,0.2-0.8c0.3-0.2,0.7-0.1,0.8,0.2c0.3,0.6,1.1,0.8,1.6,0.4c0.2-0.1,0.3-0.2,0.4-0.4c0.2-0.3,0.6-0.4,0.9-0.2s0.4,0.6,0.2,0.9C10,12.7,9.3,13.1,8.5,13.1z"/><path id="Path_4" class="st2" d="M21.5,13.1c-0.8,0-1.6-0.4-2-1.1c-0.2-0.3-0.1-0.7,0.2-0.9c0.3-0.2,0.7-0.1,0.9,0.2c0.4,0.5,1.1,0.7,1.6,0.3c0.1-0.1,0.3-0.2,0.4-0.4c0.2-0.3,0.5-0.4,0.8-0.2s0.4,0.5,0.2,0.8C23.2,12.6,22.4,13,21.5,13.1z"/></svg>