<svg id="_1_emo" data-name="1_emo" xmlns="http://www.w3.org/2000/svg" width="32" height="32" viewBox="0 0 32 32">
  <g id="XMLID_34_">
    <path id="XMLID_35_" d="M32,16A16,16,0,1,1,16,0,16.024,16.024,0,0,1,32,16Z" fill="#f54f4f"/>
  </g>
  <g id="XMLID_15_" transform="translate(5.902 11.307)">
    <path id="Path_44" data-name="Path 44" d="M31.573,19.74a2.626,2.626,0,0,1-1.92-.782,3.751,3.751,0,0,1-.853-2.347.64.64,0,0,1,1.28,0,2.3,2.3,0,0,0,.5,1.422,1.155,1.155,0,0,0,1,.356,1.407,1.407,0,0,0,1-.356,2.458,2.458,0,0,0,.5-1.493.64.64,0,1,1,1.28,0,3.751,3.751,0,0,1-.853,2.347A2.435,2.435,0,0,1,31.573,19.74Z" transform="translate(-14.222 -15.9)" fill="#291908"/>
    <path id="Path_45" data-name="Path 45" d="M11.073,19.74a2.626,2.626,0,0,1-1.92-.782A3.638,3.638,0,0,1,8.3,16.611a.64.64,0,0,1,1.28,0,2.3,2.3,0,0,0,.5,1.422,1.155,1.155,0,0,0,1,.356,1.407,1.407,0,0,0,1-.356,2.458,2.458,0,0,0,.5-1.493.64.64,0,1,1,1.28,0,3.751,3.751,0,0,1-.853,2.347A2.435,2.435,0,0,1,11.073,19.74Z" transform="translate(-8.3 -15.9)" fill="#291908"/>
  </g>
  <path id="Path_46" data-name="Path 46" d="M14.162,29.176h-.142a.613.613,0,0,1-.427-.782A6.708,6.708,0,0,1,19.922,23.7a6.612,6.612,0,0,1,6.329,4.693.63.63,0,1,1-1.209.356,5.393,5.393,0,0,0-5.12-3.769,5.6,5.6,0,0,0-5.191,3.769C14.731,29.033,14.446,29.176,14.162,29.176Z" transform="translate(-3.922 -6.847)" fill="#291908"/>
</svg>
