<svg xmlns="http://www.w3.org/2000/svg" width="32" height="32" viewBox="0 0 32 32">
  <g id="_3_emo" data-name="3_emo" transform="translate(-1402.805 -779.806)">
    <circle id="XMLID_21_" cx="16" cy="16" r="16" transform="matrix(0, -1, 1, 0, 1402.805, 811.806)" fill="#e1b043"/>
    <g id="XMLID_16_" transform="translate(1408.708 791.752)">
      <path id="Path_50" data-name="Path 50" d="M8.94,20.5a.637.637,0,0,1-.64-.64,3.751,3.751,0,0,1,.853-2.347,2.574,2.574,0,0,1,1.92-.711,2.626,2.626,0,0,1,1.92.782,3.751,3.751,0,0,1,.853,2.347.64.64,0,0,1-1.28,0,2.3,2.3,0,0,0-.5-1.422,1.155,1.155,0,0,0-1-.356,1.407,1.407,0,0,0-1,.356A2.752,2.752,0,0,0,9.509,20c.071.213-.213.5-.569.5Z" transform="translate(-8.3 -16.8)" fill="#291908"/>
      <path id="Path_51" data-name="Path 51" d="M29.44,20.5a.637.637,0,0,1-.64-.64,3.751,3.751,0,0,1,.853-2.347,2.574,2.574,0,0,1,1.92-.711,2.626,2.626,0,0,1,1.92.782,3.751,3.751,0,0,1,.853,2.347.64.64,0,0,1-1.28,0,2.3,2.3,0,0,0-.5-1.422,1.155,1.155,0,0,0-1-.356,1.407,1.407,0,0,0-1,.356A2.752,2.752,0,0,0,30.009,20c.071.213-.213.5-.569.5Z" transform="translate(-14.222 -16.8)" fill="#291908"/>
    </g>
    <path id="Path_52" data-name="Path 52" d="M16.547,32.738h-.213a.575.575,0,0,1-.356-.782c.071-.142,1.28-3.556,4.622-3.556s4.551,3.413,4.622,3.556a.63.63,0,0,1-1.209.356c0-.142-.924-2.773-3.413-2.773s-3.484,2.7-3.484,2.7A.541.541,0,0,1,16.547,32.738Z" transform="translate(1398.205 771.601)" fill="#291908"/>
  </g>
</svg>
