<svg id="_4_emo" data-name="4_emo" xmlns="http://www.w3.org/2000/svg" width="32" height="32" viewBox="0 0 32 32">
  <g id="XMLID_350_">
    <path id="XMLID_351_" d="M32,16A16,16,0,1,1,16,0,16.024,16.024,0,0,1,32,16Z" fill="#e8d909"/>
  </g>
  <g id="XMLID_103_" transform="translate(9.671 11.804)">
    <path id="XMLID_105_" d="M15.8,17.738h0a1.123,1.123,0,0,1-1.138,1.138h.071A1.123,1.123,0,0,1,13.6,17.738h0A1.123,1.123,0,0,1,14.738,16.6h-.071A1.169,1.169,0,0,1,15.8,17.738Z" transform="translate(-13.6 -16.6)" fill="#291908" stroke="#291908" stroke-width="1"/>
    <path id="XMLID_104_" d="M30.6,17.738h0a1.123,1.123,0,0,1-1.138,1.138h.071A1.123,1.123,0,0,1,28.4,17.738h0A1.123,1.123,0,0,1,29.538,16.6h-.071A1.224,1.224,0,0,1,30.6,17.738Z" transform="translate(-17.876 -16.6)" fill="#291908" stroke="#291908" stroke-width="1"/>
  </g>
  <path id="Path_53" data-name="Path 53" d="M25.084,29.3H15.7a.5.5,0,0,1,0-1h9.458a.486.486,0,0,1,.5.5A.551.551,0,0,1,25.084,29.3Z" transform="translate(-4.391 -8.176)" fill="#291908" stroke="#291908" stroke-width="0.5"/>
</svg>
