<svg xmlns="http://www.w3.org/2000/svg" width="32" height="32" viewBox="0 0 32 32">
  <g id="_6_emo" data-name="6_emo" transform="translate(-1583 -740)">
    <g id="XMLID_375_" transform="translate(1583 740)">
      <path id="XMLID_376_" d="M32,16A16,16,0,1,1,16,0,16.024,16.024,0,0,1,32,16Z" fill="#a1cb35"/>
    </g>
    <g id="XMLID_343_" transform="translate(1588.764 751.808)">
      <path id="Path_55" data-name="Path 55" d="M8.94,20.5a.637.637,0,0,1-.64-.64,3.751,3.751,0,0,1,.853-2.347,2.574,2.574,0,0,1,1.92-.711,2.626,2.626,0,0,1,1.92.782,3.751,3.751,0,0,1,.853,2.347.64.64,0,0,1-1.28,0,2.3,2.3,0,0,0-.5-1.422,1.155,1.155,0,0,0-1-.356,1.407,1.407,0,0,0-1,.356A2.752,2.752,0,0,0,9.509,20c.071.213-.213.5-.569.5Z" transform="translate(-8.3 -16.8)" fill="#291908"/>
      <path id="Path_56" data-name="Path 56" d="M29.44,20.5a.637.637,0,0,1-.64-.64,3.751,3.751,0,0,1,.853-2.347,2.574,2.574,0,0,1,1.92-.711,2.626,2.626,0,0,1,1.92.782,3.751,3.751,0,0,1,.853,2.347.64.64,0,0,1-1.28,0,2.3,2.3,0,0,0-.5-1.422,1.155,1.155,0,0,0-1-.356,1.407,1.407,0,0,0-1,.356A2.752,2.752,0,0,0,30.009,20c.071.213-.213.5-.569.5Z" transform="translate(-14.222 -16.8)" fill="#291908"/>
    </g>
    <path id="Path_57" data-name="Path 57" d="M20.6,32.716c-3.342,0-4.551-3.413-4.622-3.556a.63.63,0,0,1,1.209-.356c.071.142.924,2.7,3.413,2.7s3.413-2.631,3.484-2.773a.608.608,0,0,1,1.138.427C25.155,29.3,23.946,32.716,20.6,32.716Z" transform="translate(1578.258 731.68)" fill="#291908"/>
  </g>
</svg>
