<svg xmlns="http://www.w3.org/2000/svg" width="30" height="30" viewBox="0 0 30 30">
  <g id="Group_21" data-name="Group 21" transform="translate(-150 -48)">
    <circle id="Ellipse_11" data-name="Ellipse 11" cx="14" cy="14" r="14" transform="translate(151 49)" fill="#ff6e64"/>
    <g id="Group_16" data-name="Group 16" transform="translate(-1731.015 -574.38)">
      <path id="Path_17" data-name="Path 17" d="M1896.015,652.38a15,15,0,1,1,15-15A15.017,15.017,0,0,1,1896.015,652.38Zm0-28.952a13.952,13.952,0,1,0,13.953,13.952A13.968,13.968,0,0,0,1896.015,623.428Z" transform="translate(0)" fill="#272525"/>
      <path id="Path_18" data-name="Path 18" d="M1911.823,692.121a.524.524,0,0,1-.48-.733,8.166,8.166,0,0,1,14.984,0,.524.524,0,1,1-.961.417,7.119,7.119,0,0,0-13.062,0A.524.524,0,0,1,1911.823,692.121Z" transform="translate(-22.82 -48.293)" fill="#272525"/>
      <path id="Path_19" data-name="Path 19" d="M1908.721,668.725a2.422,2.422,0,0,1-2.089-1.205.616.616,0,1,1,1.067-.618,1.181,1.181,0,0,0,2,.069.616.616,0,1,1,1.021.69A2.412,2.412,0,0,1,1908.721,668.725Z" transform="translate(-19.24 -33.317)" fill="#272525"/>
      <path id="Path_20" data-name="Path 20" d="M1961.938,668.725a2.412,2.412,0,0,1-2-1.064.616.616,0,1,1,1.021-.69,1.181,1.181,0,0,0,2-.069.616.616,0,1,1,1.067.618A2.422,2.422,0,0,1,1961.938,668.725Z" transform="translate(-59.39 -33.317)" fill="#272525"/>
    </g>
  </g>
</svg>
