<?xml version="1.0" encoding="utf-8"?>
<!-- Generator: Adobe Illustrator 22.0.1, SVG Export Plug-In . SVG Version: 6.00 Build 0)  -->
<svg version="1.1" id="Layer_1" xmlns="http://www.w3.org/2000/svg" xmlns:xlink="http://www.w3.org/1999/xlink" x="0px" y="0px"
	 viewBox="0 0 525 185" style="enable-background:new 0 0 525 185;" xml:space="preserve">
<style type="text/css">
	.st0{fill:#515252;}
	.st1{fill:#FFFFFF;}
	.st2{fill:#F7B630;}
</style>
<rect class="st0" width="525" height="185"/>
<rect y="5" class="st1" width="525" height="5"/>
<rect y="174" class="st1" width="525" height="5"/>
<g>
	<rect x="6.8" y="58" class="st2" width="53" height="5"/>
	<rect x="89" y="58" class="st2" width="53" height="5"/>
	<rect x="171" y="58" class="st2" width="53" height="5"/>
	<rect x="252.8" y="58" class="st2" width="53" height="5"/>
	<rect x="335" y="58" class="st2" width="53" height="5"/>
	<rect x="417" y="58" class="st2" width="53" height="5"/>
	<rect x="509.8" y="58" class="st2" width="15.2" height="5"/>
</g>
<g>
	<rect x="6.8" y="121" class="st2" width="53" height="5"/>
	<rect x="89" y="121" class="st2" width="53" height="5"/>
	<rect x="171" y="121" class="st2" width="53" height="5"/>
	<rect x="252.8" y="121" class="st2" width="53" height="5"/>
	<rect x="335" y="121" class="st2" width="53" height="5"/>
	<rect x="417" y="121" class="st2" width="53" height="5"/>
	<rect x="509.8" y="121" class="st2" width="15.2" height="5"/>
</g>
<g>
	<rect x="470" y="19" class="st1" width="19.9" height="21"/>
	<rect x="489.9" y="19" width="19.9" height="21"/>
	<rect x="470" y="40" width="19.9" height="21"/>
	<rect x="489.9" y="40" class="st1" width="19.9" height="21"/>
	<rect x="470" y="61" class="st1" width="19.9" height="21"/>
	<rect x="489.9" y="61" width="19.9" height="21"/>
	<rect x="470" y="82" width="19.9" height="21"/>
	<rect x="489.9" y="82" class="st1" width="19.9" height="21"/>
	<rect x="470" y="103" class="st1" width="19.9" height="21"/>
	<rect x="489.9" y="103" width="19.9" height="21"/>
	<rect x="470" y="124" width="19.9" height="21"/>
	<rect x="489.9" y="124" class="st1" width="19.9" height="21"/>
	<rect x="470" y="145" class="st1" width="19.9" height="21"/>
	<rect x="489.9" y="145" width="19.9" height="21"/>
</g>
</svg>
