<svg xmlns="http://www.w3.org/2000/svg" width="22" height="22" viewBox="0 0 22 22">
  <path id="Icon_awesome-thumbs-down" data-name="Icon awesome-thumbs-down" d="M0,2.406V12.719A1.031,1.031,0,0,0,1.031,13.75H4.469A1.031,1.031,0,0,0,5.5,12.719V2.406A1.031,1.031,0,0,0,4.469,1.375H1.031A1.031,1.031,0,0,0,0,2.406ZM1.719,11A1.031,1.031,0,1,1,2.75,12.031,1.031,1.031,0,0,1,1.719,11ZM13.406,22c-.867,0-1.267-1.688-1.458-2.483a5.2,5.2,0,0,0-1.091-2.531c-1.4-1.4-2.127-3.178-3.829-4.86a.515.515,0,0,1-.153-.366V2.574a.516.516,0,0,1,.506-.516,6.761,6.761,0,0,0,2.262-.7A12.335,12.335,0,0,1,14.781,0H14.9c1.838,0,4.012.018,4.889,1.278A2.281,2.281,0,0,1,20.056,3.2a3.4,3.4,0,0,1,.7,3.212,3.59,3.59,0,0,1,.4,3.415l0,0A3.111,3.111,0,0,1,22,11.941a2.567,2.567,0,0,1-2.559,2.5H15.07c.314,1.218,1.43,2.24,1.43,4.063C16.5,21.656,14.437,22,13.406,22Z" fill="#fff"/>
</svg>
