<?xml version="1.0" encoding="utf-8"?>
<!-- Generator: Adobe Illustrator 23.0.2, SVG Export Plug-In . SVG Version: 6.00 Build 0)  -->
<svg version="1.1" id="Capa_1" xmlns="http://www.w3.org/2000/svg" xmlns:xlink="http://www.w3.org/1999/xlink" x="0px" y="0px"
	 viewBox="0 0 16 16" style="enable-background:new 0 0 16 16;" xml:space="preserve">
<g>
	<path d="M6.3,8.5C6,8.9,5.9,9.1,5.5,9.7c0.3,0.2,0.8,0.6,1.1,1.3c0.7-0.4,1-0.5,1.4-0.8c2.4-2,8.2-9.2,8-9.4
		C15.8,0.7,8.4,6.2,6.3,8.5z M4.9,10.3c-1-0.2-2,0.5-2.7,2.1C1.4,14,0.2,14.7,0,14.6c1.3,0.5,5.1,1.6,6.1-2.8
		C5.7,10.7,4.9,10.3,4.9,10.3z"/>
</g>
</svg>
